<svg width="390" height="287" viewBox="0 0 390 287" fill="none" xmlns="http://www.w3.org/2000/svg">
<path d="M92.2323 122.844C92.2323 122.844 77.9433 30.5908 114.225 17.9358C150.507 5.28078 108.405 122.089 108.405 122.089L92.2323 122.844Z" fill="#03A294"/>
<path d="M99.1839 122.774C99.1701 122.774 99.1564 122.773 99.1424 122.771C98.9796 122.75 98.8659 122.611 98.8889 122.459C98.9255 122.215 102.602 97.8141 107.23 72.7519C113.452 39.0572 118.346 20.2739 121.778 16.9241C121.892 16.8133 122.08 16.8093 122.199 16.9146C122.318 17.0198 122.323 17.195 122.21 17.3056C114.193 25.1307 99.6246 121.562 99.4782 122.536C99.4575 122.674 99.3301 122.774 99.1839 122.774Z" fill="#014E49"/>
<path d="M113.889 41.8108C113.784 41.8108 113.683 41.7599 113.628 41.669C113.548 41.5355 113.6 41.3669 113.743 41.2926L128.81 33.4723C128.954 33.3979 129.135 33.4453 129.215 33.5788C129.295 33.7123 129.244 33.8809 129.101 33.9552L114.033 41.7755C113.987 41.7996 113.938 41.8108 113.889 41.8108Z" fill="#014E49"/>
<path d="M112.535 47.8524C112.438 47.8524 112.342 47.8077 112.285 47.7254L99.9614 29.9093C99.8724 29.7807 99.9126 29.6097 100.051 29.527C100.189 29.4445 100.373 29.4815 100.462 29.6099L112.785 47.426C112.874 47.5546 112.834 47.7256 112.696 47.8083C112.647 47.8381 112.591 47.8524 112.535 47.8524Z" fill="#014E49"/>
<path d="M110.12 59.5035C110.007 59.5035 109.9 59.4438 109.849 59.3425C109.781 59.2037 109.846 59.0393 109.995 58.9756L127.333 51.5509C127.482 51.4869 127.658 51.5476 127.727 51.6866C127.796 51.8253 127.731 51.9897 127.581 52.0535L110.244 59.4782C110.204 59.4954 110.161 59.5035 110.12 59.5035Z" fill="#014E49"/>
<path d="M108.566 67.4869C108.482 67.4869 108.399 67.454 108.34 67.3898L92.3742 49.9988C92.2675 49.8825 92.2824 49.708 92.4075 49.6089C92.5321 49.5098 92.7202 49.5235 92.827 49.6398L108.793 67.0309C108.899 67.1471 108.884 67.3217 108.759 67.4209C108.703 67.4651 108.635 67.4869 108.566 67.4869Z" fill="#014E49"/>
<path d="M105.498 84.3169C105.39 84.3169 105.285 84.2613 105.232 84.1649C105.158 84.0283 105.217 83.8622 105.364 83.7931L122.235 75.8802C122.381 75.8111 122.56 75.8661 122.635 76.0026C122.709 76.1392 122.65 76.3053 122.503 76.3744L105.632 84.2873C105.589 84.3074 105.543 84.3169 105.498 84.3169Z" fill="#014E49"/>
<path d="M103.968 93.1635C103.882 93.1635 103.797 93.1293 103.738 93.0631L89.3399 76.8597C89.2353 76.7419 89.253 76.5676 89.3798 76.4701C89.5065 76.373 89.694 76.3896 89.7989 76.5072L104.197 92.7106C104.302 92.8284 104.284 93.0027 104.157 93.1002C104.101 93.1428 104.034 93.1635 103.968 93.1635Z" fill="#014E49"/>
<path d="M101.408 108.608C101.327 108.608 101.247 108.577 101.188 108.518L89.5533 96.7034C89.4422 96.5907 89.4505 96.4157 89.5718 96.3127C89.6933 96.2094 89.8812 96.2174 89.992 96.3299L101.627 108.144C101.738 108.257 101.73 108.432 101.609 108.535C101.552 108.584 101.48 108.608 101.408 108.608Z" fill="#014E49"/>
<path d="M100.633 113.447C100.519 113.447 100.41 113.386 100.361 113.282C100.295 113.142 100.363 112.979 100.514 112.917L113.014 107.816C113.164 107.754 113.34 107.818 113.406 107.958C113.472 108.098 113.403 108.261 113.253 108.322L100.753 113.424C100.714 113.44 100.673 113.447 100.633 113.447Z" fill="#014E49"/>
<path d="M100.25 115.876C100.132 115.876 100.021 115.81 99.9738 115.702C99.9128 115.56 99.9868 115.399 100.139 115.342L107.734 112.511C107.886 112.454 108.059 112.523 108.121 112.665C108.182 112.806 108.108 112.968 107.955 113.024L100.361 115.856C100.325 115.869 100.287 115.876 100.25 115.876Z" fill="#014E49"/>
<path d="M108.038 70.3075C107.954 70.3075 107.872 70.2753 107.813 70.2124L98.0982 59.8218C97.9902 59.7064 98.0035 59.5317 98.1276 59.4315C98.2515 59.3309 98.4394 59.3432 98.5474 59.4589L108.262 69.8495C108.37 69.9649 108.357 70.1396 108.233 70.2398C108.176 70.2853 108.107 70.3075 108.038 70.3075Z" fill="#014E49"/>
<path d="M114.456 39.3909C114.356 39.3909 114.258 39.3439 114.202 39.2583C114.117 39.1279 114.161 38.9576 114.301 38.8779L121.944 34.5408C122.084 34.4613 122.267 34.5022 122.353 34.6328C122.438 34.7632 122.394 34.9335 122.254 35.0131L114.611 39.3503C114.563 39.3779 114.509 39.3909 114.456 39.3909Z" fill="#014E49"/>
<path d="M82.1648 128.94C82.1648 128.94 35.723 -2.14358 68.0369 0.161142C100.351 2.46586 96.7865 128.908 96.7865 128.908L82.1648 128.94Z" fill="#71BFB8"/>
<path d="M90.137 129.187C90.0017 129.187 89.8819 129.097 89.8574 128.969L65.2889 0.310829C65.2613 0.167198 65.3643 0.029963 65.5191 0.00436967C65.6733 -0.0221062 65.8211 0.0745309 65.8487 0.218383L90.4175 128.877C90.445 129.021 90.342 129.158 90.1873 129.183C90.1702 129.186 90.1533 129.187 90.137 129.187Z" fill="#014E49"/>
<path d="M68.0454 13.5001C67.9813 13.5001 67.9172 13.4803 67.8641 13.4394C67.7433 13.3463 67.7264 13.1798 67.8266 13.0675L76.0883 3.79584C76.1885 3.68354 76.3679 3.6681 76.4884 3.76099C76.6092 3.85409 76.626 4.02067 76.5259 4.13297L68.2644 13.4046C68.2082 13.4675 68.1272 13.5001 68.0454 13.5001Z" fill="#014E49"/>
<path d="M69.4524 20.8675C69.4128 20.8675 69.3729 20.8598 69.3347 20.8437L56.3872 15.3568C56.2443 15.2963 56.1812 15.1395 56.2464 15.0069C56.3115 14.8741 56.4802 14.8158 56.6228 14.876L69.5703 20.3629C69.7132 20.4234 69.7763 20.5803 69.7111 20.7129C69.6636 20.8099 69.5604 20.8675 69.4524 20.8675Z" fill="#014E49"/>
<path d="M70.9693 28.8089C70.8934 28.8089 70.8174 28.7808 70.7617 28.725C70.6544 28.6184 70.6606 28.4512 70.7752 28.3515L84.2849 16.6145C84.3995 16.5146 84.5794 16.5205 84.6867 16.6271C84.7939 16.7337 84.7877 16.9009 84.6731 17.0006L71.1634 28.7376C71.1084 28.7852 71.0386 28.8089 70.9693 28.8089Z" fill="#014E49"/>
<path d="M72.8233 38.5195C72.7892 38.5195 72.7545 38.5137 72.7206 38.5014L57.2526 32.9249C57.1062 32.8722 57.0336 32.719 57.0903 32.5829C57.147 32.447 57.3115 32.3795 57.4581 32.432L72.9261 38.0085C73.0725 38.0612 73.1451 38.2143 73.0884 38.3505C73.0447 38.455 72.9372 38.5195 72.8233 38.5195Z" fill="#014E49"/>
<path d="M74.1147 45.2815C74.0307 45.2815 73.9474 45.247 73.8914 45.1809C73.7941 45.0664 73.8154 44.9 73.9386 44.8098L89.4661 33.4289C89.5897 33.3384 89.7684 33.3581 89.8652 33.4728C89.9625 33.5875 89.9412 33.7537 89.818 33.8439L74.2905 45.2248C74.2383 45.2629 74.1764 45.2815 74.1147 45.2815Z" fill="#014E49"/>
<path d="M75.8662 54.4545C75.8332 54.4545 75.7997 54.449 75.767 54.4378L59.6935 48.8719C59.5463 48.8209 59.4716 48.6687 59.5262 48.5319C59.5812 48.3951 59.7452 48.3256 59.8916 48.3763L75.9651 53.9422C76.1123 53.9932 76.1873 54.1454 76.1324 54.282C76.09 54.3886 75.9815 54.4545 75.8662 54.4545Z" fill="#014E49"/>
<path d="M78.4728 68.1041C78.3995 68.1041 78.3264 68.0779 78.2706 68.0256C78.1603 67.9219 78.1612 67.7544 78.2727 67.6518L93.0501 54.0567C93.1619 53.9541 93.3418 53.955 93.4521 54.0587C93.5625 54.1624 93.5615 54.3296 93.45 54.4324L78.6724 68.0276C78.6173 68.0788 78.5449 68.1041 78.4728 68.1041Z" fill="#014E49"/>
<path d="M80.1042 76.6466C80.0766 76.6466 80.0486 76.6429 80.0209 76.6349L64.9433 72.3443C64.7933 72.3015 64.7088 72.1537 64.7546 72.0142C64.8007 71.8748 64.9599 71.7963 65.1096 71.8388L80.1872 76.1295C80.3372 76.1723 80.4217 76.3199 80.3759 76.4595C80.3384 76.5734 80.2257 76.6466 80.1042 76.6466Z" fill="#014E49"/>
<path d="M82.5191 89.2928C82.4479 89.2928 82.3765 89.2681 82.3212 89.2182C82.2085 89.1167 82.2059 88.9493 82.315 88.8445L95.277 76.4187C95.3862 76.3139 95.5661 76.3113 95.679 76.413C95.7917 76.5147 95.7944 76.6819 95.6852 76.7867L82.7232 89.2125C82.6674 89.2661 82.5931 89.2928 82.5191 89.2928Z" fill="#014E49"/>
<path d="M83.4538 94.187C83.4263 94.187 83.3985 94.1833 83.3708 94.1756L69.7994 90.3322C69.6492 90.2898 69.5647 90.142 69.6102 90.0023C69.656 89.8626 69.8148 89.7843 69.965 89.8265L83.5362 93.6696C83.6864 93.7122 83.7709 93.8598 83.7253 93.9995C83.688 94.1136 83.5756 94.187 83.4538 94.187Z" fill="#014E49"/>
<path d="M85.2244 103.461C85.1435 103.461 85.0631 103.429 85.0068 103.367C84.9057 103.255 84.9209 103.088 85.041 102.994L96.0241 94.389C96.1442 94.295 96.3236 94.3094 96.4247 94.4208C96.5258 94.5324 96.5106 94.6992 96.3905 94.7932L85.4074 103.398C85.3542 103.44 85.2892 103.461 85.2244 103.461Z" fill="#014E49"/>
<path d="M86.3739 109.479C86.3433 109.479 86.3125 109.475 86.2818 109.465L74.9508 105.857C74.8023 105.81 74.723 105.659 74.774 105.521C74.8248 105.383 74.9862 105.31 75.135 105.357L86.4662 108.965C86.6145 109.012 86.694 109.162 86.643 109.301C86.6022 109.41 86.4921 109.479 86.3739 109.479Z" fill="#014E49"/>
<path d="M87.5612 115.697C87.4798 115.697 87.3992 115.665 87.3429 115.602C87.2423 115.49 87.2584 115.324 87.379 115.23L96.4796 108.165C96.5999 108.071 96.7793 108.086 96.8799 108.199C96.9805 108.311 96.9644 108.477 96.8438 108.571L87.7432 115.636C87.6901 115.677 87.6255 115.697 87.5612 115.697Z" fill="#014E49"/>
<path d="M88.8466 122.428C88.8188 122.428 88.7908 122.424 88.7631 122.416L78.8174 119.575C78.6675 119.532 78.583 119.384 78.629 119.245C78.6751 119.105 78.8343 119.026 78.9843 119.069L88.9299 121.911C89.0799 121.953 89.1644 122.101 89.1183 122.241C89.0806 122.355 88.9681 122.428 88.8466 122.428Z" fill="#014E49"/>
<path d="M80.6179 79.3375C80.5925 79.3375 80.5666 79.3341 80.5408 79.3275L74.3334 77.7037C74.1822 77.6642 74.0942 77.5183 74.1367 77.3778C74.1791 77.2373 74.336 77.155 74.4872 77.1949L80.6945 78.8187C80.8457 78.8582 80.9338 79.0041 80.8913 79.1446C80.8562 79.2613 80.7422 79.3375 80.6179 79.3375Z" fill="#014E49"/>
<path d="M74.6937 48.313C74.6135 48.313 74.5338 48.2814 74.4776 48.2203C74.3755 48.1093 74.3898 47.9425 74.5091 47.8479L81.6119 42.2079C81.7312 42.113 81.9106 42.1262 82.0124 42.2372C82.1145 42.3482 82.1002 42.515 81.9809 42.6099L74.8781 48.2497C74.8247 48.292 74.759 48.313 74.6937 48.313Z" fill="#014E49"/>
<path d="M69.9122 23.2758C69.8799 23.2758 69.8472 23.2708 69.8151 23.26L61.2805 20.3772C61.1329 20.3273 61.0569 20.1757 61.1103 20.0385C61.1642 19.9015 61.3272 19.8311 61.4746 19.8803L70.0092 22.7629C70.1568 22.8127 70.2328 22.9643 70.1794 23.1015C70.1374 23.209 70.0285 23.2758 69.9122 23.2758Z" fill="#014E49"/>
<path d="M67.1808 8.97278C67.1274 8.97278 67.0733 8.95887 67.0253 8.92953L59.6793 4.45975C59.5479 4.37988 59.5113 4.21618 59.5972 4.09395C59.6834 3.97194 59.8595 3.93752 59.9907 4.01761L67.3367 8.48739C67.4681 8.56726 67.5049 8.73119 67.4188 8.8532C67.3642 8.93064 67.2733 8.97278 67.1808 8.97278Z" fill="#014E49"/>
<path d="M83.8937 96.4906C83.8681 96.4906 83.842 96.4872 83.8161 96.4804L75.5511 94.3045C75.3999 94.2648 75.3123 94.1188 75.3551 93.9782C75.3978 93.8379 75.5549 93.7565 75.706 93.796L83.9711 95.9718C84.1222 96.0116 84.2098 96.1576 84.1671 96.2982C84.1315 96.4144 84.0176 96.4906 83.8937 96.4906Z" fill="#014E49"/>
<path d="M72.5431 113.069C72.5431 113.069 11.7376 61.3273 14.8562 39.1441C17.9749 16.9609 65.4686 40.3594 87.409 111.109L72.5431 113.069Z" fill="#03A294"/>
<path d="M81.2345 111.866C81.1173 111.866 81.0027 111.812 80.9346 111.714C80.464 111.031 33.6757 43.3545 17.1489 33.831C16.9819 33.7348 16.9304 33.5307 17.0338 33.3754C17.1373 33.22 17.3568 33.1719 17.5239 33.2684C24.5267 37.3035 37.4284 51.6737 55.8712 75.9792C69.5931 94.063 81.416 111.186 81.534 111.357C81.6401 111.51 81.5919 111.715 81.4265 111.814C81.3669 111.849 81.3005 111.866 81.2345 111.866Z" fill="#014E49"/>
<path d="M31.7498 47.1566C31.5535 47.1566 31.394 47.0088 31.3938 46.8263L31.3684 32.5578C31.3682 32.3749 31.5272 32.2266 31.7239 32.2262H31.7244C31.9206 32.2262 32.0801 32.374 32.0803 32.5567L32.1057 46.8252C32.1059 47.0081 31.947 47.1564 31.7505 47.1566H31.7498Z" fill="#014E49"/>
<path d="M27.7528 42.8653C27.7497 42.8653 27.7469 42.8653 27.7438 42.8653L14.7953 42.5662C14.5988 42.5615 14.4434 42.41 14.4484 42.2271C14.4533 42.0441 14.6204 41.895 14.8131 41.9045L27.7616 42.2037C27.9581 42.2081 28.1135 42.3599 28.1085 42.5428C28.1035 42.7226 27.9453 42.8653 27.7528 42.8653Z" fill="#014E49"/>
<path d="M40.4955 57.3427C40.4815 57.3427 40.4673 57.342 40.453 57.3403C40.2577 57.3187 40.1184 57.1541 40.1417 56.9725L42.4148 39.2251C42.4379 39.0435 42.6154 38.9126 42.8104 38.9356C43.0057 38.9572 43.145 39.1218 43.1218 39.3034L40.8486 57.0508C40.827 57.2189 40.6733 57.3427 40.4955 57.3427Z" fill="#014E49"/>
<path d="M21.3206 58.4643C21.1519 58.4643 21.0019 58.352 20.9708 58.192C20.9359 58.0122 21.0645 57.8399 21.2579 57.8075L38.906 54.8464C39.1008 54.8148 39.2847 54.9335 39.3196 55.1131C39.3545 55.2929 39.2259 55.4653 39.0327 55.4977L21.3842 58.459C21.3628 58.4625 21.3415 58.4643 21.3206 58.4643Z" fill="#014E49"/>
<path d="M49.2075 68.2181C49.1776 68.2181 49.1475 68.2146 49.1173 68.2073C48.927 68.161 48.8133 67.9803 48.8629 67.8033L53.9268 49.798C53.9764 49.6211 54.171 49.5149 54.3613 49.5615C54.5516 49.6076 54.6653 49.7885 54.6157 49.9655L49.5518 67.9708C49.5096 68.1197 49.3656 68.2181 49.2075 68.2181Z" fill="#014E49"/>
<path d="M32.4558 73.4743C32.2869 73.4743 32.1369 73.362 32.1058 73.2018C32.0709 73.022 32.1998 72.8499 32.3932 72.8175L50.5203 69.7871C50.7133 69.7544 50.8988 69.8743 50.9337 70.0543C50.9686 70.2343 50.8398 70.4062 50.6463 70.4386L32.5192 73.469C32.4981 73.4725 32.4767 73.4743 32.4558 73.4743Z" fill="#014E49"/>
<path d="M58.9411 80.9593C58.9041 80.9593 58.8661 80.9538 58.8289 80.9423C58.6423 80.8847 58.5412 80.6974 58.6032 80.524L64.7005 63.4491C64.7624 63.2757 64.9636 63.1819 65.1504 63.2393C65.3369 63.2969 65.438 63.4842 65.3761 63.6578L59.2785 80.7327C59.2292 80.8715 59.0904 80.9593 58.9411 80.9593Z" fill="#014E49"/>
<path d="M43.4451 85.7215C43.2717 85.7215 43.1196 85.6032 43.0935 85.4388C43.0647 85.2579 43.1993 85.0898 43.3936 85.0631L60.6765 82.6953C60.8704 82.6679 61.0517 82.7935 61.0806 82.9744C61.1093 83.1553 60.9748 83.3234 60.7804 83.3501L43.4976 85.7181C43.4798 85.7206 43.4625 85.7215 43.4451 85.7215Z" fill="#014E49"/>
<path d="M67.5729 92.6605C67.5354 92.6605 67.4972 92.655 67.4595 92.6431C67.273 92.5848 67.1728 92.3973 67.2355 92.2241L72.6595 77.2154C72.7222 77.0422 72.9241 76.9491 73.1102 77.0071C73.2967 77.0654 73.3968 77.2529 73.3342 77.4263L67.9101 92.435C67.8603 92.5731 67.7217 92.6605 67.5729 92.6605Z" fill="#014E49"/>
<path d="M55.3912 97.7223C55.2146 97.7223 55.0616 97.6005 55.0386 97.4332C55.0136 97.2519 55.1515 97.0862 55.3463 97.063L69.9374 95.3269C70.1318 95.3028 70.3107 95.4317 70.3356 95.613C70.3608 95.7944 70.2227 95.9601 70.0278 95.9832L55.4367 97.7194C55.4216 97.7214 55.4061 97.7223 55.3912 97.7223Z" fill="#014E49"/>
<path d="M76.1476 104.61C76.1039 104.61 76.0593 104.603 76.0163 104.587C75.8336 104.519 75.7444 104.327 75.817 104.157L80.3832 93.4732C80.4558 93.3033 80.6628 93.2204 80.8455 93.2879C81.0282 93.3554 81.1174 93.5478 81.0448 93.7177L76.4786 104.401C76.4228 104.531 76.2893 104.61 76.1476 104.61Z" fill="#014E49"/>
<path d="M65.9148 107.544C65.7335 107.544 65.5785 107.416 65.561 107.245C65.5422 107.063 65.6856 106.901 65.8813 106.883L77.4556 105.85C77.6502 105.832 77.8251 105.965 77.8441 106.147C77.8628 106.329 77.7195 106.491 77.5237 106.509L65.9494 107.542C65.9378 107.543 65.9264 107.544 65.9148 107.544Z" fill="#014E49"/>
<path d="M50.5834 70.4441C50.5502 70.4441 50.5167 70.4397 50.4832 70.4307C50.2946 70.3793 50.1866 70.1955 50.2417 70.0201L53.5112 59.644C53.5663 59.4686 53.7635 59.3675 53.9529 59.4194C54.1415 59.4708 54.2497 59.6546 54.1944 59.83L50.9249 70.2061C50.8793 70.3503 50.7374 70.4441 50.5834 70.4441Z" fill="#014E49"/>
<path d="M38.9696 55.5029C38.957 55.5029 38.9446 55.5024 38.9318 55.5011C38.7363 55.4821 38.5944 55.3191 38.615 55.1375L39.6943 45.5945C39.7149 45.4127 39.8924 45.2799 40.0854 45.3C40.2809 45.319 40.4228 45.482 40.4022 45.6636L39.3229 55.2066C39.3039 55.3765 39.1494 55.5029 38.9696 55.5029Z" fill="#014E49"/>
<path d="M29.8883 45.1225C29.8845 45.1225 29.8807 45.1225 29.8769 45.1223L20.2388 44.8379C20.0423 44.8322 19.8881 44.6793 19.8942 44.4968C19.9004 44.3142 20.0667 44.1701 20.2611 44.1765L29.8992 44.4611C30.0957 44.4668 30.2499 44.6197 30.2438 44.8022C30.2376 44.9813 30.0795 45.1225 29.8883 45.1225Z" fill="#014E49"/>
<path d="M50.4364 87.3066C50.2625 87.3066 50.1101 87.1877 50.0845 87.0229C50.0565 86.842 50.1915 86.6741 50.3861 86.6481L62.4146 85.037C62.6075 85.0114 62.7895 85.1365 62.8177 85.3174C62.8457 85.4984 62.7107 85.6662 62.5161 85.6923L50.4877 87.3033C50.4703 87.3055 50.4533 87.3066 50.4364 87.3066Z" fill="#014E49"/>
<path d="M34.358 64.3266C34.1876 64.3266 34.0369 64.2123 34.0075 64.0508C33.9747 63.8708 34.1052 63.6998 34.2991 63.6693L44.7697 62.0223C44.9628 61.9926 45.1472 62.1132 45.18 62.2935C45.2127 62.4735 45.0822 62.6445 44.8883 62.675L34.4178 64.322C34.3976 64.3253 34.3777 64.3266 34.358 64.3266Z" fill="#014E49"/>
<path d="M36.6201 99.0976C7.51379 104.533 1.6709 120.182 0.181816 138.656C-1.41548 158.476 7.70008 178.327 20.1137 194.024C56.5344 240.074 120.843 261.772 182.32 261.314C226.403 260.986 270.347 250.466 309.156 231.024C333.194 218.981 355.886 202.923 369.249 180.783C390.385 145.767 397.042 96.1698 378.451 59.9277C363.933 31.6268 338.731 23.9497 315.053 17.0977C299.66 12.6432 282.978 14.4049 267.267 17.7651C259.105 19.5108 251.052 21.6743 243.113 24.1513C167.032 47.8913 120.747 82.8176 36.6201 99.0976Z" fill="#E6EFF2"/>
<mask id="mask0_207_3" style="mask-type:luminance" maskUnits="userSpaceOnUse" x="0" y="14" width="390" height="248">
<path d="M36.6201 99.0976C7.51379 104.533 1.6709 120.182 0.181816 138.656C-1.41548 158.476 7.70008 178.327 20.1137 194.024C56.5344 240.074 120.843 261.772 182.32 261.314C226.403 260.986 270.347 250.466 309.156 231.024C333.194 218.981 355.886 202.923 369.249 180.783C390.385 145.767 397.042 96.1698 378.451 59.9277C363.933 31.6268 338.731 23.9497 315.053 17.0977C299.66 12.6432 282.978 14.4049 267.267 17.7651C259.105 19.5108 251.052 21.6743 243.113 24.1513C167.032 47.8913 120.747 82.8176 36.6201 99.0976Z" fill="white"/>
</mask>
<g mask="url(#mask0_207_3)">
<path d="M31.5317 155.477C34.306 140.125 21.1439 139.592 11.4659 120.369C3.09814 103.748 -5.71129 105.201 -7.94337 105.899L-7.95049 105.886C-7.95049 105.886 -7.98988 105.903 -8.06036 105.937C-8.33444 106.029 -8.48228 106.099 -8.48228 106.099L-8.45381 106.155C-10.4275 107.35 -17.1171 112.873 -8.28509 129.285C1.93013 148.267 -5.78509 158.195 8.88811 165.695C23.5613 173.194 3.59553 185.849 16.2806 193.399C28.9654 200.949 30.029 205.309 30.029 205.309L40.0326 198.51L51.8394 195.466C51.8394 195.466 48.8211 191.987 50.3197 178.053C51.8176 164.119 28.7573 170.83 31.5317 155.477Z" fill="#71BFB8"/>
<path d="M40.032 198.73C39.9445 198.73 39.86 198.685 39.8189 198.607L-7.11265 109.716C-7.17032 109.607 -7.12191 109.475 -7.00421 109.421C-6.88674 109.367 -6.74436 109.412 -6.68669 109.522L40.2449 198.413C40.3026 198.522 40.2541 198.654 40.1364 198.708C40.1027 198.723 40.0671 198.73 40.032 198.73Z" fill="#014E49"/>
<path d="M1.05819 124.911C1.04751 124.911 1.03659 124.911 1.02568 124.909C0.895871 124.893 0.804985 124.781 0.822782 124.661L2.66829 112.106C2.68609 111.985 2.80688 111.9 2.9355 111.917C3.0653 111.934 3.15619 112.045 3.13839 112.166L1.29288 124.721C1.27675 124.831 1.17494 124.911 1.05819 124.911Z" fill="#014E49"/>
<path d="M5.16837 132.697C5.12589 132.697 5.08293 132.687 5.04425 132.665L-9.21937 124.501C-9.3309 124.437 -9.36578 124.301 -9.29696 124.197C-9.22838 124.094 -9.08221 124.061 -8.97044 124.125L5.29319 132.289C5.40472 132.353 5.4396 132.489 5.37078 132.592C5.3257 132.66 5.2481 132.697 5.16837 132.697Z" fill="#014E49"/>
<path d="M13.6665 148.792C13.6534 148.792 13.6401 148.791 13.6268 148.789C13.4975 148.769 13.4104 148.655 13.432 148.535L16.2861 132.746C16.3076 132.626 16.4301 132.544 16.5594 132.565C16.6888 132.586 16.7758 132.699 16.7543 132.819L13.9002 148.608C13.8807 148.716 13.7801 148.792 13.6665 148.792Z" fill="#014E49"/>
<path d="M16.8691 155.361C16.8271 155.361 16.7846 155.351 16.7459 155.329L-0.787532 145.422C-0.899539 145.359 -0.935136 145.223 -0.86703 145.119C-0.798924 145.015 -0.653455 144.982 -0.540973 145.045L16.9925 154.952C17.1045 155.015 17.1401 155.151 17.072 155.255C17.0273 155.324 16.9493 155.361 16.8691 155.361Z" fill="#014E49"/>
<path d="M23.2552 166.954C23.2393 166.954 23.2229 166.952 23.2065 166.949C23.0784 166.924 22.9958 166.807 23.0226 166.688L27.8076 145.29C27.8342 145.17 27.959 145.095 28.0884 145.119C28.2167 145.144 28.2991 145.261 28.2723 145.38L23.4873 166.778C23.464 166.882 23.3653 166.954 23.2552 166.954Z" fill="#014E49"/>
<path d="M30.5835 180.834C30.5567 180.834 30.5294 180.83 30.5028 180.821L16.013 175.954C15.8896 175.913 15.8258 175.786 15.8704 175.672C15.9148 175.557 16.0508 175.497 16.1742 175.539L30.6639 180.406C30.7873 180.447 30.8512 180.574 30.8066 180.688C30.7717 180.778 30.6806 180.834 30.5835 180.834Z" fill="#014E49"/>
<path d="M34.8343 188.885C34.8072 188.885 34.7795 188.881 34.7527 188.872C34.6297 188.83 34.5664 188.703 34.6115 188.589L41.5789 170.933C41.624 170.819 41.7609 170.76 41.8834 170.802C42.0066 170.844 42.0697 170.971 42.0246 171.085L35.0571 188.741C35.0218 188.83 34.9309 188.885 34.8343 188.885Z" fill="#014E49"/>
<path d="M37.9736 194.831C37.9586 194.831 37.9437 194.83 37.9282 194.827L17.037 191.078C16.9081 191.055 16.8241 190.939 16.8488 190.82C16.8737 190.7 16.9978 190.621 17.1267 190.645L38.0179 194.394C38.1468 194.417 38.2308 194.532 38.2061 194.652C38.1843 194.758 38.0849 194.831 37.9736 194.831Z" fill="#014E49"/>
<path d="M50.4142 162.224C57.6859 152.615 48.9135 148.263 49.0666 132.245C49.199 118.395 42.6928 116.714 40.9287 116.512V116.501C40.9287 116.501 40.896 116.5 40.8359 116.502C40.6171 116.482 40.4919 116.485 40.4919 116.485V116.532C38.7294 116.747 32.2391 118.479 32.4961 132.327C32.7935 148.344 24.0605 152.764 31.4185 162.316C38.7766 171.868 20.7489 174.43 26.7361 183.414C32.7232 192.398 31.9183 195.688 31.9183 195.688L41.1112 194.093L50.2154 195.599C50.2154 195.599 49.381 192.316 55.2868 183.286C61.1926 174.255 43.1425 171.834 50.4142 162.224Z" fill="#03A294"/>
<path d="M41.1109 194.259C41.0129 194.259 40.9329 194.186 40.9317 194.094L40.1555 119.362C40.1546 119.27 40.2341 119.195 40.3328 119.194C40.427 119.19 40.5127 119.267 40.5136 119.359L41.2898 194.091C41.2908 194.183 41.2113 194.258 41.1126 194.259C41.1121 194.259 41.1116 194.259 41.1109 194.259Z" fill="#014E49"/>
<path d="M40.4664 132.198C40.4324 132.198 40.3983 132.189 40.3679 132.17C40.2853 132.12 40.2625 132.017 40.3169 131.94L45.9754 123.954C46.0297 123.877 46.1413 123.856 46.2234 123.907C46.3059 123.957 46.3287 124.06 46.2744 124.137L40.6159 132.123C40.5817 132.172 40.5245 132.198 40.4664 132.198Z" fill="#014E49"/>
<path d="M40.5348 138.744C40.4762 138.744 40.4183 138.717 40.3841 138.668L33.5374 128.788C33.4838 128.71 33.5077 128.607 33.591 128.557C33.6743 128.508 33.7851 128.53 33.8385 128.607L40.6852 138.487C40.7389 138.565 40.7149 138.668 40.6316 138.718C40.6015 138.735 40.568 138.744 40.5348 138.744Z" fill="#014E49"/>
<path d="M40.6748 152.275C40.6392 152.275 40.6032 152.265 40.5718 152.245C40.4909 152.192 40.4717 152.088 40.5284 152.013L48.0075 142.131C48.0645 142.055 48.176 142.037 48.2571 142.09C48.3381 142.143 48.3573 142.247 48.3006 142.322L40.8215 152.204C40.7866 152.251 40.7313 152.275 40.6748 152.275Z" fill="#014E49"/>
<path d="M40.5518 157.718C40.4934 157.718 40.436 157.691 40.4016 157.642L31.9407 145.584C31.8866 145.507 31.9101 145.404 31.9929 145.353C32.0758 145.303 32.1866 145.325 32.2409 145.402L40.7018 157.46C40.7559 157.537 40.7324 157.64 40.6496 157.69C40.6194 157.709 40.5855 157.718 40.5518 157.718Z" fill="#014E49"/>
<path d="M40.8335 167.544C40.7956 167.544 40.7574 167.533 40.7251 167.51C40.6463 167.454 40.6314 167.35 40.6912 167.277L51.4512 154.161C51.5113 154.088 51.6237 154.075 51.7023 154.13C51.7808 154.186 51.796 154.29 51.736 154.364L40.9759 167.479C40.9408 167.522 40.8874 167.544 40.8335 167.544Z" fill="#014E49"/>
<path d="M40.9547 179.213C40.9084 179.213 40.8622 179.197 40.827 179.163L32.6704 171.459C32.6009 171.393 32.6018 171.288 32.6726 171.224C32.743 171.159 32.8565 171.16 32.9258 171.226L41.0824 178.93C41.1517 178.996 41.151 179.101 41.0802 179.165C41.0454 179.197 41.0003 179.213 40.9547 179.213Z" fill="#014E49"/>
<path d="M41.0249 185.982C40.9784 185.982 40.9317 185.966 40.8966 185.932C40.8275 185.866 40.8289 185.761 40.8999 185.696L51.8337 175.79C51.9046 175.726 52.0178 175.728 52.0869 175.794C52.1559 175.86 52.1545 175.965 52.0835 176.029L41.1498 185.935C41.1151 185.966 41.07 185.982 41.0249 185.982Z" fill="#014E49"/>
<path d="M41.0767 190.981C41.0397 190.981 41.0022 190.97 40.9702 190.948L28.0644 182.064C27.9849 182.009 27.9683 181.905 28.0271 181.831C28.086 181.757 28.198 181.742 28.2777 181.796L41.1835 190.68C41.263 190.735 41.2796 190.839 41.2208 190.913C41.1856 190.958 41.1315 190.981 41.0767 190.981Z" fill="#014E49"/>
</g>
<mask id="mask1_207_3" style="mask-type:luminance" maskUnits="userSpaceOnUse" x="0" y="14" width="390" height="248">
<path d="M36.6201 99.0976C7.51379 104.533 1.6709 120.182 0.181816 138.656C-1.41548 158.476 7.70008 178.327 20.1137 194.024C56.5344 240.074 120.843 261.772 182.32 261.314C226.403 260.986 270.347 250.466 309.156 231.024C333.194 218.981 355.886 202.923 369.249 180.783C390.385 145.767 397.042 96.1698 378.451 59.9277C363.933 31.6268 338.731 23.9497 315.053 17.0977C299.66 12.6432 282.978 14.4049 267.267 17.7651C259.105 19.5108 251.052 21.6743 243.113 24.1513C167.032 47.8913 120.747 82.8176 36.6201 99.0976Z" fill="white"/>
</mask>
<g mask="url(#mask1_207_3)">
<path d="M247.816 166.977C266.817 157.342 286.177 148.131 306.675 141.669C327.173 135.207 348.945 131.544 370.509 133.274C379.987 134.034 390.013 136.149 396.55 142.576C404.3 150.195 405.129 161.931 403.16 172.256C402.152 177.545 400.497 182.802 397.462 187.373C394.016 192.564 388.921 196.664 383.389 199.942C363.841 211.527 338.805 213.152 316.288 208.031C293.77 202.91 273.414 191.627 254.731 178.867C250.556 176.016 245.957 171.906 247.206 167.231" fill="#03A294"/>
</g>
<mask id="mask2_207_3" style="mask-type:luminance" maskUnits="userSpaceOnUse" x="0" y="14" width="390" height="248">
<path d="M36.6201 99.0976C7.51379 104.533 1.6709 120.182 0.181816 138.656C-1.41548 158.476 7.70008 178.327 20.1137 194.024C56.5344 240.074 120.843 261.772 182.32 261.314C226.403 260.986 270.347 250.466 309.156 231.024C333.194 218.981 355.886 202.923 369.249 180.783C390.385 145.767 397.042 96.1698 378.451 59.9277C363.933 31.6268 338.731 23.9497 315.053 17.0977C299.66 12.6432 282.978 14.4049 267.267 17.7651C259.105 19.5108 251.052 21.6743 243.113 24.1513C167.032 47.8913 120.747 82.8176 36.6201 99.0976Z" fill="white"/>
</mask>
<g mask="url(#mask2_207_3)">
<path d="M76.1472 179.296C76.1472 179.296 130.528 149.135 216.547 165.515L90.4849 229.767L76.1472 179.296Z" fill="#03A294"/>
</g>
<mask id="mask3_207_3" style="mask-type:luminance" maskUnits="userSpaceOnUse" x="0" y="14" width="390" height="248">
<path d="M36.6201 99.0976C7.51379 104.533 1.6709 120.182 0.181816 138.656C-1.41548 158.476 7.70008 178.327 20.1137 194.024C56.5344 240.074 120.843 261.772 182.32 261.314C226.403 260.986 270.347 250.466 309.156 231.024C333.194 218.981 355.886 202.923 369.249 180.783C390.385 145.767 397.042 96.1698 378.451 59.9277C363.933 31.6268 338.731 23.9497 315.053 17.0977C299.66 12.6432 282.978 14.4049 267.267 17.7651C259.105 19.5108 251.052 21.6743 243.113 24.1513C167.032 47.8913 120.747 82.8176 36.6201 99.0976Z" fill="white"/>
</mask>
<g mask="url(#mask3_207_3)">
<path d="M299.757 173.365C313.592 173.365 324.808 172.207 324.808 170.779C324.808 169.351 313.592 168.193 299.757 168.193C285.921 168.193 274.705 169.351 274.705 170.779C274.705 172.207 285.921 173.365 299.757 173.365Z" fill="#71BFB8"/>
<path d="M315.101 90.8634C315.101 90.8634 312.466 89.4202 309.232 80.6388C305.998 71.8575 306.051 62.1878 311.465 59.3997C316.878 56.6116 321.37 58.0088 324.109 65.3493C326.849 72.6897 323.124 95.5747 315.101 90.8634Z" fill="#03A294"/>
<path d="M306.239 171.647C306.232 171.647 306.224 171.647 306.217 171.646C306.109 171.635 306.03 171.545 306.042 171.443L314.832 95.8447C317.702 81.2519 315.307 60.5959 315.283 60.3889C315.271 60.2879 315.349 60.1968 315.458 60.1857C315.568 60.1751 315.665 60.2475 315.677 60.3488C315.701 60.5562 318.103 81.2647 315.224 95.8979L306.436 171.483C306.425 171.577 306.339 171.647 306.239 171.647Z" fill="#014E49"/>
<path d="M323.795 89.6369C323.795 89.6369 320.404 79.6847 327.82 71.4074C335.235 63.13 341.75 60.3246 345.455 59.3241C347.083 58.8841 351.012 56.5823 351.437 59.4271C352.412 65.9536 351.598 73.5319 346.219 78.3386C345.747 78.7598 345.248 79.1536 344.726 79.5187C335.171 86.1909 325.457 92.3308 323.795 89.6369Z" fill="#71BFB8"/>
<path d="M301.222 171.43C301.207 171.43 301.192 171.429 301.177 171.425C301.071 171.403 301.004 171.303 301.029 171.204C301.822 168.026 320.499 93.2964 324.036 86.9714C327.574 80.6439 349.299 59.5951 349.518 59.3833C349.594 59.3096 349.72 59.3077 349.798 59.3783C349.877 59.4486 349.88 59.5654 349.804 59.6388C349.585 59.8502 327.899 80.8608 324.388 87.1415C320.874 93.4251 301.609 170.51 301.415 171.288C301.394 171.373 301.312 171.43 301.222 171.43Z" fill="#014E49"/>
<path d="M306.613 105.163C306.613 105.163 296.358 102.138 295.743 84.261C295.127 66.3836 303.723 62.0813 306.954 65.3528C310.185 68.6244 319.074 73.3382 317.466 87.6351C315.859 101.932 310.436 107.524 306.613 105.163Z" fill="#71BFB8"/>
<path d="M311.63 106.854C311.63 106.854 305.488 97.9679 320.676 87.1448C335.865 76.3217 348.79 77.0021 345.621 84.8105C342.452 92.6189 319.81 112.292 311.63 106.854Z" fill="#03A294"/>
<path d="M296.724 170.963C296.713 170.963 296.702 170.963 296.691 170.961C296.583 170.944 296.51 170.849 296.528 170.749C296.62 170.229 305.85 118.612 311.448 106.78C313.07 103.352 317.469 97.5764 329.22 89.5229C336.235 84.7144 342.643 81.3233 342.707 81.2896C342.802 81.2395 342.923 81.2706 342.978 81.3588C343.032 81.4473 342.998 81.5598 342.903 81.6101C342.839 81.6437 336.449 85.026 329.452 89.8218C317.774 97.8261 313.413 103.542 311.811 106.928C306.233 118.719 297.011 170.289 296.919 170.809C296.903 170.899 296.819 170.963 296.724 170.963Z" fill="#014E49"/>
<path d="M293.149 170.963C293.136 170.963 293.123 170.962 293.11 170.959C293.003 170.94 292.933 170.843 292.955 170.743C293.066 170.222 304.123 118.455 307.893 105.623C311.647 92.8472 303.786 67.0522 303.706 66.793C303.676 66.6952 303.737 66.5931 303.842 66.565C303.947 66.537 304.057 66.5935 304.087 66.6915C304.167 66.9516 312.058 92.845 308.275 105.72C304.508 118.54 293.454 170.293 293.343 170.814C293.324 170.902 293.242 170.963 293.149 170.963Z" fill="#014E49"/>
</g>
<mask id="mask4_207_3" style="mask-type:luminance" maskUnits="userSpaceOnUse" x="0" y="14" width="390" height="248">
<path d="M36.6201 99.0976C7.51379 104.533 1.6709 120.182 0.181816 138.656C-1.41548 158.476 7.70008 178.327 20.1137 194.024C56.5344 240.074 120.843 261.772 182.32 261.314C226.403 260.986 270.347 250.466 309.156 231.024C333.194 218.981 355.886 202.923 369.249 180.783C390.385 145.767 397.042 96.1698 378.451 59.9277C363.933 31.6268 338.731 23.9497 315.053 17.0977C299.66 12.6432 282.978 14.4049 267.267 17.7651C259.105 19.5108 251.052 21.6743 243.113 24.1513C167.032 47.8913 120.747 82.8176 36.6201 99.0976Z" fill="white"/>
</mask>
<g mask="url(#mask4_207_3)">
<path d="M12.1101 201.687C10.766 196.766 10.8709 191.299 13.2166 186.776C15.5624 182.253 20.3775 178.904 25.4376 179.106C30.1063 179.293 34.1988 182.289 37.503 185.618C38.3068 182.881 39.1395 180.083 40.8092 177.777C42.4788 175.471 45.1774 173.712 47.9995 173.961C51.8753 174.303 54.4579 178.047 56.3158 181.492C55.7002 179.189 58.0804 176.843 60.4422 176.991C62.8041 177.138 64.7372 179.171 65.4384 181.449C66.368 177.437 71.5063 175.092 75.1117 177.034C75.6017 177.298 76.0913 177.633 76.6468 177.639C77.4225 177.647 78.0381 177.024 78.6109 176.497C82.8174 172.625 89.292 172.181 94.7248 173.909C100.158 175.637 104.8 179.196 109.32 182.69C88.0317 195.977 64.5979 205.314 41.3068 214.58C36.6715 216.424 32.0363 218.268 27.4008 220.112C26.9378 220.296 26.4513 220.484 25.957 220.425C25.3348 220.351 24.8277 219.905 24.3735 219.47C18.9753 214.303 14.8884 207.755 12.6039 200.614" fill="#014E49"/>
</g>
<mask id="mask5_207_3" style="mask-type:luminance" maskUnits="userSpaceOnUse" x="0" y="14" width="390" height="248">
<path d="M36.6201 99.0976C7.51379 104.533 1.6709 120.182 0.181816 138.656C-1.41548 158.476 7.70008 178.327 20.1137 194.024C56.5344 240.074 120.843 261.772 182.32 261.314C226.403 260.986 270.347 250.466 309.156 231.024C333.194 218.981 355.886 202.923 369.249 180.783C390.385 145.767 397.042 96.1698 378.451 59.9277C363.933 31.6268 338.731 23.9497 315.053 17.0977C299.66 12.6432 282.978 14.4049 267.267 17.7651C259.105 19.5108 251.052 21.6743 243.113 24.1513C167.032 47.8913 120.747 82.8176 36.6201 99.0976Z" fill="white"/>
</mask>
<g mask="url(#mask5_207_3)">
<path d="M26.8959 209.964C26.2143 207.206 28.272 204.29 31.0696 203.176C33.8674 202.061 37.1476 202.475 39.9319 203.619C39.3204 201.133 39.8425 198.328 41.6991 196.451C43.5558 194.575 46.8315 193.893 49.1789 195.211C47.9003 191.277 50.1623 186.507 54.3135 185.093C58.4649 183.679 63.7594 186.307 64.4271 190.37C65.1144 188.279 67.8329 186.989 70.0572 187.698C70.6862 187.898 71.3253 188.237 71.9729 188.097C72.6559 187.95 73.0733 187.334 73.4945 186.813C75.785 183.98 80.0951 182.961 83.7942 183.816C87.4933 184.67 90.583 187.133 92.7441 190.052C75.5348 196.07 60.3078 206.014 44.8156 215.22C41.3092 217.303 37.3149 219.441 33.2362 218.674C28.5349 217.79 25.4476 212.505 27.2096 208.357" fill="#03A294"/>
</g>
<mask id="mask6_207_3" style="mask-type:luminance" maskUnits="userSpaceOnUse" x="0" y="14" width="390" height="248">
<path d="M36.6201 99.0976C7.51379 104.533 1.6709 120.182 0.181816 138.656C-1.41548 158.476 7.70008 178.327 20.1137 194.024C56.5344 240.074 120.843 261.772 182.32 261.314C226.403 260.986 270.347 250.466 309.156 231.024C333.194 218.981 355.886 202.923 369.249 180.783C390.385 145.767 397.042 96.1698 378.451 59.9277C363.933 31.6268 338.731 23.9497 315.053 17.0977C299.66 12.6432 282.978 14.4049 267.267 17.7651C259.105 19.5108 251.052 21.6743 243.113 24.1513C167.032 47.8913 120.747 82.8176 36.6201 99.0976Z" fill="white"/>
</mask>
<g mask="url(#mask6_207_3)">
<path d="M79.6358 179.31C79.4446 179.299 79.3001 179.147 79.3124 178.969C80.0827 167.8 77.353 153.924 74.913 144.208C72.241 133.567 69.3302 125.482 69.301 125.401L69.9567 125.179C69.9859 125.26 72.9057 133.37 75.5858 144.04C78.0381 153.805 80.7813 167.756 80.0039 179.01C79.9918 179.188 79.8266 179.321 79.6358 179.31Z" fill="#014E49"/>
<path d="M78.6208 158.75C78.6208 158.75 77.7345 148.32 64.0897 147.94C63.2122 147.916 62.3349 147.998 61.4813 148.19C59.5629 148.619 56.0314 149.604 54.8665 151.221C54.8665 151.221 59.1211 152.748 65.6417 157.074C69.2713 159.481 78.0275 162.906 78.6208 158.75Z" fill="#71BFB8"/>
<path d="M78.3462 157.977C78.3462 157.977 75.6559 150.887 81.2475 142.047C86.8391 133.207 100.115 138.895 100.115 138.895C100.115 138.895 91.0113 163.763 78.3462 157.977Z" fill="#71BFB8"/>
<path d="M76.767 148.065C76.767 148.065 67.6232 150.518 64.4225 141.906C61.2217 133.293 68.4329 121.823 68.4329 121.823C68.4329 121.823 87.726 134.604 76.767 148.065Z" fill="#71BFB8"/>
<path d="M79.331 169.197C79.331 169.197 79.2738 160.292 68.3775 159.572C57.4812 158.852 53.1172 168.119 53.1172 168.119C53.1172 168.119 67.6585 168.05 72.5778 170.174C77.4968 172.299 79.331 169.197 79.331 169.197Z" fill="#71BFB8"/>
<path d="M78.4912 168.831C78.4912 168.831 80.3624 156.522 95.7055 159.34L104.478 161.076C104.478 161.076 96.102 166.851 91.2631 169.5C86.4243 172.15 78.4912 168.831 78.4912 168.831Z" fill="#71BFB8"/>
<path d="M75.9084 147.614C75.8636 147.605 75.8251 147.574 75.8118 147.53L68.5242 123.667C68.5048 123.604 68.5444 123.538 68.6125 123.52C68.6806 123.502 68.7513 123.538 68.7708 123.602L76.0584 147.465C76.0779 147.528 76.0382 147.594 75.9701 147.612C75.9492 147.618 75.9281 147.618 75.9084 147.614Z" fill="#014E49"/>
<path d="M71.4122 132.891C71.4063 132.89 71.4001 132.889 71.3942 132.887C71.3278 132.864 71.2941 132.795 71.3185 132.733L73.6132 126.977C73.6377 126.915 73.7117 126.883 73.7779 126.907C73.8444 126.93 73.8781 126.998 73.8534 127.06L71.5587 132.816C71.5366 132.872 71.4735 132.904 71.4122 132.891Z" fill="#014E49"/>
<path d="M71.6912 133.806C71.6855 133.804 71.6801 133.803 71.6744 133.801L65.3422 131.689C65.2757 131.667 65.2411 131.599 65.2648 131.537C65.2888 131.475 65.3623 131.444 65.4288 131.465L71.761 133.577C71.8274 133.599 71.8621 133.667 71.8384 133.729C71.8165 133.786 71.7532 133.818 71.6912 133.806Z" fill="#014E49"/>
<path d="M72.9381 137.887C72.927 137.885 72.9158 137.882 72.9051 137.876C72.8425 137.846 72.8183 137.774 72.851 137.716L76.3907 131.431C76.4234 131.373 76.5019 131.351 76.5636 131.381C76.6263 131.411 76.6505 131.483 76.6177 131.542L73.0781 137.826C73.0508 137.874 72.9927 137.898 72.9381 137.887Z" fill="#014E49"/>
<path d="M73.9539 141.214C73.9491 141.213 73.9444 141.212 73.9396 141.211L64.6926 138.332C64.6255 138.311 64.5894 138.244 64.6119 138.181C64.6342 138.119 64.7045 138.083 64.774 138.106L74.021 140.985C74.0882 141.006 74.1243 141.073 74.1017 141.136C74.0811 141.194 74.0168 141.227 73.9539 141.214Z" fill="#014E49"/>
<path d="M75.1308 145.068C75.1218 145.066 75.1128 145.063 75.104 145.059C75.0397 145.032 75.0114 144.961 75.0411 144.901L78.553 137.787C78.5826 137.728 78.659 137.701 78.7229 137.729C78.7872 137.756 78.8154 137.827 78.7858 137.887L75.2739 145.001C75.2483 145.052 75.1882 145.079 75.1308 145.068Z" fill="#014E49"/>
<path d="M75.5158 146.329C75.5111 146.328 75.5066 146.327 75.5018 146.326L66.0706 143.405C66.0035 143.384 65.9672 143.317 65.9895 143.254C66.012 143.192 66.0835 143.159 66.1516 143.179L75.5827 146.1C75.6499 146.12 75.6862 146.188 75.6639 146.25C75.6432 146.308 75.5789 146.342 75.5158 146.329Z" fill="#014E49"/>
<path d="M78.2352 156.733C78.2269 156.731 78.2189 156.729 78.2108 156.726C78.146 156.699 78.1161 156.629 78.1446 156.569C78.1619 156.532 79.9213 152.81 83.3788 148.851C86.5734 145.194 91.9134 140.578 99.2112 139.36C99.2808 139.348 99.3474 139.391 99.36 139.456C99.3726 139.521 99.3261 139.583 99.2565 139.594C92.0385 140.799 86.7487 145.372 83.5822 148.996C80.145 152.93 78.3966 156.627 78.3795 156.664C78.3546 156.717 78.2936 156.745 78.2352 156.733Z" fill="#014E49"/>
<path d="M89.0445 143.917C89.0436 143.917 89.0429 143.917 89.0419 143.916C88.9731 143.901 88.9304 143.837 88.9465 143.773L90.4688 137.74C90.4847 137.677 90.5521 137.638 90.6202 137.651C90.6212 137.651 90.6219 137.651 90.6228 137.651C90.6916 137.666 90.7344 137.731 90.7182 137.795L89.1959 143.827C89.1798 143.891 89.1124 143.93 89.0445 143.917Z" fill="#014E49"/>
<path d="M84.23 147.801C84.163 147.788 84.1189 147.728 84.1305 147.664L85.6718 139.324C85.6837 139.259 85.7499 139.216 85.8197 139.227C85.8908 139.235 85.9364 139.299 85.9243 139.364L84.3828 147.704C84.3709 147.769 84.3047 147.813 84.2349 147.802C84.2333 147.801 84.2316 147.801 84.23 147.801Z" fill="#014E49"/>
<path d="M81.0834 152.044C81.0319 152.034 80.9904 151.995 80.983 151.943L80.0575 145.492C80.0483 145.427 80.0976 145.367 80.1676 145.358C80.2379 145.35 80.3022 145.395 80.3117 145.461L81.2372 151.912C81.2464 151.977 81.197 152.037 81.127 152.046C81.1121 152.048 81.0974 152.047 81.0834 152.044Z" fill="#014E49"/>
<path d="M79.0682 155.6C79.0086 155.588 78.9652 155.538 78.9668 155.48C78.969 155.414 79.0278 155.362 79.0988 155.364L88.7058 155.63C88.777 155.632 88.832 155.687 88.8299 155.753C88.828 155.819 88.7689 155.87 88.6982 155.868L79.0912 155.602C79.0831 155.602 79.0755 155.601 79.0682 155.6Z" fill="#014E49"/>
<path d="M82.4566 150.231C82.393 150.218 82.3489 150.163 82.356 150.101C82.3638 150.036 82.4272 149.989 82.4974 149.996L93.5311 151.131C93.602 151.14 93.6521 151.197 93.6443 151.263C93.6364 151.328 93.5731 151.375 93.5028 151.368L82.4692 150.233C82.4649 150.232 82.4606 150.232 82.4566 150.231Z" fill="#014E49"/>
<path d="M87.3213 145.248C87.257 145.235 87.2129 145.179 87.2209 145.117C87.2295 145.052 87.2935 145.006 87.3638 145.013L96.3175 146.037C96.388 146.044 96.4376 146.104 96.429 146.169C96.4203 146.235 96.3564 146.281 96.2862 146.273L87.3325 145.25C87.3287 145.25 87.3251 145.249 87.3213 145.248Z" fill="#014E49"/>
<path d="M93.6354 141.275C93.5687 141.262 93.5246 141.202 93.536 141.139C93.5476 141.074 93.6136 141.031 93.6836 141.042L98.4285 141.781C98.4968 141.791 98.5452 141.853 98.5336 141.918C98.522 141.982 98.4558 142.026 98.3862 142.015L93.6411 141.276C93.6392 141.276 93.6371 141.276 93.6354 141.275Z" fill="#014E49"/>
<path d="M77.5467 157.277C77.5187 157.271 77.4923 157.257 77.4731 157.234C77.4584 157.217 75.9688 155.501 72.5718 153.901C69.4351 152.423 63.984 150.744 55.8298 151.137C55.7591 151.141 55.6988 151.09 55.6952 151.024C55.6917 150.959 55.7458 150.903 55.8165 150.899C64.0372 150.503 69.5372 152.201 72.7038 153.696C76.1442 155.32 77.6131 157.015 77.6738 157.086C77.7177 157.138 77.7085 157.212 77.653 157.253C77.6219 157.276 77.5827 157.284 77.5467 157.277Z" fill="#014E49"/>
<path d="M59.6782 153.061C59.635 153.052 59.5978 153.023 59.583 152.981C59.561 152.918 59.598 152.851 59.6652 152.831L64.6352 151.326C64.7029 151.305 64.7748 151.339 64.7966 151.402C64.8187 151.464 64.7817 151.532 64.7145 151.552L59.7444 153.057C59.7223 153.064 59.6996 153.065 59.6782 153.061Z" fill="#014E49"/>
<path d="M64.7682 156.183C64.7302 156.175 64.6965 156.152 64.6787 156.117C64.6486 156.057 64.6761 155.987 64.7402 155.959L71.258 153.114C71.3223 153.086 71.3985 153.112 71.4284 153.171C71.4585 153.23 71.4307 153.301 71.3669 153.329L64.8491 156.174C64.8228 156.185 64.7943 156.188 64.7682 156.183Z" fill="#014E49"/>
<path d="M70.6488 159.356C70.6136 159.349 70.5816 159.329 70.5631 159.297C70.5292 159.239 70.5519 159.167 70.6141 159.135L76.5242 156.134C76.5861 156.103 76.6639 156.124 76.6979 156.182C76.7318 156.24 76.7088 156.312 76.6469 156.343L70.737 159.344C70.7088 159.358 70.6777 159.362 70.6488 159.356Z" fill="#014E49"/>
<path d="M74.5793 154.967C74.5368 154.959 74.4998 154.93 74.4846 154.889L72.7872 150.271C72.7644 150.208 72.8 150.141 72.8669 150.119C72.9338 150.098 73.0067 150.131 73.0297 150.193L74.7271 154.812C74.7499 154.874 74.7143 154.942 74.6474 154.963C74.6246 154.97 74.6011 154.971 74.5793 154.967Z" fill="#014E49"/>
<path d="M67.972 152.184C67.934 152.177 67.9003 152.153 67.8825 152.118L66.14 148.656C66.1101 148.596 66.1376 148.525 66.2017 148.497C66.2658 148.469 66.3419 148.495 66.3721 148.555L68.1146 152.017C68.1445 152.077 68.117 152.148 68.0529 152.176C68.0266 152.187 67.9983 152.19 67.972 152.184Z" fill="#014E49"/>
<path d="M61.8264 151.22C61.8084 151.216 61.791 151.209 61.7754 151.198L59.1218 149.312C59.0656 149.272 59.0549 149.198 59.0979 149.145C59.1408 149.093 59.2213 149.083 59.2775 149.123L61.931 151.009C61.9873 151.049 61.998 151.124 61.955 151.176C61.9239 151.214 61.8734 151.229 61.8264 151.22Z" fill="#014E49"/>
<path d="M79.6884 167.638C79.6516 167.63 79.6186 167.608 79.6003 167.575C79.5685 167.516 79.5942 167.444 79.6575 167.415C79.7802 167.358 92.04 161.706 102.531 161.35C102.601 161.348 102.661 161.399 102.663 161.464C102.666 161.53 102.61 161.585 102.54 161.588C92.1058 161.942 79.8946 167.571 79.7724 167.628C79.7451 167.64 79.7157 167.643 79.6884 167.638Z" fill="#014E49"/>
<path d="M91.6431 168.834C91.6407 168.834 91.6386 168.833 91.6362 168.833L82.3448 166.503C82.2765 166.486 82.2361 166.42 82.2544 166.357C82.2729 166.293 82.3432 166.255 82.4115 166.273L91.7029 168.603C91.7712 168.62 91.8116 168.685 91.7933 168.749C91.7755 168.81 91.7093 168.847 91.6431 168.834Z" fill="#014E49"/>
<path d="M97.0853 165.796C97.082 165.795 97.0784 165.795 97.0748 165.794L90.0433 163.824C89.9757 163.806 89.9372 163.739 89.9576 163.676C89.978 163.613 90.0478 163.576 90.1171 163.596L97.1486 165.566C97.2163 165.585 97.2547 165.651 97.2343 165.714C97.2151 165.774 97.1498 165.809 97.0853 165.796Z" fill="#014E49"/>
<path d="M101.023 163.508C101.016 163.507 101.009 163.505 101.002 163.502L97.2865 162.125C97.2207 162.101 97.1887 162.031 97.215 161.97C97.2411 161.909 97.3147 161.88 97.3814 161.904L101.097 163.281C101.162 163.306 101.194 163.375 101.168 163.436C101.145 163.491 101.082 163.52 101.023 163.508Z" fill="#014E49"/>
<path d="M94.6785 162.638C94.6683 162.636 94.6583 162.633 94.6486 162.629C94.5852 162.6 94.5589 162.528 94.59 162.469L96.2055 159.409C96.2366 159.35 96.313 159.326 96.3769 159.354C96.4402 159.383 96.4666 159.455 96.4355 159.514L94.8199 162.574C94.7936 162.624 94.7345 162.65 94.6785 162.638Z" fill="#014E49"/>
<path d="M88.1473 164.412C88.1376 164.41 88.1281 164.407 88.1189 164.403C88.055 164.375 88.028 164.304 88.0584 164.245L90.7171 159.054C90.7475 158.994 90.8241 158.97 90.8877 158.997C90.9516 159.026 90.9786 159.097 90.9483 159.156L88.2895 164.347C88.2636 164.398 88.2041 164.424 88.1473 164.412Z" fill="#014E49"/>
<path d="M83.7623 165.952C83.7599 165.952 83.7573 165.951 83.755 165.95C83.6866 165.933 83.6465 165.868 83.6653 165.804L85.3603 160.054C85.3791 159.99 85.4491 159.953 85.5177 159.97C85.586 159.987 85.6261 160.053 85.6074 160.116L83.9123 165.867C83.8943 165.928 83.828 165.965 83.7623 165.952Z" fill="#014E49"/>
<path d="M53.7185 167.788C53.6867 167.782 53.6575 167.765 53.6383 167.737C53.5994 167.683 53.6158 167.609 53.6749 167.572C59.3654 164.088 65.9027 164.246 70.3848 164.992C75.2351 165.8 78.7911 167.45 78.8262 167.467C78.8893 167.496 78.9147 167.568 78.8829 167.627C78.8511 167.685 78.774 167.709 78.7109 167.679C78.6758 167.663 75.1463 166.024 70.3326 165.225C65.8986 164.488 59.4335 164.332 53.8158 167.771C53.7859 167.79 53.7508 167.795 53.7185 167.788Z" fill="#014E49"/>
<path d="M58.5993 167.873C58.5748 167.869 58.552 167.857 58.5335 167.839C58.4846 167.792 58.4865 167.716 58.5376 167.671L61.7758 164.793C61.8271 164.748 61.908 164.75 61.9569 164.797C62.0058 164.845 62.0039 164.92 61.9526 164.966L58.7144 167.843C58.6828 167.871 58.6394 167.881 58.5993 167.873Z" fill="#014E49"/>
<path d="M65.4384 168.287C65.4175 168.283 65.3976 168.274 65.3807 168.26C65.3275 168.217 65.3223 168.141 65.3691 168.092L68.3952 164.892C68.4419 164.842 68.5231 164.838 68.576 164.881C68.6292 164.925 68.6344 165 68.5876 165.049L65.5615 168.249C65.5297 168.283 65.4823 168.296 65.4384 168.287Z" fill="#014E49"/>
<path d="M72.369 169.659C72.3462 169.654 72.3246 169.644 72.3066 169.628C72.2558 169.582 72.2544 169.507 72.3037 169.459L75.579 166.321C75.6281 166.274 75.7093 166.273 75.7601 166.318C75.8108 166.364 75.812 166.439 75.7629 166.487L72.4876 169.625C72.4558 169.656 72.4107 169.667 72.369 169.659Z" fill="#014E49"/>
<path d="M73.9206 165.918C73.8907 165.912 73.8629 165.897 73.8437 165.872L69.4958 160.304C69.4543 160.251 69.4671 160.177 69.5243 160.138C69.5815 160.099 69.6617 160.111 69.7032 160.165L74.0511 165.732C74.0926 165.785 74.0798 165.86 74.0226 165.898C73.992 165.919 73.9548 165.925 73.9206 165.918Z" fill="#014E49"/>
<path d="M66.4299 164.811C66.4045 164.806 66.3806 164.794 66.3618 164.775L62.5521 160.879C62.5044 160.831 62.5085 160.755 62.5607 160.711C62.6129 160.667 62.694 160.67 62.7417 160.719L66.5514 164.614C66.5991 164.663 66.5951 164.738 66.5429 164.782C66.5111 164.809 66.4688 164.819 66.4299 164.811Z" fill="#014E49"/>
<path d="M59.6078 165.398C59.604 165.398 59.6002 165.397 59.5966 165.396L56.3629 164.466C56.2953 164.447 56.2573 164.38 56.2782 164.318C56.2991 164.255 56.3722 164.22 56.4384 164.239L59.6721 165.168C59.7397 165.187 59.7775 165.254 59.7566 165.317C59.7369 165.376 59.6719 165.411 59.6078 165.398Z" fill="#014E49"/>
</g>
<mask id="mask7_207_3" style="mask-type:luminance" maskUnits="userSpaceOnUse" x="0" y="14" width="390" height="248">
<path d="M36.6201 99.0976C7.51379 104.533 1.6709 120.182 0.181816 138.656C-1.41548 158.476 7.70008 178.327 20.1137 194.024C56.5344 240.074 120.843 261.772 182.32 261.314C226.403 260.986 270.347 250.466 309.156 231.024C333.194 218.981 355.886 202.923 369.249 180.783C390.385 145.767 397.042 96.1698 378.451 59.9277C363.933 31.6268 338.731 23.9497 315.053 17.0977C299.66 12.6432 282.978 14.4049 267.267 17.7651C259.105 19.5108 251.052 21.6743 243.113 24.1513C167.032 47.8913 120.747 82.8176 36.6201 99.0976Z" fill="white"/>
</mask>
<g mask="url(#mask7_207_3)">
<path d="M36.6377 211.64C36.6377 211.64 147.357 148.085 272.051 161.549C370.763 172.208 409.59 195.301 409.59 195.301C409.59 195.301 333.486 265.401 261.812 276.652C190.138 287.903 56.2717 272.117 36.6377 211.64Z" fill="#71BFB8"/>
</g>
<mask id="mask8_207_3" style="mask-type:luminance" maskUnits="userSpaceOnUse" x="0" y="14" width="390" height="248">
<path d="M36.6201 99.0976C7.51379 104.533 1.6709 120.182 0.181816 138.656C-1.41548 158.476 7.70008 178.327 20.1137 194.024C56.5344 240.074 120.843 261.772 182.32 261.314C226.403 260.986 270.347 250.466 309.156 231.024C333.194 218.981 355.886 202.923 369.249 180.783C390.385 145.767 397.042 96.1698 378.451 59.9277C363.933 31.6268 338.731 23.9497 315.053 17.0977C299.66 12.6432 282.978 14.4049 267.267 17.7651C259.105 19.5108 251.052 21.6743 243.113 24.1513C167.032 47.8913 120.747 82.8176 36.6201 99.0976Z" fill="white"/>
</mask>
<g mask="url(#mask8_207_3)">
<path d="M196.115 263.202C195.332 259.46 196.628 255.396 199.476 252.654C202.324 249.913 206.649 248.57 210.698 249.168C209.913 247.752 210.38 245.841 211.745 244.879C213.11 243.918 215.216 244.018 216.469 245.103C216.155 240.976 220.912 237.246 225.234 238.229C223.154 233.515 224.582 227.655 228.643 224.234C232.705 220.813 239.118 220.069 243.959 222.458C244.76 217.058 251.257 214.015 257.099 213.551C266.061 212.839 275.041 216.03 282.196 221.098C289.351 226.166 294.85 232.997 299.467 240.174C278.751 254.4 252.372 259.063 226.875 262.44C216.677 263.791 206.358 265.002 196.099 264.147" fill="#03A294"/>
</g>
<mask id="mask9_207_3" style="mask-type:luminance" maskUnits="userSpaceOnUse" x="0" y="14" width="390" height="248">
<path d="M36.6201 99.0976C7.51379 104.533 1.6709 120.182 0.181816 138.656C-1.41548 158.476 7.70008 178.327 20.1137 194.024C56.5344 240.074 120.843 261.772 182.32 261.314C226.403 260.986 270.347 250.466 309.156 231.024C333.194 218.981 355.886 202.923 369.249 180.783C390.385 145.767 397.042 96.1698 378.451 59.9277C363.933 31.6268 338.731 23.9497 315.053 17.0977C299.66 12.6432 282.978 14.4049 267.267 17.7651C259.105 19.5108 251.052 21.6743 243.113 24.1513C167.032 47.8913 120.747 82.8176 36.6201 99.0976Z" fill="white"/>
</mask>
<g mask="url(#mask9_207_3)">
<path d="M365.173 220.181C368.738 214.81 360.053 208.213 355.039 203.957C350.025 199.701 341.889 197.912 336.405 201.633C335.698 202.112 334.996 202.691 334.126 202.775C333.211 202.864 332.362 202.381 331.521 202.037C328.316 200.726 324.27 201.47 321.844 203.817C322.077 197.991 315.442 192.85 309.32 194.112C303.199 195.375 299.526 202.643 302.387 207.831C300.286 205.961 296.994 205.35 294.282 206.328C291.571 207.305 289.582 209.82 289.386 212.517C282.786 206.919 272.832 204.417 264.55 207.531C256.268 210.644 250.852 219.974 253.905 227.779C251.146 226.807 247.804 227.481 245.725 229.427C243.647 231.373 242.946 234.485 244.011 237.043C237.677 235.614 230.767 239.801 228.811 245.581C226.855 251.361 229.44 257.992 234.375 261.95C234.376 261.95 346.201 248.762 365.173 220.181Z" fill="#014E49"/>
</g>
<mask id="mask10_207_3" style="mask-type:luminance" maskUnits="userSpaceOnUse" x="0" y="14" width="390" height="248">
<path d="M36.6201 99.0976C7.51379 104.533 1.6709 120.182 0.181816 138.656C-1.41548 158.476 7.70008 178.327 20.1137 194.024C56.5344 240.074 120.843 261.772 182.32 261.314C226.403 260.986 270.347 250.466 309.156 231.024C333.194 218.981 355.886 202.923 369.249 180.783C390.385 145.767 397.042 96.1698 378.451 59.9277C363.933 31.6268 338.731 23.9497 315.053 17.0977C299.66 12.6432 282.978 14.4049 267.267 17.7651C259.105 19.5108 251.052 21.6743 243.113 24.1513C167.032 47.8913 120.747 82.8176 36.6201 99.0976Z" fill="white"/>
</mask>
<g mask="url(#mask10_207_3)">
<path d="M166.177 283.672C166.177 283.672 173.73 274.309 172.821 257.145C171.913 239.982 178.718 230.001 178.718 230.001C178.718 230.001 144.519 246.184 148.77 268.66L166.177 283.672Z" fill="#03A294"/>
<path d="M156.645 275.918C156.394 275.918 156.178 275.744 156.147 275.507C156.117 275.267 155.417 269.543 157.218 261.535C158.879 254.147 163.087 243.389 173.702 234.093C173.903 233.917 174.221 233.925 174.411 234.113C174.601 234.3 174.591 234.596 174.389 234.772C163.977 243.891 159.842 254.443 158.207 261.69C156.433 269.556 157.136 275.339 157.143 275.397C157.176 275.653 156.979 275.885 156.704 275.915C156.685 275.917 156.664 275.918 156.645 275.918Z" fill="#014E49"/>
<path d="M110.497 257.274C110.497 257.274 107.675 224.094 95.1538 211.007C95.1538 211.007 69.5641 231.514 86.5919 256.886L110.497 257.274Z" fill="#014E49"/>
<path d="M96.7075 257.516C96.4863 257.516 96.2839 257.379 96.2236 257.172C96.2027 257.1 94.1213 249.869 92.8973 240.606C91.7651 232.036 91.1555 219.917 94.6825 210.848C94.7765 210.606 95.0641 210.481 95.3247 210.568C95.585 210.656 95.72 210.923 95.6258 211.165C88.9941 228.218 97.1094 256.643 97.1923 256.928C97.2644 257.177 97.1061 257.433 96.8387 257.5C96.7945 257.511 96.7506 257.516 96.7075 257.516Z" fill="#03A294"/>
<path d="M84.9494 250.693C84.9494 250.693 89.2723 233.222 78.9674 213.547C78.9674 213.547 59.4487 226.257 65.6971 245.102L84.9494 250.693Z" fill="#03A294"/>
<path d="M75.0849 247.242C74.85 247.242 74.6402 247.088 74.5935 246.865C74.5572 246.693 71.0349 229.479 77.5111 215.706C77.6222 215.47 77.9179 215.362 78.1715 215.465C78.4252 215.569 78.541 215.843 78.4302 216.079C72.0814 229.581 75.542 246.516 75.5776 246.686C75.631 246.939 75.4537 247.184 75.182 247.233C75.1492 247.239 75.117 247.242 75.0849 247.242Z" fill="#014E49"/>
<path d="M111.359 264.6C111.359 264.6 89.1493 239.94 121.678 197.547C121.678 197.547 144.244 239.916 134.91 267.446L111.359 264.6Z" fill="#03A294"/>
<path d="M121.128 258.821C120.888 258.821 120.675 258.659 120.634 258.431C120.619 258.345 119.068 249.691 118.15 238.796C117.301 228.726 116.834 214.624 119.43 204.625C119.495 204.375 119.765 204.221 120.035 204.281C120.304 204.341 120.47 204.593 120.405 204.844C117.84 214.722 118.306 228.715 119.149 238.715C120.064 249.57 121.608 258.191 121.623 258.277C121.669 258.531 121.485 258.771 121.212 258.814C121.184 258.818 121.156 258.821 121.128 258.821Z" fill="#014E49"/>
<path d="M128.963 259.539C128.963 259.539 133.341 229.299 159.177 218.002C159.177 218.002 156.991 259.713 152.232 273.644C152.232 273.644 130.41 273.82 128.963 259.539Z" fill="#014E49"/>
<path d="M140.058 265.331C140.037 265.331 140.017 265.33 139.996 265.327C139.721 265.296 139.526 265.064 139.559 264.808C139.569 264.735 140.556 257.372 143.184 248.352C145.615 240.009 149.99 228.495 157.027 221.02C157.209 220.826 157.526 220.806 157.735 220.976C157.943 221.146 157.964 221.44 157.782 221.634C150.871 228.975 146.556 240.348 144.152 248.596C141.543 257.552 140.565 264.849 140.555 264.921C140.524 265.158 140.308 265.331 140.058 265.331Z" fill="#03A294"/>
</g>
<path d="M311.803 223.852C311.803 223.852 263.417 211.496 259.669 234.94C255.921 258.384 278.751 230.505 289.655 231.772C289.655 231.772 250.469 257.75 267.847 266.621C285.225 275.491 296.47 246.26 304.648 243.61C304.648 243.61 287.951 285.629 299.536 277.392C311.122 269.155 316.233 246.345 316.233 246.345C316.233 246.345 318.931 269.672 329.368 285.303C331.004 287.754 335.007 287.2 335.823 284.417C338.403 275.623 341.395 259.04 333.611 244.127C333.611 244.127 338.719 253.361 353.078 258.347C355.52 259.195 358.177 257.68 358.436 255.268C359.264 247.56 356.848 231.685 325.774 224.169C325.774 224.169 343.987 218.466 358.563 223.852C373.138 229.237 360.871 211.813 350.649 209.595C340.426 207.378 318.959 204.094 311.803 223.852Z" fill="#03A294"/>
<path d="M333.031 283.551C333.031 283.551 333.03 283.551 333.029 283.551C332.92 283.55 332.832 283.466 332.833 283.365C333.008 263.403 327.243 248.32 322.375 239.182C317.1 229.28 311.715 224.031 311.661 223.98C311.585 223.906 311.587 223.79 311.666 223.719C311.744 223.648 311.87 223.65 311.946 223.724C312 223.776 317.421 229.056 322.723 239.004C327.613 248.18 333.406 263.325 333.229 283.368C333.228 283.469 333.14 283.551 333.031 283.551Z" fill="#014E49"/>
<path d="M298.684 274.14C298.654 274.14 298.623 274.134 298.594 274.12C298.497 274.074 298.458 273.963 298.507 273.872C308.051 256.327 317.723 231.755 317.819 231.509C317.856 231.414 317.97 231.364 318.073 231.399C318.176 231.434 318.229 231.54 318.191 231.636C318.095 231.882 308.415 256.474 298.861 274.039C298.826 274.103 298.756 274.14 298.684 274.14Z" fill="#014E49"/>
<path d="M272.558 261.506C272.539 261.506 272.52 261.504 272.501 261.498C272.396 261.469 272.337 261.366 272.368 261.269C274.384 255.06 281.988 247.255 294.971 238.071C304.626 231.241 313.809 226.165 313.9 226.114C313.994 226.063 314.116 226.092 314.172 226.179C314.228 226.267 314.197 226.38 314.103 226.432C313.737 226.633 277.5 246.735 272.748 261.375C272.722 261.455 272.643 261.506 272.558 261.506Z" fill="#014E49"/>
<path d="M264.789 237.755C264.755 237.755 264.721 237.747 264.69 237.73C264.595 237.679 264.563 237.567 264.618 237.478C267.253 233.243 271.425 229.926 277.017 227.621C281.48 225.782 286.852 224.58 292.985 224.047C302.812 223.194 311.5 224.358 312.55 224.508C313.216 223.851 318.325 218.988 326.428 216.006C331.516 214.133 336.774 213.356 342.054 213.694C348.651 214.117 355.299 216.294 361.815 220.164C361.907 220.219 361.934 220.333 361.875 220.419C361.816 220.504 361.693 220.53 361.602 220.475C355.146 216.64 348.564 214.483 342.037 214.062C336.817 213.726 331.62 214.493 326.588 216.343C318.011 219.496 312.822 224.775 312.77 224.828C312.725 224.874 312.658 224.896 312.591 224.887C312.5 224.873 303.396 223.512 293.014 224.415C286.925 224.944 281.596 226.137 277.174 227.96C271.662 230.232 267.552 233.497 264.961 237.663C264.924 237.722 264.857 237.755 264.789 237.755Z" fill="#014E49"/>
<path d="M355.275 255.551C355.208 255.551 355.142 255.518 355.105 255.46C348.138 244.503 339.012 239.56 332.582 237.342C325.619 234.94 320.245 235.13 320.192 235.131C320.088 235.138 319.99 235.057 319.986 234.955C319.981 234.853 320.066 234.767 320.175 234.763C320.229 234.76 325.684 234.569 332.72 236.996C339.21 239.235 348.42 244.223 355.446 255.273C355.502 255.36 355.471 255.473 355.376 255.525C355.345 255.542 355.31 255.551 355.275 255.551Z" fill="#014E49"/>
<path d="M288.765 166.203C290.475 162.972 293.289 160.329 296.747 158.709C297.429 158.389 296.829 157.437 296.148 157.756C293.316 159.083 290.879 161.088 289.082 163.514C288.579 164.193 288.132 164.906 287.74 165.646C287.599 165.913 287.663 166.243 287.953 166.401C288.215 166.543 288.623 166.471 288.765 166.203Z" fill="#014E49"/>
<path d="M286.502 165.604C287.081 163.993 287.46 162.334 287.662 160.647C287.697 160.35 287.364 160.095 287.068 160.095C286.718 160.095 286.511 160.349 286.475 160.647C286.286 162.233 285.902 163.797 285.358 165.31C285.256 165.593 285.475 165.913 285.772 165.989C286.096 166.072 286.4 165.887 286.502 165.604Z" fill="#014E49"/>
<path d="M283.621 164.188C283.832 162.196 283.655 160.178 283.117 158.239C282.927 157.553 281.782 157.844 281.973 158.533C282.486 160.382 282.636 162.289 282.434 164.188C282.403 164.485 282.73 164.74 283.028 164.74C283.374 164.74 283.589 164.486 283.621 164.188Z" fill="#014E49"/>
<path d="M245.618 193.081C246.708 190.875 248.433 188.973 250.616 187.636C251.251 187.247 250.658 186.291 250.017 186.684C247.671 188.121 245.768 190.148 244.594 192.525C244.46 192.795 244.511 193.119 244.807 193.279C245.062 193.418 245.484 193.353 245.618 193.081Z" fill="#014E49"/>
<path d="M243.362 192.079C243.502 189.897 243.44 187.708 243.177 185.537C243.141 185.24 242.93 184.985 242.584 184.985C242.291 184.985 241.955 185.239 241.991 185.537C242.253 187.709 242.315 189.897 242.175 192.079C242.13 192.788 243.317 192.785 243.362 192.079Z" fill="#014E49"/>
<path d="M240.245 191.885C238.993 190.559 237.74 189.233 236.487 187.907C236.276 187.683 235.865 187.706 235.648 187.907C235.409 188.129 235.436 188.463 235.648 188.687C236.901 190.013 238.154 191.339 239.406 192.665C239.618 192.889 240.029 192.866 240.245 192.665C240.484 192.443 240.457 192.11 240.245 191.885Z" fill="#014E49"/>
<path d="M237.518 193.539C236.259 192.754 234.866 192.156 233.41 191.766C233.112 191.686 232.751 191.863 232.68 192.151C232.608 192.446 232.776 192.744 233.095 192.83C234.468 193.198 235.721 193.743 236.919 194.491C237.185 194.657 237.576 194.539 237.73 194.293C237.901 194.022 237.784 193.705 237.518 193.539Z" fill="#014E49"/>
<path d="M240.901 194.714C241.665 194.714 241.666 193.61 240.901 193.61C240.138 193.61 240.136 194.714 240.901 194.714Z" fill="#014E49"/>
<path d="M152.982 174.036C151.791 171.652 151.566 168.895 152.312 166.364C152.515 165.679 151.37 165.386 151.168 166.071C150.334 168.902 150.63 171.935 151.957 174.593C152.092 174.863 152.511 174.931 152.769 174.791C153.067 174.629 153.117 174.307 152.982 174.036Z" fill="#014E49"/>
<path d="M148.114 172.411C147.481 170.655 146.848 168.899 146.215 167.143C145.973 166.473 144.827 166.76 145.071 167.436C145.704 169.192 146.337 170.948 146.97 172.705C147.211 173.374 148.358 173.087 148.114 172.411Z" fill="#014E49"/>
<path d="M155.228 171.256C155.88 169.036 156.531 166.816 157.182 164.596C157.383 163.91 156.239 163.617 156.038 164.303C155.387 166.523 154.736 168.743 154.084 170.963C153.883 171.649 155.027 171.942 155.228 171.256Z" fill="#014E49"/>
<path d="M145.014 172.061C144.074 171.326 143.056 170.68 141.967 170.15C141.692 170.017 141.31 170.077 141.155 170.348C141.011 170.602 141.074 170.96 141.368 171.103C141.882 171.353 142.382 171.627 142.864 171.926C143.098 172.072 143.328 172.222 143.553 172.379C143.609 172.418 143.665 172.457 143.721 172.497C143.654 172.449 143.712 172.491 143.746 172.516C143.774 172.536 143.801 172.556 143.829 172.577C143.946 172.663 144.061 172.752 144.175 172.841C144.413 173.026 144.785 173.073 145.015 172.841C145.216 172.637 145.268 172.259 145.014 172.061Z" fill="#014E49"/>
<path d="M105.429 202.034C105.857 199.871 106.701 197.81 107.937 195.935C108.337 195.328 107.311 194.773 106.912 195.378C105.628 197.327 104.73 199.492 104.285 201.74C104.227 202.033 104.372 202.335 104.7 202.419C104.988 202.493 105.371 202.328 105.429 202.034Z" fill="#014E49"/>
<path d="M101.813 202.926C100.342 201.862 98.82 200.864 97.24 199.945C96.9683 199.787 96.5865 199.892 96.4285 200.143C96.2621 200.408 96.3689 200.739 96.6413 200.898C98.1342 201.766 99.5841 202.701 100.974 203.706C101.227 203.889 101.567 203.935 101.813 203.706C102.018 203.515 102.068 203.11 101.813 202.926Z" fill="#014E49"/>
<path d="M97.4327 203.999C96.1522 203.606 94.8228 203.37 93.4782 203.278C93.1681 203.257 92.8714 203.547 92.885 203.829C92.9002 204.146 93.146 204.358 93.4782 204.381C94.698 204.464 95.9206 204.695 97.1173 205.062C97.4123 205.153 97.7784 204.957 97.847 204.677C97.9215 204.373 97.7485 204.095 97.4327 203.999Z" fill="#014E49"/>
<path d="M102.914 200.442C102.417 199.001 102.213 197.505 102.305 195.994C102.323 195.696 102.019 195.442 101.711 195.442C101.375 195.442 101.136 195.695 101.118 195.994C101.021 197.594 101.244 199.21 101.77 200.736C101.868 201.019 102.182 201.202 102.5 201.121C102.8 201.044 103.012 200.727 102.914 200.442Z" fill="#014E49"/>
<path d="M337.821 174.479C338.727 173.11 339.91 171.897 341.3 170.939C341.493 170.806 341.591 170.581 341.46 170.373C341.349 170.196 341.045 170.091 340.851 170.224C339.334 171.27 338.043 172.565 337.052 174.061C336.751 174.516 337.52 174.932 337.821 174.479Z" fill="#014E49"/>
<path d="M341.624 173.806C342.632 173.319 343.64 172.832 344.649 172.344C344.862 172.241 344.925 171.964 344.808 171.778C344.682 171.577 344.414 171.527 344.2 171.63C343.191 172.117 342.183 172.604 341.175 173.092C340.962 173.195 340.898 173.472 341.015 173.658C341.141 173.859 341.41 173.91 341.624 173.806Z" fill="#014E49"/>
<path d="M345.428 174.907C346.538 174.316 347.458 173.417 348.028 172.352C348.131 172.158 348.09 171.895 347.868 171.786C347.667 171.687 347.37 171.727 347.259 171.934C347.128 172.179 346.98 172.415 346.812 172.64C346.77 172.698 346.725 172.754 346.681 172.811C346.633 172.871 346.693 172.798 346.663 172.833C346.642 172.858 346.62 172.883 346.599 172.907C346.504 173.016 346.405 173.121 346.302 173.223C346.105 173.417 345.892 173.597 345.669 173.765C345.565 173.844 345.737 173.719 345.63 173.794C345.602 173.813 345.575 173.832 345.547 173.851C345.486 173.892 345.425 173.932 345.363 173.971C345.238 174.049 345.11 174.123 344.979 174.192C344.777 174.3 344.69 174.571 344.819 174.758C344.951 174.948 345.212 175.022 345.428 174.907Z" fill="#014E49"/>
<path d="M350.217 175.77C350.198 174.952 350.414 174.174 350.859 173.469C350.977 173.282 350.912 173.007 350.7 172.903C350.486 172.798 350.217 172.852 350.091 173.052C349.573 173.871 349.305 174.82 349.327 175.77C349.332 175.987 349.528 176.194 349.772 176.184C350.009 176.174 350.222 176.002 350.217 175.77Z" fill="#014E49"/>
<path d="M352.336 178.004C353.655 177.095 354.974 176.186 356.292 175.278C356.485 175.145 356.582 174.92 356.452 174.712C356.341 174.535 356.037 174.43 355.843 174.563C354.525 175.472 353.206 176.381 351.887 177.289C351.695 177.422 351.597 177.647 351.728 177.855C351.839 178.032 352.142 178.137 352.336 178.004Z" fill="#014E49"/>
<path d="M213.41 98.2845H201.979L203.337 87.7153H212.051L213.41 98.2845Z" fill="url(#paint0_linear_207_3)"/>
<path d="M215.177 73.797C213.258 70.4006 207.923 70.4734 207.626 70.4802C207.328 70.4734 201.994 70.4008 200.074 73.797C198.1 77.2909 200.905 82.299 200.905 82.299H207.597H207.654H214.346C214.346 82.299 217.152 77.2911 215.177 73.797Z" fill="black"/>
<path d="M213.922 80.6492V78.0431C213.922 77.3515 213.695 76.7094 213.306 76.1772C212.084 76.6421 210.027 76.9475 207.694 76.9475C205.396 76.9475 203.366 76.6509 202.138 76.1975C201.758 76.7257 201.536 77.3603 201.536 78.0434V80.6636C201.486 80.6596 201.438 80.6495 201.386 80.6495C200.406 80.6495 199.612 81.3881 199.612 82.2993C199.612 83.2105 200.406 83.9492 201.386 83.9492C201.438 83.9492 201.486 83.9391 201.536 83.9351V84.1255C201.536 87.3055 204.309 89.8831 207.729 89.8831C211.149 89.8831 213.922 87.3053 213.922 84.1255V83.949C214.902 83.949 215.696 83.2103 215.696 82.2991C215.696 81.3879 214.902 80.6492 213.922 80.6492Z" fill="url(#paint1_linear_207_3)"/>
<path d="M243.705 113.455L238.181 103.478C234.414 96.6752 226.923 92.8194 219.216 92.9527C218.494 92.845 217.754 92.7861 216.997 92.7861H197.127C196.378 92.7861 195.645 92.8437 194.931 92.9492C187.318 92.9088 179.957 96.7542 176.234 103.478L170.71 113.455L184.585 120.096L185.805 147.53C185.842 148.351 186.569 149 187.453 149H226.671C227.556 149 228.283 148.351 228.32 147.53L229.533 120.238L243.705 113.455Z" fill="#FF9E3E"/>
<path d="M184.621 120.334C184.49 120.334 184.384 120.235 184.384 120.113V109.135C184.384 109.014 184.49 108.915 184.621 108.915C184.752 108.915 184.858 109.014 184.858 109.135V120.113C184.858 120.235 184.752 120.334 184.621 120.334Z" fill="black"/>
<path d="M229.72 120.363C229.589 120.363 229.483 120.264 229.483 120.142V108.674C229.483 108.553 229.589 108.454 229.72 108.454C229.851 108.454 229.958 108.553 229.958 108.674V120.142C229.958 120.264 229.851 120.363 229.72 120.363Z" fill="black"/>
<path d="M226.671 149H187.453L190.737 170.669H225.254L226.671 149Z" fill="black"/>
<path d="M177.518 187.979L172.004 190.805C170.075 191.433 168.546 192.743 167.464 194.356C167.049 194.974 166.382 195.398 165.309 195.094C162.629 194.333 161.383 193.024 158.712 193.767C156.041 194.509 152.84 194.778 150.903 193.421C150.903 193.421 149.27 194.574 147.663 193.01C147.351 192.706 147.456 192.204 147.865 192.024L173.103 180.914L177.518 187.979Z" fill="url(#paint2_linear_207_3)"/>
<path d="M166.64 179.458L175.564 193.238L234.495 168.808C242.776 164.171 245.727 154.603 241.085 147.436C238.55 143.522 232.829 142.401 228.307 144.933L166.64 179.458Z" fill="#050542"/>
<path d="M170.125 137.099C167.382 135.94 166.1 132.984 167.211 130.38L173.744 114.907L184.621 120.113L177.626 134.455C176.349 137.12 172.981 138.307 170.125 137.099Z" fill="url(#paint3_linear_207_3)"/>
<path d="M171.813 128.818L197.811 138.185L192.488 143.207C192.488 143.207 170.26 143.553 166.865 134.802C166.865 134.802 165.658 132.273 167.649 129.876C168.623 128.702 170.326 128.282 171.813 128.818Z" fill="url(#paint4_linear_207_3)"/>
<path d="M245.014 136.6C247.757 135.441 249.038 132.485 247.928 129.881L241.394 114.408L230.518 119.614L237.513 133.956C238.79 136.621 242.158 137.808 245.014 136.6Z" fill="url(#paint5_linear_207_3)"/>
<path d="M243.763 128.656L216.442 133.824L220.78 139.607C220.78 139.607 242.629 143.424 247.559 135.33C247.559 135.33 249.205 133.025 247.677 130.351C246.929 129.041 245.326 128.361 243.763 128.656Z" fill="url(#paint6_linear_207_3)"/>
<path d="M227.72 151.89H186.687C185.621 151.89 184.735 151.125 184.657 150.136L182.036 116.939C181.949 115.842 182.884 114.908 184.067 114.908H230.933C232.13 114.908 233.068 115.862 232.961 116.97L229.748 150.167C229.654 151.142 228.774 151.89 227.72 151.89Z" fill="#BBE0F8"/>
<path d="M211.312 137.151C213.419 135.192 213.419 132.016 211.312 130.057C209.205 128.098 205.789 128.098 203.682 130.057C201.575 132.016 201.575 135.192 203.682 137.151C205.789 139.11 209.205 139.11 211.312 137.151Z" fill="#72C4F4"/>
<path d="M205.707 219.393H188.406L180.517 159.853C180.517 150.865 187.812 143.579 196.81 143.579C201.724 143.579 205.707 147.557 205.707 152.465V219.393Z" fill="#050542"/>
<path d="M192.613 219.393H202.484C202.484 219.393 201.3 225.288 202.484 228.103C203.454 230.409 207.075 239.612 208.352 242.866C208.619 243.545 208.281 244.298 207.577 244.604C204.853 245.79 198.321 247.885 195.599 242.242C192.84 236.522 193.346 229.124 193.676 226.295C193.769 225.492 193.669 224.682 193.38 223.921L192.613 219.393Z" fill="url(#paint7_linear_207_3)"/>
<path d="M205.707 245.526C205.612 245.526 205.523 245.473 205.486 245.385L204.102 242.068C204.055 241.954 204.115 241.827 204.237 241.783C204.359 241.739 204.497 241.795 204.545 241.909L205.929 245.226C205.976 245.339 205.915 245.467 205.793 245.511C205.765 245.521 205.736 245.526 205.707 245.526Z" fill="black"/>
<path d="M205.707 181.135C205.576 181.135 205.47 181.036 205.47 180.914V158.748C205.47 158.626 205.576 158.527 205.707 158.527C205.839 158.527 205.945 158.626 205.945 158.748V180.914C205.945 181.036 205.839 181.135 205.707 181.135Z" fill="#F5FAFF"/>
<path d="M184.62 190.175C184.503 190.175 184.401 190.094 184.386 189.982L181.741 170.9C181.725 170.779 181.816 170.669 181.947 170.653C182.076 170.639 182.195 170.723 182.212 170.844L184.856 189.926C184.873 190.047 184.781 190.157 184.651 190.173C184.641 190.174 184.631 190.175 184.62 190.175Z" fill="#F5FAFF"/>
<defs>
<linearGradient id="paint0_linear_207_3" x1="207.694" y1="100.742" x2="207.694" y2="87.6464" gradientUnits="userSpaceOnUse">
<stop offset="0.5075" stop-color="#FFACAA"/>
<stop offset="0.8574" stop-color="#FB6B67"/>
</linearGradient>
<linearGradient id="paint1_linear_207_3" x1="207.564" y1="93.06" x2="207.671" y2="78.291" gradientUnits="userSpaceOnUse">
<stop offset="0.4185" stop-color="#FFACAA"/>
<stop offset="0.5497" stop-color="#FFA7A6"/>
<stop offset="0.7018" stop-color="#FE9A98"/>
<stop offset="0.8636" stop-color="#FC8480"/>
<stop offset="1" stop-color="#FB6B67"/>
</linearGradient>
<linearGradient id="paint2_linear_207_3" x1="143.165" y1="198.912" x2="178.64" y2="182.13" gradientUnits="userSpaceOnUse">
<stop offset="0.3006" stop-color="#FFACAC"/>
<stop offset="0.3915" stop-color="#FEA5A5"/>
<stop offset="0.5231" stop-color="#FD9391"/>
<stop offset="0.679" stop-color="#FB7672"/>
<stop offset="0.7388" stop-color="#FA6964"/>
</linearGradient>
<linearGradient id="paint3_linear_207_3" x1="168.402" y1="144.296" x2="179.375" y2="112.109" gradientUnits="userSpaceOnUse">
<stop offset="0.5248" stop-color="#FFACAA"/>
<stop offset="0.6158" stop-color="#FFA7A5"/>
<stop offset="0.7275" stop-color="#FE9896"/>
<stop offset="0.8494" stop-color="#FC817D"/>
<stop offset="0.937" stop-color="#FB6B67"/>
</linearGradient>
<linearGradient id="paint4_linear_207_3" x1="203.628" y1="143.839" x2="158.777" y2="128.397" gradientUnits="userSpaceOnUse">
<stop offset="0.5248" stop-color="#FFACAA"/>
<stop offset="0.6158" stop-color="#FFA7A5"/>
<stop offset="0.7275" stop-color="#FE9896"/>
<stop offset="0.8494" stop-color="#FC817D"/>
<stop offset="0.937" stop-color="#FB6B67"/>
</linearGradient>
<linearGradient id="paint5_linear_207_3" x1="246.736" y1="143.797" x2="235.763" y2="111.609" gradientUnits="userSpaceOnUse">
<stop offset="0.5248" stop-color="#FFACAA"/>
<stop offset="0.6158" stop-color="#FFA7A5"/>
<stop offset="0.7275" stop-color="#FE9896"/>
<stop offset="0.8494" stop-color="#FC817D"/>
<stop offset="0.937" stop-color="#FB6B67"/>
</linearGradient>
<linearGradient id="paint6_linear_207_3" x1="209.684" y1="138.489" x2="256.845" y2="131.298" gradientUnits="userSpaceOnUse">
<stop offset="0.5248" stop-color="#FFACAA"/>
<stop offset="0.6158" stop-color="#FFA7A5"/>
<stop offset="0.7275" stop-color="#FE9896"/>
<stop offset="0.8494" stop-color="#FC817D"/>
<stop offset="0.937" stop-color="#FB6B67"/>
</linearGradient>
<linearGradient id="paint7_linear_207_3" x1="205.038" y1="258.302" x2="197.194" y2="215.412" gradientUnits="userSpaceOnUse">
<stop offset="0.3006" stop-color="#FFACAC"/>
<stop offset="0.3915" stop-color="#FEA5A5"/>
<stop offset="0.5231" stop-color="#FD9391"/>
<stop offset="0.679" stop-color="#FB7672"/>
<stop offset="0.7388" stop-color="#FA6964"/>
</linearGradient>
</defs>
</svg>
