<svg width="270" height="298" viewBox="0 0 270 298" fill="none" xmlns="http://www.w3.org/2000/svg">
<path d="M135.375 49.4013C124.863 48.3054 114.546 51.2239 105.14 55.7629C96.6018 59.8837 88.6054 65.222 81.3673 71.3358C67.7795 82.8131 56.3953 97.7028 51.158 114.867C45.9065 132.078 48.0407 150.237 56.3937 166.098C65.1593 182.744 79.4738 196.038 95.5501 205.531C113.151 215.924 133.235 222.072 153.638 223.305C172.324 224.433 192.306 221.441 207.989 210.592C222.294 200.696 230.688 184.846 232.932 167.789C235.249 150.164 231.156 132.452 222.395 117.089C213.096 100.78 199.277 87.4421 184.046 76.6701C167.46 64.9395 148.178 54.6267 127.563 53.1308C122.596 52.7703 117.627 53.0038 112.713 53.8007C111.951 53.9246 112.275 55.082 113.032 54.9597C134.003 51.5584 154.721 59.7946 172.383 70.4727C188.008 79.9191 202.613 91.6584 213.741 106.235C224.515 120.347 231.665 137.085 232.323 154.964C232.938 171.651 228.134 188.937 216.709 201.439C204.039 215.302 185.06 221.197 166.761 222.175C147.081 223.227 127.048 219.187 109.083 211.166C76.8322 196.767 45.7771 165.827 49.7339 127.765C51.5627 110.172 60.6968 94.0703 72.6151 81.3077C78.669 74.8255 85.5079 69.0848 92.8943 64.1789C101.247 58.6316 110.41 53.8236 120.242 51.5789C125.217 50.4428 130.294 50.0751 135.372 50.6045C136.143 50.6834 136.138 49.481 135.375 49.4013Z" fill="#E9FBFF"/>
<path d="M143.33 227.346C132.593 231.071 120.924 229.408 109.969 227.63C99.4841 225.928 89.0908 223.482 79.0984 219.85C60.2149 212.984 42.7263 201.466 31.3886 184.595C20.8873 168.969 17.3361 150.163 21.9287 131.862C26.3857 114.099 37.3778 98.2101 51.4848 86.6941C83.9159 60.2191 130.197 58.406 169.903 63.3908C181.489 64.8456 192.99 67.0958 204.217 70.3212C213.622 73.0234 223.391 76.2449 231.106 82.4857C239.25 89.0729 243.232 98.6867 242.907 109.091C242.569 119.905 237.845 129.886 231.799 138.656C220.5 155.048 205.642 169.478 189.988 181.681C174.234 193.963 156.831 204.163 138.387 211.841C133.952 213.687 129.457 215.379 124.912 216.937C124.185 217.186 124.497 218.347 125.232 218.095C164.181 204.747 199.306 180.592 225.532 148.828C238.068 133.644 250.398 112.553 240.857 92.6549C236.75 84.0889 228.726 78.4406 220.263 74.6669C210.109 70.1389 199.051 67.3822 188.189 65.1723C166.088 60.6759 143.007 58.8983 120.503 60.7279C99.7957 62.4116 79.0928 67.5763 61.1908 78.3988C29.7468 97.4085 8.51053 137.548 23.8957 173.397C31.6671 191.506 46.829 205.614 64.1132 214.602C73.7727 219.626 84.1329 223.212 94.6965 225.785C105.484 228.413 116.867 230.58 127.999 230.764C133.314 230.851 138.61 230.253 143.649 228.504C144.376 228.253 144.064 227.092 143.33 227.346Z" fill="#E9FBFF"/>
<path d="M55.088 118.802C57.4343 116.455 57.4343 112.651 55.088 110.305C52.7417 107.959 48.9376 107.959 46.5913 110.305C44.2451 112.651 44.2451 116.455 46.5913 118.802C48.9376 121.148 52.7417 121.148 55.088 118.802Z" fill="#E9FBFF"/>
<path d="M64.0593 49.2664C64.0593 51.257 62.4451 52.8712 60.4545 52.8712C58.4639 52.8712 56.8496 51.257 56.8496 49.2664C56.8496 47.2758 58.4639 45.6615 60.4545 45.6615C62.4451 45.6615 64.0593 47.275 64.0593 49.2664Z" fill="#E9FBFF"/>
<path d="M44.8337 169.828C44.8337 171.818 43.2195 173.432 41.2289 173.432C39.2383 173.432 37.624 171.818 37.624 169.828C37.624 167.837 39.2383 166.223 41.2289 166.223C43.2195 166.223 44.8337 167.837 44.8337 169.828Z" fill="#E9FBFF"/>
<path d="M196.637 111.549C196.637 113.209 195.291 114.553 193.633 114.553C191.974 114.553 190.629 113.208 190.629 111.549C190.629 109.89 191.975 108.546 193.633 108.546C195.291 108.546 196.637 109.89 196.637 111.549Z" fill="#E9FBFF"/>
<path d="M92.8973 109.948C92.8973 110.722 92.2693 111.35 91.4953 111.35C90.7213 111.35 90.0933 110.722 90.0933 109.948C90.0933 109.174 90.7213 108.546 91.4953 108.546C92.2701 108.546 92.8973 109.173 92.8973 109.948Z" fill="#E9FBFF"/>
<path d="M183.82 31.0417C183.82 32.2583 182.834 33.2445 181.617 33.2445C180.4 33.2445 179.414 32.2583 179.414 31.0417C179.414 29.8251 180.4 28.8389 181.617 28.8389C182.834 28.8389 183.82 29.8251 183.82 31.0417Z" fill="#E9FBFF"/>
<path d="M183.82 209.681C183.82 210.898 182.834 211.884 181.617 211.884C180.4 211.884 179.414 210.898 179.414 209.681C179.414 208.465 180.4 207.479 181.617 207.479C182.834 207.479 183.82 208.465 183.82 209.681Z" fill="#E9FBFF"/>
<path d="M269.134 161.016C269.134 163.892 266.803 166.223 263.927 166.223C261.051 166.223 258.719 163.892 258.719 161.016C258.719 158.14 261.051 155.809 263.927 155.809C266.803 155.809 269.134 158.14 269.134 161.016Z" fill="#E9FBFF"/>
<path d="M10.3873 208.279C13.4841 208.279 15.9946 205.769 15.9946 202.672C15.9946 199.575 13.4841 197.065 10.3873 197.065C7.2905 197.065 4.78003 199.575 4.78003 202.672C4.78003 205.769 7.2905 208.279 10.3873 208.279Z" fill="#E9FBFF"/>
<path d="M5.18009 78.7057C5.18009 79.9223 4.19386 80.9085 2.97725 80.9085C1.76064 80.9085 0.774414 79.9223 0.774414 78.7057C0.774414 77.4891 1.76064 76.5028 2.97725 76.5028C4.19386 76.5028 5.18009 77.4891 5.18009 78.7057Z" fill="#E9FBFF"/>
<path d="M139.36 12.8178C142.899 12.8178 145.769 9.94844 145.769 6.4089C145.769 2.86936 142.899 0 139.36 0C135.82 0 132.951 2.86936 132.951 6.4089C132.951 9.94844 135.82 12.8178 139.36 12.8178Z" fill="#E9FBFF"/>
<path d="M173.005 281.177C175.438 281.177 177.411 279.204 177.411 276.771C177.411 274.338 175.438 272.365 173.005 272.365C170.572 272.365 168.6 274.338 168.6 276.771C168.6 279.204 170.572 281.177 173.005 281.177Z" fill="#E9FBFF"/>
<path d="M233.486 96.9304C236.362 96.9304 238.694 94.599 238.694 91.7231C238.694 88.8472 236.362 86.5158 233.486 86.5158C230.61 86.5158 228.279 88.8472 228.279 91.7231C228.279 94.599 230.61 96.9304 233.486 96.9304Z" fill="#E9FBFF"/>
<path d="M86.0233 187.524L90.1378 184.157C88.3034 179.964 83.9025 179.261 81.429 179.214L77.2151 181.405C78.4333 187.519 86.0233 187.524 86.0233 187.524Z" fill="#1D3542"/>
<path d="M120.251 183.222C120.251 183.222 113.518 179.108 109.029 184.344C109.029 184.344 104.915 180.977 97.8066 186.215L95.188 187.337C95.188 187.337 102.295 192.948 110.151 188.833C110.151 188.833 122.495 190.703 122.869 187.337C123.243 183.97 120.251 183.222 120.251 183.222Z" fill="#1D3542"/>
<path d="M141.759 107.1C141.759 107.1 163.456 97.7477 167.57 79.4181C171.685 61.0885 155.974 40.889 155.974 40.889C155.974 40.889 90.8859 96.625 105.1 108.221C112.433 114.204 141.759 111.588 141.759 111.588" fill="#1D3542"/>
<mask id="mask0_208_1458" style="mask-type:luminance" maskUnits="userSpaceOnUse" x="103" y="40" width="66" height="73">
<path d="M141.759 107.1C141.759 107.1 163.456 97.7477 167.57 79.4181C171.685 61.0885 155.974 40.889 155.974 40.889C155.974 40.889 90.8859 96.625 105.1 108.221C112.433 114.204 141.759 111.588 141.759 111.588" fill="white"/>
</mask>
<g mask="url(#mask0_208_1458)">
<path opacity="0.22" d="M115.948 86.5253C115.948 86.5253 123.055 104.481 136.148 103.732C149.24 102.984 158.454 86.2783 159.271 77.7983C160.089 69.3184 114.452 77.1735 115.948 86.5253Z" fill="#1D3542"/>
</g>
<path d="M116.697 197.249C116.697 197.249 102.483 218.946 101.734 222.312C101.734 222.312 53.4791 224.931 42.2574 229.793C31.0358 234.657 26.9204 249.245 36.6462 256.726C46.372 264.207 111.086 266.826 129.042 260.467C129.042 260.467 221.811 272.811 237.522 254.855C253.233 236.9 209.092 219.319 171.686 221.189C171.686 221.189 158.594 195.379 151.486 192.012C144.378 188.646 116.697 197.249 116.697 197.249Z" fill="#D25A5C"/>
<mask id="mask1_208_1458" style="mask-type:luminance" maskUnits="userSpaceOnUse" x="31" y="191" width="210" height="74">
<path d="M116.697 197.249C116.697 197.249 102.483 218.946 101.734 222.312C101.734 222.312 53.4791 224.931 42.2574 229.793C31.0358 234.657 26.9204 249.245 36.6462 256.726C46.372 264.207 111.086 266.826 129.042 260.467C129.042 260.467 221.811 272.811 237.522 254.855C253.233 236.9 209.092 219.319 171.686 221.189C171.686 221.189 158.594 195.379 151.486 192.012C144.378 188.646 116.697 197.249 116.697 197.249Z" fill="white"/>
</mask>
<g mask="url(#mask1_208_1458)">
<path opacity="0.23" d="M135.247 261.215C135.247 261.215 116.697 259.719 99.8635 247.749C99.8635 247.749 110.337 262.337 122.308 264.582C134.278 266.827 135.247 261.215 135.247 261.215Z" fill="#D25A5C"/>
</g>
<mask id="mask2_208_1458" style="mask-type:luminance" maskUnits="userSpaceOnUse" x="31" y="191" width="210" height="74">
<path d="M116.697 197.249C116.697 197.249 102.483 218.946 101.734 222.312C101.734 222.312 53.4791 224.931 42.2574 229.793C31.0358 234.657 26.9204 249.245 36.6462 256.726C46.372 264.207 111.086 266.826 129.042 260.467C129.042 260.467 221.811 272.811 237.522 254.855C253.233 236.9 209.092 219.319 171.686 221.189C171.686 221.189 158.594 195.379 151.486 192.012C144.378 188.646 116.697 197.249 116.697 197.249Z" fill="white"/>
</mask>
<g mask="url(#mask2_208_1458)">
<path opacity="0.23" d="M64.7008 230.916C63.9891 231.699 60.2123 233.535 63.9529 235.031C67.6934 236.526 88.2677 247.749 93.5042 246.253C98.7414 244.756 68.4422 226.801 64.7008 230.916Z" fill="#D25A5C"/>
</g>
<mask id="mask3_208_1458" style="mask-type:luminance" maskUnits="userSpaceOnUse" x="31" y="191" width="210" height="74">
<path d="M116.697 197.249C116.697 197.249 102.483 218.946 101.734 222.312C101.734 222.312 53.4791 224.931 42.2574 229.793C31.0358 234.657 26.9204 249.245 36.6462 256.726C46.372 264.207 111.086 266.826 129.042 260.467C129.042 260.467 221.811 272.811 237.522 254.855C253.233 236.9 209.092 219.319 171.686 221.189C171.686 221.189 158.594 195.379 151.486 192.012C144.378 188.646 116.697 197.249 116.697 197.249Z" fill="white"/>
</mask>
<g mask="url(#mask3_208_1458)">
<path opacity="0.23" d="M175.371 244.329C176.174 244.383 192.259 240.268 199.367 237.275C206.474 234.283 207.971 232.038 209.84 232.038C211.71 232.038 211.336 228.297 206.1 228.671C200.863 229.045 179.167 238.397 179.167 238.397L175.371 244.872" fill="#D25A5C"/>
</g>
<mask id="mask4_208_1458" style="mask-type:luminance" maskUnits="userSpaceOnUse" x="31" y="191" width="210" height="74">
<path d="M116.697 197.249C116.697 197.249 102.483 218.946 101.734 222.312C101.734 222.312 53.4791 224.931 42.2574 229.793C31.0358 234.657 26.9204 249.245 36.6462 256.726C46.372 264.207 111.086 266.826 129.042 260.467C129.042 260.467 221.811 272.811 237.522 254.855C253.233 236.9 209.092 219.319 171.686 221.189C171.686 221.189 158.594 195.379 151.486 192.012C144.378 188.646 116.697 197.249 116.697 197.249Z" fill="white"/>
</mask>
<g mask="url(#mask4_208_1458)">
<path opacity="0.23" d="M170.188 235.031C170.188 235.031 152.982 238.771 150.363 238.397C147.744 238.023 155.6 221.938 173.929 220.442C173.929 220.442 155.973 220.068 144.004 233.534C132.033 247 121.934 230.167 114.452 226.427C114.452 226.427 126.474 241.588 127.01 243.546C127.01 243.546 145.625 241.152 150.987 242.019C150.987 242.019 164.578 242.138 171.124 234.844L170.188 235.031Z" fill="#D25A5C"/>
</g>
<mask id="mask5_208_1458" style="mask-type:luminance" maskUnits="userSpaceOnUse" x="31" y="191" width="210" height="74">
<path d="M116.697 197.249C116.697 197.249 102.483 218.946 101.734 222.312C101.734 222.312 53.4791 224.931 42.2574 229.793C31.0358 234.657 26.9204 249.245 36.6462 256.726C46.372 264.207 111.086 266.826 129.042 260.467C129.042 260.467 221.811 272.811 237.522 254.855C253.233 236.9 209.092 219.319 171.686 221.189C171.686 221.189 158.594 195.379 151.486 192.012C144.378 188.646 116.697 197.249 116.697 197.249Z" fill="white"/>
</mask>
<g mask="url(#mask5_208_1458)">
<path d="M106.157 242.293C113.045 245.186 120.319 244.541 127.574 243.766C136.269 242.838 144.987 242.187 153.737 242.316C160.212 242.412 166.661 242.715 172.916 244.46C177.308 245.685 181.744 246.966 186.012 248.581C186.349 248.709 186.496 248.167 186.161 248.04C176.555 244.404 167.11 242.192 156.84 241.832C148.298 241.532 139.743 241.974 131.243 242.819C122.882 243.649 114.319 245.119 106.306 241.752C105.974 241.612 105.829 242.155 106.157 242.293Z" fill="#AA353B"/>
</g>
<mask id="mask6_208_1458" style="mask-type:luminance" maskUnits="userSpaceOnUse" x="31" y="191" width="210" height="74">
<path d="M116.697 197.249C116.697 197.249 102.483 218.946 101.734 222.312C101.734 222.312 53.4791 224.931 42.2574 229.793C31.0358 234.657 26.9204 249.245 36.6462 256.726C46.372 264.207 111.086 266.826 129.042 260.467C129.042 260.467 221.811 272.811 237.522 254.855C253.233 236.9 209.092 219.319 171.686 221.189C171.686 221.189 158.594 195.379 151.486 192.012C144.378 188.646 116.697 197.249 116.697 197.249Z" fill="white"/>
</mask>
<g mask="url(#mask6_208_1458)">
<path d="M100.903 249.388C110.761 255.081 121.348 259.106 132.501 261.395C132.853 261.468 133.004 260.927 132.65 260.854C121.546 258.575 111.003 254.573 101.186 248.903C100.873 248.723 100.59 249.207 100.903 249.388Z" fill="#AA353B"/>
</g>
<mask id="mask7_208_1458" style="mask-type:luminance" maskUnits="userSpaceOnUse" x="31" y="191" width="210" height="74">
<path d="M116.697 197.249C116.697 197.249 102.483 218.946 101.734 222.312C101.734 222.312 53.4791 224.931 42.2574 229.793C31.0358 234.657 26.9204 249.245 36.6462 256.726C46.372 264.207 111.086 266.826 129.042 260.467C129.042 260.467 221.811 272.811 237.522 254.855C253.233 236.9 209.092 219.319 171.686 221.189C171.686 221.189 158.594 195.379 151.486 192.012C144.378 188.646 116.697 197.249 116.697 197.249Z" fill="white"/>
</mask>
<g mask="url(#mask7_208_1458)">
<path d="M81.6443 237.68C75.783 236.234 69.9469 235.056 64.0587 237.001C63.7171 237.113 63.8638 237.656 64.2078 237.542C70.0037 235.628 75.7372 236.8 81.4952 238.221C81.8455 238.308 81.9954 237.767 81.6443 237.68Z" fill="#AA353B"/>
</g>
<mask id="mask8_208_1458" style="mask-type:luminance" maskUnits="userSpaceOnUse" x="31" y="191" width="210" height="74">
<path d="M116.697 197.249C116.697 197.249 102.483 218.946 101.734 222.312C101.734 222.312 53.4791 224.931 42.2574 229.793C31.0358 234.657 26.9204 249.245 36.6462 256.726C46.372 264.207 111.086 266.826 129.042 260.467C129.042 260.467 221.811 272.811 237.522 254.855C253.233 236.9 209.092 219.319 171.686 221.189C171.686 221.189 158.594 195.379 151.486 192.012C144.378 188.646 116.697 197.249 116.697 197.249Z" fill="white"/>
</mask>
<g mask="url(#mask8_208_1458)">
<g opacity="0.49">
<path d="M126.352 243.122C124.267 240.105 122.182 237.089 120.097 234.072L126.352 243.122Z" fill="#D25A5C"/>
</g>
</g>
<mask id="mask9_208_1458" style="mask-type:luminance" maskUnits="userSpaceOnUse" x="31" y="191" width="210" height="74">
<path d="M116.697 197.249C116.697 197.249 102.483 218.946 101.734 222.312C101.734 222.312 53.4791 224.931 42.2574 229.793C31.0358 234.657 26.9204 249.245 36.6462 256.726C46.372 264.207 111.086 266.826 129.042 260.467C129.042 260.467 221.811 272.811 237.522 254.855C253.233 236.9 209.092 219.319 171.686 221.189C171.686 221.189 158.594 195.379 151.486 192.012C144.378 188.646 116.697 197.249 116.697 197.249Z" fill="white"/>
</mask>
<g mask="url(#mask9_208_1458)">
<path d="M174.865 219.974C169.777 220.292 164.641 221.966 160.146 224.336C159.827 224.505 160.11 224.989 160.43 224.82C164.818 222.506 169.893 220.845 174.865 220.535C175.223 220.513 175.225 219.952 174.865 219.974Z" fill="#AA353B"/>
</g>
<mask id="mask10_208_1458" style="mask-type:luminance" maskUnits="userSpaceOnUse" x="31" y="191" width="210" height="74">
<path d="M116.697 197.249C116.697 197.249 102.483 218.946 101.734 222.312C101.734 222.312 53.4791 224.931 42.2574 229.793C31.0358 234.657 26.9204 249.245 36.6462 256.726C46.372 264.207 111.086 266.826 129.042 260.467C129.042 260.467 221.811 272.811 237.522 254.855C253.233 236.9 209.092 219.319 171.686 221.189C171.686 221.189 158.594 195.379 151.486 192.012C144.378 188.646 116.697 197.249 116.697 197.249Z" fill="white"/>
</mask>
<g mask="url(#mask10_208_1458)">
<path d="M99.8634 222.24C103.907 222.459 107.521 224.086 110.373 226.955C110.628 227.212 111.025 226.815 110.77 226.558C107.819 223.59 104.042 221.905 99.8634 221.679C99.5021 221.659 99.5037 222.22 99.8634 222.24Z" fill="#AA353B"/>
</g>
<mask id="mask11_208_1458" style="mask-type:luminance" maskUnits="userSpaceOnUse" x="31" y="191" width="210" height="74">
<path d="M116.697 197.249C116.697 197.249 102.483 218.946 101.734 222.312C101.734 222.312 53.4791 224.931 42.2574 229.793C31.0358 234.657 26.9204 249.245 36.6462 256.726C46.372 264.207 111.086 266.826 129.042 260.467C129.042 260.467 221.811 272.811 237.522 254.855C253.233 236.9 209.092 219.319 171.686 221.189C171.686 221.189 158.594 195.379 151.486 192.012C144.378 188.646 116.697 197.249 116.697 197.249Z" fill="white"/>
</mask>
<g mask="url(#mask11_208_1458)">
<path d="M168.211 237.285C163.392 239.73 158.628 241.523 153.169 241.671C152.808 241.68 152.807 242.242 153.169 242.232C158.698 242.083 163.61 240.247 168.494 237.77C168.816 237.607 168.532 237.122 168.211 237.285Z" fill="#AA353B"/>
</g>
<path d="M100.491 124.015C100.525 124.762 98.9018 130.081 97.3064 144.011C95.7111 157.942 87.617 177.044 87.7219 179.286C87.8268 181.527 82.6827 183.641 78.636 193.192C74.5885 202.743 65.9184 209.514 63.7637 211.487C63.7637 211.487 59.2097 210.202 54.3701 210.803C49.5297 211.404 44.9764 210.119 44.1591 208.66C44.1591 208.66 42.0044 210.633 43.9602 212.414C45.9161 214.194 50.3297 212.49 51.5558 214.68C52.7818 216.869 49.9494 220.372 47.2818 219.373C44.6135 218.374 43.7788 216.542 43.3527 215.438C42.9267 214.334 44.5851 209.763 41.1696 208.799C41.1696 208.799 40.1502 215.026 40.5936 216.503C40.5936 216.503 35.8653 211.481 33.3547 213.846C33.3547 213.846 38.031 217.746 38.4571 218.849C38.4571 218.849 34.6329 217.155 33.6167 219.451C33.6167 219.451 37.0843 221.535 38.5967 221.839C40.1092 222.143 41.2477 222.464 42.047 223.55C42.047 223.55 37.9016 222.995 37.6334 225.254C37.6334 225.254 41.744 225.062 43.647 225.722C45.55 226.382 52.6848 226.798 55.2308 225.18C57.7769 223.563 92.8266 204.323 100.6 186.36C100.6 186.36 109.968 154.465 109.992 146.975" fill="#F4A082"/>
<mask id="mask12_208_1458" style="mask-type:luminance" maskUnits="userSpaceOnUse" x="33" y="124" width="77" height="103">
<path d="M100.491 124.015C100.525 124.762 98.9018 130.081 97.3064 144.011C95.7111 157.942 87.617 177.044 87.7219 179.286C87.8268 181.527 82.6827 183.641 78.636 193.192C74.5885 202.743 65.9184 209.514 63.7637 211.487C63.7637 211.487 59.2097 210.202 54.3701 210.803C49.5297 211.404 44.9764 210.119 44.1591 208.66C44.1591 208.66 42.0044 210.633 43.9602 212.414C45.9161 214.194 50.3297 212.49 51.5558 214.68C52.7818 216.869 49.9494 220.372 47.2818 219.373C44.6135 218.374 43.7788 216.542 43.3527 215.438C42.9267 214.334 44.5851 209.763 41.1696 208.799C41.1696 208.799 40.1502 215.026 40.5936 216.503C40.5936 216.503 35.8653 211.481 33.3547 213.846C33.3547 213.846 38.031 217.746 38.4571 218.849C38.4571 218.849 34.6329 217.155 33.6167 219.451C33.6167 219.451 37.0843 221.535 38.5967 221.839C40.1092 222.143 41.2477 222.464 42.047 223.55C42.047 223.55 37.9016 222.995 37.6334 225.254C37.6334 225.254 41.744 225.062 43.647 225.722C45.55 226.382 52.6848 226.798 55.2308 225.18C57.7769 223.563 92.8266 204.323 100.6 186.36C100.6 186.36 109.968 154.465 109.992 146.975" fill="white"/>
</mask>
<g mask="url(#mask12_208_1458)">
<path opacity="0.21" d="M93.5044 161.339C93.5044 161.339 101.359 177.424 111.46 183.783C121.56 190.142 106.597 149.743 93.5044 161.339Z" fill="#D18161"/>
</g>
<path d="M175.052 125.428C175.012 126.176 175.971 128.385 177.465 142.327C178.958 156.268 186.913 175.429 186.791 177.671C186.67 179.912 191.798 182.062 195.775 191.643C199.753 201.223 208.374 208.058 210.513 210.047C210.513 210.047 215.077 208.796 219.912 209.432C224.747 210.068 229.31 208.817 230.139 207.363C230.139 207.363 232.279 209.352 230.31 211.119C228.341 212.885 223.94 211.149 222.698 213.33C221.456 215.51 224.262 219.033 226.938 218.054C229.613 217.075 230.461 215.248 230.895 214.147C231.329 213.046 229.704 208.463 233.126 207.524C233.126 207.524 234.1 213.758 233.646 215.232C233.646 215.232 238.412 210.245 240.905 212.627C240.905 212.627 236.2 216.493 235.766 217.594C235.766 217.594 239.602 215.929 240.602 218.23C240.602 218.23 237.119 220.289 235.605 220.582C234.091 220.875 232.95 221.188 232.142 222.268C232.142 222.268 236.291 221.743 236.544 224.005C236.544 224.005 232.435 223.782 230.527 224.428C228.619 225.074 221.481 225.437 218.948 223.802C216.413 222.166 181.505 202.671 173.864 184.651C173.864 184.651 164.729 152.689 164.76 145.199" fill="#F4A082"/>
<mask id="mask13_208_1458" style="mask-type:luminance" maskUnits="userSpaceOnUse" x="164" y="125" width="77" height="100">
<path d="M175.052 125.428C175.012 126.176 175.971 128.385 177.465 142.327C178.958 156.268 186.913 175.429 186.791 177.671C186.67 179.912 191.798 182.062 195.775 191.643C199.753 201.223 208.374 208.058 210.513 210.047C210.513 210.047 215.077 208.796 219.912 209.432C224.747 210.068 229.31 208.817 230.139 207.363C230.139 207.363 232.279 209.352 230.31 211.119C228.341 212.885 223.94 211.149 222.698 213.33C221.456 215.51 224.262 219.033 226.938 218.054C229.613 217.075 230.461 215.248 230.895 214.147C231.329 213.046 229.704 208.463 233.126 207.524C233.126 207.524 234.1 213.758 233.646 215.232C233.646 215.232 238.412 210.245 240.905 212.627C240.905 212.627 236.2 216.493 235.766 217.594C235.766 217.594 239.602 215.929 240.602 218.23C240.602 218.23 237.119 220.289 235.605 220.582C234.091 220.875 232.95 221.188 232.142 222.268C232.142 222.268 236.291 221.743 236.544 224.005C236.544 224.005 232.435 223.782 230.527 224.428C228.619 225.074 221.481 225.437 218.948 223.802C216.413 222.166 181.505 202.671 173.864 184.651C173.864 184.651 164.729 152.689 164.76 145.199" fill="white"/>
</mask>
<g mask="url(#mask13_208_1458)">
<path opacity="0.21" d="M173.929 191.265C173.929 191.265 181.036 179.295 187.396 177.799C193.755 176.302 170.563 162.836 173.929 191.265Z" fill="#D18161"/>
</g>
<path d="M115.948 198.746L108.841 147.873L99.9424 126.886C99.9652 126.873 98.2058 121.569 118.193 111.962C138.4 102.25 173.929 113.833 175.232 126.625C176.668 140.723 166.448 145.255 166.448 145.255L158.593 198.747C158.593 198.746 140.263 208.098 115.948 198.746Z" fill="#F4A082"/>
<mask id="mask14_208_1458" style="mask-type:luminance" maskUnits="userSpaceOnUse" x="99" y="108" width="77" height="95">
<path d="M115.948 198.746L108.841 147.873L99.9424 126.886C99.9652 126.873 98.2058 121.569 118.193 111.962C138.4 102.25 173.929 113.833 175.232 126.625C176.668 140.723 166.448 145.255 166.448 145.255L158.593 198.747C158.593 198.746 140.263 208.098 115.948 198.746Z" fill="white"/>
</mask>
<g mask="url(#mask14_208_1458)">
<path opacity="0.21" d="M111.46 183.783C111.356 184.613 145.948 207.699 162.558 194.993C179.166 182.287 114.827 156.85 111.46 183.783Z" fill="#D18161"/>
</g>
<path d="M120.321 111.908C119.7 113.775 130.86 100.342 129.806 80.914H142.431C142.431 80.914 142.446 105.096 155.225 112.644C155.225 112.644 135.115 131.307 120.321 111.908Z" fill="#F4A082"/>
<mask id="mask15_208_1458" style="mask-type:luminance" maskUnits="userSpaceOnUse" x="120" y="80" width="36" height="41">
<path d="M120.321 111.908C119.7 113.775 130.86 100.342 129.806 80.914H142.431C142.431 80.914 142.446 105.096 155.225 112.644C155.225 112.644 135.115 131.307 120.321 111.908Z" fill="white"/>
</mask>
<g mask="url(#mask15_208_1458)">
<path opacity="0.34" d="M135.962 103.733C142.263 103.733 147.371 99.6297 147.371 94.5681C147.371 89.5066 142.263 85.4033 135.962 85.4033C129.66 85.4033 124.552 89.5066 124.552 94.5681C124.552 99.6297 129.66 103.733 135.962 103.733Z" fill="#D18161"/>
</g>
<path d="M105.475 242.138C105.475 242.138 103.979 238.023 102.482 233.534C100.986 229.045 94.6271 228.671 89.7638 231.289C84.9013 233.908 74.8007 227.923 71.0602 227.549C67.3196 227.175 62.0824 227.549 63.2051 230.541C64.5187 234.044 69.1903 230.915 71.0602 233.16C72.9301 235.405 94.6263 249.619 100.985 249.619C100.985 249.619 105.475 248.497 105.475 242.138Z" fill="#F4A082"/>
<path d="M168.817 236.712C168.817 236.712 170.703 232.761 172.625 228.436C174.547 224.113 180.912 224.353 185.5 227.427C190.088 230.502 200.717 225.517 204.477 225.505C208.236 225.493 213.413 226.37 212.008 229.24C210.363 232.6 206.014 229.036 203.936 231.09C201.858 233.143 178.894 245.203 172.565 244.59C172.565 244.59 168.204 243.041 168.817 236.712Z" fill="#F4A082"/>
<path d="M102.045 122.481C102.497 122.505 164.655 145.385 176.399 133.537C176.399 133.537 178.75 152.528 181.41 159.843C184.403 168.073 187.395 177.425 187.395 177.799C187.395 177.799 183.281 177.051 170.562 189.769C153.37 206.962 116.105 191.354 93.3953 161.197C93.3961 161.197 95.9973 122.152 102.045 122.481Z" fill="#FFD2B9"/>
<mask id="mask16_208_1458" style="mask-type:luminance" maskUnits="userSpaceOnUse" x="93" y="122" width="95" height="75">
<path d="M102.045 122.481C102.497 122.505 164.655 145.385 176.399 133.537C176.399 133.537 178.75 152.528 181.41 159.843C184.403 168.073 187.395 177.425 187.395 177.799C187.395 177.799 183.281 177.051 170.562 189.769C153.37 206.962 116.105 191.354 93.3953 161.197C93.3961 161.197 95.9973 122.152 102.045 122.481Z" fill="white"/>
</mask>
<g mask="url(#mask16_208_1458)">
<path d="M90.1904 140.62C97.3717 137.122 106.858 142.603 114.102 139.216C114.908 138.839 115.677 138.353 116.563 138.183C117.36 138.03 118.185 138.145 118.989 138.261C126.783 139.385 134.575 140.508 142.369 141.632C144.458 141.933 146.558 142.235 148.673 142.243C151.448 142.254 154.302 141.767 156.948 142.536C158.204 142.901 159.349 143.535 160.583 143.957C163.819 145.063 167.404 144.647 170.824 144.216C175.481 143.63 180.137 143.043 184.793 142.457C186.12 142.29 187.982 142.489 188.083 143.718C188.192 145.039 186.172 145.395 184.732 145.392C180.433 145.381 176.246 146.587 171.972 147.015C168.897 147.323 165.792 147.226 162.701 147.12C147.843 146.613 132.993 145.917 118.156 145.036C115.293 144.866 112.423 144.688 109.597 144.232C108.593 144.07 107.557 143.874 106.569 144.1C105.745 144.287 105.027 144.753 104.219 144.992C101.094 145.915 97.9414 143.267 94.6663 143.463C93.2225 143.55 91.8346 144.192 90.394 144.074C88.9525 143.957 87.5292 142.414 88.4176 141.363" fill="#FCEBE6"/>
</g>
<mask id="mask17_208_1458" style="mask-type:luminance" maskUnits="userSpaceOnUse" x="93" y="122" width="95" height="75">
<path d="M102.045 122.481C102.497 122.505 164.655 145.385 176.399 133.537C176.399 133.537 178.75 152.528 181.41 159.843C184.403 168.073 187.395 177.425 187.395 177.799C187.395 177.799 183.281 177.051 170.562 189.769C153.37 206.962 116.105 191.354 93.3953 161.197C93.3961 161.197 95.9973 122.152 102.045 122.481Z" fill="white"/>
</mask>
<g mask="url(#mask17_208_1458)">
<path d="M87.4686 152.423C87.7929 150.821 90.1046 150.257 91.7914 150.748C93.4791 151.24 94.8519 152.389 96.4954 152.994C101.546 154.853 107.046 151.155 112.479 151.398C116.154 151.562 119.643 153.537 123.295 153.123C124.372 153.001 125.412 152.672 126.488 152.543C128.762 152.27 131.033 152.899 133.264 153.388C140.622 155 148.255 155.128 155.818 155.249C160.445 155.323 165.071 155.396 169.698 155.47C173.872 155.537 178.115 155.596 182.138 154.569C183.692 154.173 185.23 153.612 186.842 153.593C188.455 153.574 190.221 154.265 190.796 155.652C186.146 156.263 181.496 156.873 176.845 157.485C174.582 157.782 172.314 158.08 170.03 158.151C166.548 158.26 163.075 157.843 159.595 157.696C148.796 157.241 137.896 159.385 127.218 157.83C124.41 157.422 121.605 156.756 118.768 156.936C116.326 157.089 113.941 157.868 111.495 157.794C109.669 157.739 107.906 157.21 106.143 156.772C99.9692 155.239 93.4838 154.774 87.1262 155.407C86.353 154.277 85.5806 153.148 84.8074 152.018C85.7455 151.978 86.6836 151.94 87.6209 151.9" fill="#FCEBE6"/>
</g>
<mask id="mask18_208_1458" style="mask-type:luminance" maskUnits="userSpaceOnUse" x="93" y="122" width="95" height="75">
<path d="M102.045 122.481C102.497 122.505 164.655 145.385 176.399 133.537C176.399 133.537 178.75 152.528 181.41 159.843C184.403 168.073 187.395 177.425 187.395 177.799C187.395 177.799 183.281 177.051 170.562 189.769C153.37 206.962 116.105 191.354 93.3953 161.197C93.3961 161.197 95.9973 122.152 102.045 122.481Z" fill="white"/>
</mask>
<g mask="url(#mask18_208_1458)">
<path d="M87.5059 164.549C90.7928 162.563 95.148 163.045 98.9051 164.114C102.662 165.184 106.348 166.777 110.281 166.801C113.964 166.823 117.509 165.454 121.189 165.281C127.038 165.004 132.786 167.757 138.581 166.981C141.028 166.653 143.356 165.703 145.821 165.532C147.646 165.405 149.471 165.71 151.271 166.013C154.883 166.621 158.495 167.229 162.107 167.838C163.22 168.025 164.346 168.213 165.475 168.145C166.941 168.055 168.329 167.54 169.705 167.068C173.167 165.882 176.727 164.937 180.345 164.243C182.297 163.869 184.43 163.589 186.2 164.433C186.881 164.758 187.482 165.24 188.216 165.442C189.652 165.835 191.121 165.072 192.58 164.758C194.039 164.444 196.074 165.043 195.999 166.42C191.876 167.775 187.338 167.091 182.965 167.285C178.321 167.49 173.807 168.696 169.224 169.417C162.067 170.543 154.692 170.477 147.56 169.222C145.117 168.792 142.686 168.223 140.2 168.131C137.252 168.023 134.332 168.59 131.406 168.938C124.106 169.806 116.705 169.309 109.363 168.81C105.338 168.536 101.312 168.263 97.2877 167.989C94.172 167.778 91.0381 167.563 88.0061 166.869C87.3583 166.72 86.6585 166.512 86.3011 165.993C85.9437 165.474 86.2435 164.588 86.9118 164.592" fill="#FCEBE6"/>
</g>
<mask id="mask19_208_1458" style="mask-type:luminance" maskUnits="userSpaceOnUse" x="93" y="122" width="95" height="75">
<path d="M102.045 122.481C102.497 122.505 164.655 145.385 176.399 133.537C176.399 133.537 178.75 152.528 181.41 159.843C184.403 168.073 187.395 177.425 187.395 177.799C187.395 177.799 183.281 177.051 170.562 189.769C153.37 206.962 116.105 191.354 93.3953 161.197C93.3961 161.197 95.9973 122.152 102.045 122.481Z" fill="white"/>
</mask>
<g mask="url(#mask19_208_1458)">
<path d="M101.075 177.875C103.882 176.691 107.178 177.12 110.131 177.952C113.085 178.783 115.941 179.997 119.005 180.349C127.716 181.351 136.774 175.31 144.874 178.424C146.292 178.969 147.675 179.796 149.21 179.735C150.366 179.689 151.417 179.141 152.527 178.838C155.693 177.972 159.049 179.14 162.106 180.29C163.239 180.716 164.487 181.149 165.657 180.815C166.526 180.566 167.198 179.929 168.025 179.578C169.886 178.786 172.033 179.571 174.061 179.85C177.067 180.263 180.097 179.519 183.103 179.107C186.109 178.695 189.426 178.681 191.891 180.316C190.063 181.606 187.658 181.945 185.36 182.09C177.712 182.573 169.868 181.407 162.459 183.216C161.279 183.504 160.094 183.869 158.873 183.832C157.537 183.792 156.283 183.273 155.022 182.865C150.245 181.314 145.067 181.274 140.002 181.251C137.912 181.242 135.817 181.232 133.739 181.439C128.921 181.917 124.227 183.549 119.385 183.378C113.537 183.171 108.054 180.349 102.202 180.293C101.355 180.284 100.473 180.329 99.6963 180.019C98.9192 179.708 98.2935 178.898 98.5712 178.162C98.8489 177.425 100.276 177.324 100.456 178.087" fill="#FCEBE6"/>
</g>
<mask id="mask20_208_1458" style="mask-type:luminance" maskUnits="userSpaceOnUse" x="93" y="122" width="95" height="75">
<path d="M102.045 122.481C102.497 122.505 164.655 145.385 176.399 133.537C176.399 133.537 178.75 152.528 181.41 159.843C184.403 168.073 187.395 177.425 187.395 177.799C187.395 177.799 183.281 177.051 170.562 189.769C153.37 206.962 116.105 191.354 93.3953 161.197C93.3961 161.197 95.9973 122.152 102.045 122.481Z" fill="white"/>
</mask>
<g mask="url(#mask20_208_1458)">
<path d="M89.8126 131.836C91.3298 129.25 94.9378 128.288 98.1182 128.549C101.299 128.809 104.289 130.01 107.399 130.678C110.617 131.369 113.98 131.484 117.245 131.013C118.987 130.762 120.745 130.345 122.489 130.585C124.162 130.816 125.666 131.631 127.289 132.067C133.046 133.614 138.894 130.261 144.835 129.508C148.815 129.004 152.848 129.684 156.793 130.386C166.438 132.102 176.289 133.968 186.008 132.659C185.952 134.846 182.849 135.598 180.474 135.672C171.09 135.964 161.684 135.658 152.346 134.759C147.662 134.308 142.963 133.706 138.262 133.962C134.967 134.141 131.691 134.742 128.392 134.622C122.838 134.42 117.532 132.192 111.974 132.107C109.115 132.064 106.287 132.591 103.443 132.872C99.5699 133.257 95.6431 133.186 91.789 132.663C90.9921 132.554 90.1258 132.39 89.6161 131.816C89.1056 131.242 89.3037 130.147 90.1013 130.038" fill="#FCEBE6"/>
</g>
<mask id="mask21_208_1458" style="mask-type:luminance" maskUnits="userSpaceOnUse" x="93" y="122" width="95" height="75">
<path d="M102.045 122.481C102.497 122.505 164.655 145.385 176.399 133.537C176.399 133.537 178.75 152.528 181.41 159.843C184.403 168.073 187.395 177.425 187.395 177.799C187.395 177.799 183.281 177.051 170.562 189.769C153.37 206.962 116.105 191.354 93.3953 161.197C93.3961 161.197 95.9973 122.152 102.045 122.481Z" fill="white"/>
</mask>
<g mask="url(#mask21_208_1458)">
<path d="M121.224 189.469C130.009 189.681 138.839 189.89 147.546 188.796C149.488 188.552 151.432 188.243 153.391 188.282C155.119 188.316 156.826 188.62 158.527 188.905C164.817 189.959 171.158 190.76 177.525 191.305C172.033 193.743 165.607 193.474 159.568 192.696C153.529 191.918 147.447 190.682 141.395 191.364C137.903 191.759 134.472 192.789 130.956 192.671C128.265 192.58 125.605 191.797 123.355 190.433" fill="#FCEBE6"/>
</g>
<path d="M160.74 72.7339C160.74 88.201 143.435 100.74 136.149 100.74C128.863 100.74 111.558 88.2018 111.558 72.7339C111.558 57.2667 122.112 37.8964 135.694 37.8964C149.275 37.8964 160.74 57.2659 160.74 72.7339Z" fill="#F4A082"/>
<mask id="mask22_208_1458" style="mask-type:luminance" maskUnits="userSpaceOnUse" x="111" y="37" width="50" height="64">
<path d="M160.74 72.7339C160.74 88.201 143.435 100.74 136.149 100.74C128.863 100.74 111.558 88.2018 111.558 72.7339C111.558 57.2667 122.112 37.8964 135.694 37.8964C149.275 37.8964 160.74 57.2659 160.74 72.7339Z" fill="white"/>
</mask>
<g mask="url(#mask22_208_1458)">
<path opacity="0.18" d="M135.523 46.1625C135.523 46.1625 144.36 64.8101 158.537 71.5843L140.937 45.6615L130.412 43.4074C130.412 43.4074 114.814 66.7573 117.07 73.8077C117.07 73.8077 129.996 48.7725 138.27 46.2746C146.546 43.7758 133.791 42.5924 133.791 42.5924" fill="#A05940"/>
</g>
<path d="M135.774 46.8742C135.774 46.8742 123.056 55.1041 117.07 73.8069C117.07 73.8069 113.704 82.036 115.948 86.5253C118.193 91.0138 126.796 96.999 124.926 102.61C124.926 102.61 125.3 112.336 116.696 119.069C116.696 119.069 124.926 115.703 132.033 128.795C132.033 128.795 146.996 120.94 157.844 134.78C157.844 134.78 165.699 125.802 173.555 137.399C173.555 137.399 180.662 132.536 184.403 141.887C184.403 141.887 190.014 137.399 188.143 149.742C188.143 149.742 194.503 154.98 186.648 159.842C186.648 159.842 187.77 162.461 183.281 165.079L181.036 158.72C181.036 158.72 182.158 157.598 184.777 157.598C184.777 157.598 182.532 152.361 186.273 149.743C186.273 149.743 180.288 148.247 180.288 141.888C180.288 141.888 173.554 146.377 169.065 138.522C169.065 138.522 158.217 147.499 149.614 135.529C149.614 135.529 132.407 147.125 124.551 131.788C124.551 131.788 103.229 141.514 102.107 122.437C102.107 122.437 90.8849 107.1 105.099 98.1225C105.099 98.1225 92.0455 80.8572 99.8619 65.5786C108.091 49.4936 115.947 25.5535 133.903 35.6533C133.903 35.6533 165.325 21.813 160.835 73.4345C160.837 73.4329 145.126 61.4633 135.774 46.8742Z" fill="#1D3542"/>
<mask id="mask23_208_1458" style="mask-type:luminance" maskUnits="userSpaceOnUse" x="97" y="33" width="94" height="133">
<path d="M135.774 46.8742C135.774 46.8742 123.056 55.1041 117.07 73.8069C117.07 73.8069 113.704 82.036 115.948 86.5253C118.193 91.0138 126.796 96.999 124.926 102.61C124.926 102.61 125.3 112.336 116.696 119.069C116.696 119.069 124.926 115.703 132.033 128.795C132.033 128.795 146.996 120.94 157.844 134.78C157.844 134.78 165.699 125.802 173.555 137.399C173.555 137.399 180.662 132.536 184.403 141.887C184.403 141.887 190.014 137.399 188.143 149.742C188.143 149.742 194.503 154.98 186.648 159.842C186.648 159.842 187.77 162.461 183.281 165.079L181.036 158.72C181.036 158.72 182.158 157.598 184.777 157.598C184.777 157.598 182.532 152.361 186.273 149.743C186.273 149.743 180.288 148.247 180.288 141.888C180.288 141.888 173.554 146.377 169.065 138.522C169.065 138.522 158.217 147.499 149.614 135.529C149.614 135.529 132.407 147.125 124.551 131.788C124.551 131.788 103.229 141.514 102.107 122.437C102.107 122.437 90.8849 107.1 105.099 98.1225C105.099 98.1225 92.0455 80.8572 99.8619 65.5786C108.091 49.4936 115.947 25.5535 133.903 35.6533C133.903 35.6533 165.325 21.813 160.835 73.4345C160.837 73.4329 145.126 61.4633 135.774 46.8742Z" fill="white"/>
</mask>
<g mask="url(#mask23_208_1458)">
<path opacity="0.22" d="M115.948 86.5253C115.948 86.5253 123.055 104.481 136.148 103.732C149.24 102.984 158.454 86.2783 159.271 77.7983C160.089 69.3184 114.452 77.1735 115.948 86.5253Z" fill="#1D3542"/>
</g>
<path d="M117.372 75.0077C118.086 77.9143 117.099 80.6552 115.17 81.1286C113.24 81.602 111.098 79.6296 110.384 76.7222C109.671 73.8156 110.657 71.0746 112.587 70.6013C114.517 70.1287 116.659 72.1011 117.372 75.0077Z" fill="#F4A082"/>
<path d="M158.291 72.3899C157.577 75.2965 158.564 78.0374 160.493 78.5108C162.423 78.9842 164.565 77.0117 165.279 74.1043C165.992 71.1977 165.006 68.4568 163.076 67.9834C161.147 67.51 159.004 69.4825 158.291 72.3899Z" fill="#F4A082"/>
<path d="M95.375 158.347C87.5199 155.728 84.1525 165.08 84.1525 165.08C78.5413 162.836 77.0454 169.943 77.0454 169.943C72.1829 174.057 77.0454 179.669 77.0454 179.669C77.0454 180.299 77.1085 180.873 77.215 181.406L81.429 179.215C80.3717 179.195 79.664 179.295 79.664 179.295C81.5347 175.554 78.5421 171.439 78.5421 171.439C84.1533 171.813 86.0232 166.951 86.0232 166.951C106.223 174.432 111.46 151.24 111.46 151.24C111.46 151.24 103.23 160.965 95.375 158.347Z" fill="#1D3542"/>
<path d="M121.667 74.3576C123.306 74.7529 124.912 74.932 126.522 74.8128C128.133 74.7079 129.698 74.3102 131.269 73.6948C130 74.8286 128.286 75.4353 126.574 75.5592C124.861 75.6697 123.08 75.3051 121.667 74.3576Z" fill="#2E2430"/>
<path d="M132.786 91.5321C135.072 92.456 137.546 92.2675 139.679 91.0406C140.04 90.8331 139.714 90.2729 139.352 90.4812C137.351 91.6316 135.094 91.7704 132.958 90.9073C132.571 90.7518 132.403 91.3783 132.786 91.5321Z" fill="#A34F31"/>
<path d="M132.872 85.2353C133.492 85.2534 134.048 85.2881 134.598 85.2921C135.146 85.3 135.678 85.2858 136.21 85.2487C136.742 85.2108 137.271 85.1516 137.813 85.0688C138.356 84.9883 138.903 84.8787 139.515 84.7769C139.146 85.2795 138.633 85.6471 138.077 85.9114C137.518 86.1734 136.906 86.3272 136.288 86.3683C135.67 86.4101 135.043 86.3422 134.454 86.16C133.865 85.9738 133.308 85.6803 132.872 85.2353Z" fill="#A34F31"/>
<path d="M141.884 74.4199C143.523 74.8152 145.129 74.9951 146.739 74.8752C148.35 74.7702 149.915 74.3726 151.486 73.7564C150.217 74.8902 148.503 75.4969 146.79 75.6208C145.078 75.7312 143.297 75.3667 141.884 74.4199Z" fill="#2E2430"/>
<path d="M121.549 70.6888C123.753 68.153 126.986 67.0019 130.293 67.6473C130.86 67.7578 131.102 66.8891 130.533 66.7786C126.926 66.0741 123.33 67.2717 120.912 70.0521C120.533 70.4876 121.168 71.1275 121.549 70.6888Z" fill="#1D3542"/>
<path d="M151.759 69.671C149.341 66.8899 145.746 65.693 142.139 66.3976C141.57 66.5088 141.81 67.3775 142.379 67.2662C145.685 66.6208 148.918 67.772 151.123 70.3077C151.503 70.7472 152.138 70.1074 151.759 69.671Z" fill="#1D3542"/>
<path d="M136.508 45.6055C137.008 47.9472 137.935 50.3331 139.073 52.5359C140.219 54.7506 141.594 56.8658 143.235 58.7657C144.872 60.6624 146.673 62.4503 148.723 63.9257C149.703 64.728 150.803 65.3553 151.868 66.0393C152.947 66.7021 154.107 67.2212 155.226 67.8216C154.082 67.2788 152.892 66.8141 151.777 66.2019C150.675 65.5683 149.534 64.9892 148.506 64.2294C146.361 62.8392 144.443 61.1169 142.676 59.2612C140.904 57.4016 139.384 55.3021 138.088 53.0732C136.795 50.827 135.73 48.4948 135.04 45.8982L136.508 45.6055Z" fill="#1D3542"/>
<path d="M137.026 43.9826C136.508 45.1724 136.126 46.5452 135.89 47.8896C135.655 49.2483 135.578 50.6369 135.674 52.0192C135.751 53.4054 136.054 54.779 136.545 56.0879C136.994 57.4237 137.766 58.6182 138.579 59.7796C137.671 58.6987 136.779 57.5562 136.201 56.2339C135.58 54.9392 135.138 53.5411 134.93 52.1044C134.703 50.6708 134.655 49.2033 134.776 47.7484C134.908 46.2833 135.156 44.8694 135.644 43.4066L137.026 43.9826Z" fill="#1D3542"/>
<path d="M138.272 45.4217C137.625 45.8391 136.949 46.3819 136.336 46.9365C135.714 47.4967 135.126 48.1019 134.58 48.7457C134.031 49.3871 133.52 50.0672 133.067 50.7876C132.596 51.5 132.213 52.2653 131.846 53.0456C132.095 52.2235 132.368 51.3974 132.738 50.61C133.09 49.814 133.509 49.0447 133.977 48.303C134.442 47.5582 134.959 46.8434 135.523 46.1618C136.095 45.4746 136.675 44.8386 137.391 44.2106L138.272 45.4217Z" fill="#1D3542"/>
<path opacity="0.56" d="M258.72 294.395C258.72 296.386 206.536 298 142.164 298C77.7917 298 25.6077 296.386 25.6077 294.395C25.6077 292.405 77.7917 290.79 142.164 290.79C206.536 290.79 258.72 292.404 258.72 294.395Z" fill="#A7D3DF"/>
</svg>
