<svg width="307" height="312" viewBox="0 0 307 312" fill="none" xmlns="http://www.w3.org/2000/svg">
<g opacity="0.5">
<path d="M145.649 140.075C134.062 140.075 123.17 135.563 114.976 127.37C106.783 119.177 102.271 108.284 102.271 96.6971C102.271 85.1102 106.784 74.2173 114.976 66.0241C123.17 57.8309 134.062 53.319 145.649 53.319C157.236 53.319 168.129 57.8309 176.322 66.0241C184.516 74.2173 189.027 85.1102 189.027 96.6971C189.027 108.284 184.515 119.177 176.322 127.37C168.129 135.563 157.236 140.075 145.649 140.075ZM145.649 54.4053C122.329 54.4053 103.357 73.3772 103.357 96.6971C103.357 120.017 122.329 138.989 145.649 138.989C168.969 138.989 187.941 120.017 187.941 96.6971C187.941 73.3772 168.969 54.4053 145.649 54.4053Z" fill="#C1A084"/>
</g>
<g opacity="0.5">
<path d="M287.741 131.475C284.569 131.475 281.988 128.895 281.988 125.722C281.988 122.55 284.569 119.969 287.741 119.969C290.913 119.969 293.494 122.55 293.494 125.722C293.494 128.894 290.914 131.475 287.741 131.475ZM287.741 121.055C285.168 121.055 283.075 123.148 283.075 125.722C283.075 128.295 285.168 130.389 287.741 130.389C290.314 130.389 292.408 128.295 292.408 125.722C292.408 123.149 290.315 121.055 287.741 121.055Z" fill="#C1A084"/>
</g>
<g opacity="0.5">
<path d="M81.4056 75.7277C78.2336 75.7277 75.6526 73.1474 75.6526 69.9746C75.6526 66.8026 78.2336 64.2216 81.4056 64.2216C84.5776 64.2216 87.1587 66.8026 87.1587 69.9746C87.1579 73.1474 84.5776 75.7277 81.4056 75.7277ZM81.4056 65.3086C78.8327 65.3086 76.7388 67.4017 76.7388 69.9754C76.7388 72.5483 78.832 74.6422 81.4056 74.6422C83.9785 74.6422 86.0724 72.549 86.0724 69.9754C86.0717 67.4017 83.9785 65.3086 81.4056 65.3086Z" fill="#C1A084"/>
</g>
<g opacity="0.5">
<path d="M48.25 82.3326H32.4323C32.083 82.3326 31.7998 82.0494 31.7998 81.7001V75.2746C31.7998 74.9253 32.083 74.6421 32.4323 74.6421H48.25C48.5992 74.6421 48.8825 74.9253 48.8825 75.2746V81.7001C48.8825 82.0494 48.5992 82.3326 48.25 82.3326Z" fill="#D8BA9A"/>
<path d="M66.5161 82.3326H50.6984C50.3492 82.3326 50.0659 82.0494 50.0659 81.7001V75.2746C50.0659 74.9253 50.3492 74.6421 50.6984 74.6421H66.5161C66.8654 74.6421 67.1486 74.9253 67.1486 75.2746V81.7001C67.1493 82.0494 66.8661 82.3326 66.5161 82.3326Z" fill="#D8BA9A"/>
<path d="M57.3027 90.9114H41.485C41.1358 90.9114 40.8525 90.6282 40.8525 90.2789V83.8534C40.8525 83.5041 41.1358 83.2209 41.485 83.2209H57.3027C57.652 83.2209 57.9352 83.5041 57.9352 83.8534V90.2797C57.936 90.6281 57.6527 90.9114 57.3027 90.9114Z" fill="#D8BA9A"/>
</g>
<g opacity="0.5">
<path d="M280.685 96.9299H264.866C264.517 96.9299 264.234 96.6467 264.234 96.2974V89.8719C264.234 89.5226 264.517 89.2394 264.866 89.2394H280.684C281.033 89.2394 281.317 89.5226 281.317 89.8719V96.2974C281.317 96.6467 281.034 96.9299 280.685 96.9299Z" fill="#D8BA9A"/>
<path d="M298.951 96.9299H283.133C282.784 96.9299 282.501 96.6467 282.501 96.2974V89.8719C282.501 89.5226 282.784 89.2394 283.133 89.2394H298.951C299.3 89.2394 299.583 89.5226 299.583 89.8719V96.2974C299.583 96.6467 299.3 96.9299 298.951 96.9299Z" fill="#D8BA9A"/>
<path d="M289.737 105.508H273.92C273.57 105.508 273.287 105.225 273.287 104.875V98.4499C273.287 98.1006 273.57 97.8174 273.92 97.8174H289.737C290.087 97.8174 290.37 98.1006 290.37 98.4499V104.875C290.37 105.225 290.087 105.508 289.737 105.508Z" fill="#D8BA9A"/>
</g>
<path d="M49.3943 54.6388C39.7723 54.6388 31.9446 46.8104 31.9446 37.1891C31.9446 27.5671 39.773 19.7394 49.3943 19.7394C59.0163 19.7394 66.844 27.5678 66.844 37.1891C66.844 46.8111 59.0163 54.6388 49.3943 54.6388ZM49.3943 20.4319C40.1541 20.4319 32.6371 27.9489 32.6371 37.1891C32.6371 46.4293 40.1549 53.9463 49.3943 53.9463C58.6337 53.9463 66.1515 46.4293 66.1515 37.1891C66.1515 27.9489 58.6345 20.4319 49.3943 20.4319Z" fill="#D8BA9A"/>
<g opacity="0.3">
<path d="M49.3942 51.0071C57.0256 51.0071 63.2122 44.8206 63.2122 37.1891C63.2122 29.5576 57.0256 23.3711 49.3942 23.3711C41.7627 23.3711 35.5762 29.5576 35.5762 37.1891C35.5762 44.8206 41.7627 51.0071 49.3942 51.0071Z" fill="#D8BA9A"/>
</g>
<path d="M49.3942 26.9568C49.2125 26.9568 49.0649 26.8093 49.0649 26.6276V24.6879C49.0649 24.5063 49.2125 24.3587 49.3942 24.3587C49.5758 24.3587 49.7234 24.5063 49.7234 24.6879V26.6276C49.7234 26.8093 49.5758 26.9568 49.3942 26.9568Z" fill="#D8BA9A"/>
<path d="M42.1589 29.9538C42.0306 30.0821 41.8223 30.0821 41.6933 29.9538L40.3215 28.5821C40.1933 28.4538 40.1933 28.2455 40.3215 28.1165C40.4498 27.9882 40.6582 27.9882 40.7872 28.1165L42.1589 29.4882C42.2872 29.6172 42.2872 29.8248 42.1589 29.9538Z" fill="#D8BA9A"/>
<path d="M39.1618 37.1891C39.1618 37.3707 39.0143 37.5183 38.8326 37.5183H36.8929C36.7113 37.5183 36.5637 37.3707 36.5637 37.1891C36.5637 37.0074 36.7113 36.8599 36.8929 36.8599H38.8326C39.0143 36.8599 39.1618 37.0074 39.1618 37.1891Z" fill="#D8BA9A"/>
<path d="M42.1589 44.4243C42.2872 44.5526 42.2872 44.761 42.1589 44.89L40.7872 46.2617C40.6589 46.39 40.4506 46.39 40.3215 46.2617C40.1933 46.1334 40.1933 45.9251 40.3215 45.796L41.6933 44.4243C41.8215 44.2961 42.0299 44.2961 42.1589 44.4243Z" fill="#D8BA9A"/>
<path d="M49.3942 47.4213C49.5758 47.4213 49.7234 47.5689 49.7234 47.7505V49.6902C49.7234 49.8719 49.5758 50.0194 49.3942 50.0194C49.2125 50.0194 49.0649 49.8719 49.0649 49.6902V47.7505C49.0649 47.5689 49.2125 47.4213 49.3942 47.4213Z" fill="#D8BA9A"/>
<path d="M56.6297 44.4243C56.7579 44.2961 56.9663 44.2961 57.0953 44.4243L58.467 45.796C58.5953 45.9243 58.5953 46.1327 58.467 46.2617C58.3387 46.39 58.1304 46.39 58.0014 46.2617L56.6297 44.89C56.5014 44.761 56.5014 44.5526 56.6297 44.4243Z" fill="#D8BA9A"/>
<path d="M59.6265 37.1891C59.6265 37.0074 59.774 36.8599 59.9557 36.8599H61.8954C62.077 36.8599 62.2246 37.0074 62.2246 37.1891C62.2246 37.3707 62.077 37.5183 61.8954 37.5183H59.9557C59.774 37.5183 59.6265 37.3707 59.6265 37.1891Z" fill="#D8BA9A"/>
<path d="M56.6297 29.9538C56.5014 29.8256 56.5014 29.6172 56.6297 29.4882L58.0014 28.1165C58.1296 27.9882 58.338 27.9882 58.467 28.1165C58.5953 28.2447 58.5953 28.4531 58.467 28.5821L57.0953 29.9538C56.9663 30.0821 56.7579 30.0821 56.6297 29.9538Z" fill="#D8BA9A"/>
<path d="M54.3568 42.4038C54.3205 42.4038 54.2849 42.3897 54.2574 42.3623L49.2948 37.2862C49.2414 37.2321 49.2422 37.1453 49.2955 37.0912L54.8847 31.502C54.9389 31.4479 55.0263 31.4479 55.0805 31.502C55.1346 31.5561 55.1346 31.6436 55.0805 31.6978L49.5884 37.1898L54.4554 42.168C54.5088 42.2229 54.5081 42.3104 54.4532 42.3638C54.4272 42.3905 54.3916 42.4038 54.3568 42.4038Z" fill="#D8BA9A"/>
<g opacity="0.5">
<path d="M125.481 34.5777H100.556L104.618 9.37219H129.542L125.481 34.5777Z" fill="#D8BA9A"/>
</g>
<path d="M131.799 9.37219L127.737 34.5777H125.481L129.542 9.37219H131.799Z" fill="#D8BA9A"/>
<path d="M126.788 11.7182L125.081 22.3064L123.482 32.2324H103.31L104.189 26.7759L106.616 11.7182H126.788Z" fill="#FEE8C8"/>
<path d="M115.014 19.5102C114.74 21.5878 112.926 23.2717 110.963 23.2717C108.999 23.2717 107.63 21.5878 107.903 19.5102C108.178 17.4327 109.991 15.7488 111.955 15.7488C113.918 15.7488 115.288 17.4334 115.014 19.5102Z" fill="#D8BA9A"/>
<path d="M130.08 20.0367L134.489 34.5776H132.143L129.102 26.1049L130.08 20.0367Z" fill="#D8BA9A"/>
<path d="M183.433 39.1569H93.2126L90.6545 34.5776H185.598L183.433 39.1569Z" fill="#D8BA9A"/>
<path d="M125.081 22.3064L123.482 32.2324H103.31L104.189 26.7759C105.661 25.1655 108.017 23.7596 111.26 25.3575C117.212 28.2878 118.46 22.8165 123.054 21.9742C123.95 21.8103 124.606 21.9594 125.081 22.3064Z" fill="#D8BA9A"/>
<g opacity="0.5">
<path d="M171.897 28.8149H173.931V27.6812H143.928C142.976 27.6812 142.112 28.066 141.488 28.6918C140.865 29.3147 140.478 30.177 140.478 31.1313C140.478 33.0368 142.021 34.5806 143.927 34.5806H173.93V33.5981H171.897V28.8149H171.897Z" fill="#D8BA9A"/>
</g>
<path d="M172.095 28.8149V33.5967H145.733C144.445 33.5967 143.404 32.5253 143.404 31.2069C143.404 30.5455 143.665 29.9494 144.085 29.5149C144.508 29.0826 145.088 28.8149 145.732 28.8149H172.095Z" fill="#FEE8C8"/>
<path d="M172.095 30.0258V30.7568H146.414C146.214 30.7568 146.049 30.593 146.049 30.392V30.3898C146.049 30.1896 146.214 30.0258 146.414 30.0258H172.095Z" fill="#D8BA9A"/>
<path d="M172.095 31.8253V32.5564H146.414C146.214 32.5564 146.049 32.3925 146.049 32.1916V32.1894C146.049 31.9892 146.214 31.8246 146.414 31.8246L172.095 31.8253Z" fill="#D8BA9A"/>
<path d="M167.329 21.9163H169.363V20.7826H139.359C138.407 20.7826 137.544 21.1674 136.92 21.7932C136.296 22.416 135.909 23.2784 135.909 24.2326C135.909 26.1382 137.453 27.6819 139.359 27.6819H169.362V26.6995H167.328V21.9163H167.329Z" fill="#D8BA9A"/>
<path d="M167.526 21.9163V26.698H141.163C139.876 26.698 138.834 25.6274 138.834 24.3083C138.834 23.6469 139.095 23.0508 139.516 22.6163C139.939 22.184 140.519 21.9163 141.163 21.9163H167.526Z" fill="#FEE8C8"/>
<path d="M167.526 23.1264V23.8575H141.845C141.645 23.8575 141.48 23.6929 141.48 23.4927V23.4905C141.48 23.2903 141.645 23.1264 141.845 23.1264H167.526Z" fill="#D8BA9A"/>
<path d="M167.526 24.9267V25.6578H141.845C141.645 25.6578 141.48 25.4939 141.48 25.293V25.2908C141.48 25.0906 141.645 24.926 141.845 24.926L167.526 24.9267Z" fill="#D8BA9A"/>
<g opacity="0.3">
<path d="M205.97 143.439V4.94783C205.97 3.88605 206.831 3.02594 207.892 3.02594H249.1C250.162 3.02594 251.022 3.88679 251.022 4.94783V143.439C251.022 144.501 250.161 145.361 249.1 145.361H207.892C206.831 145.361 205.97 144.501 205.97 143.439Z" fill="#D8BA9A"/>
</g>
<g opacity="0.5">
<path d="M252.958 0H204.036C203.435 0 202.946 0.488627 202.946 1.09218V147.296C202.946 147.898 203.435 148.386 204.036 148.386H252.958C253.559 148.386 254.048 147.898 254.048 147.296V1.09218C254.048 0.488627 253.559 0 252.958 0ZM251.023 144.866C251.023 145.141 250.801 145.362 250.527 145.362H206.466C206.191 145.362 205.97 145.14 205.97 144.866V3.52049C205.97 3.24763 206.192 3.02593 206.466 3.02593H250.527C250.802 3.02593 251.023 3.24763 251.023 3.52049V144.866Z" fill="#C1A084"/>
</g>
<g opacity="0.5">
<path d="M251.023 99.7163H205.549V101.507H251.023V99.7163Z" fill="#C1A084"/>
</g>
<g opacity="0.5">
<path d="M251.023 40.9261H205.549V42.7167H251.023V40.9261Z" fill="#C1A084"/>
</g>
<path d="M235.088 301.867C235.088 301.867 224.953 288.031 228.586 285.334C232.22 282.637 237.893 299.372 237.893 299.372C237.893 299.372 240.063 291.846 244.012 293.352C248.729 295.149 241.59 301.867 241.59 301.867H235.088V301.867Z" fill="#D8BA9A"/>
<path d="M65.806 300.78C65.806 300.78 58.2171 289.216 61.8503 286.518C65.4835 283.821 68.6103 298.285 68.6103 298.285C68.6103 298.285 70.7798 290.759 74.7296 292.264C79.4468 294.062 72.3072 300.78 72.3072 300.78H65.806Z" fill="#D8BA9A"/>
<path d="M151.551 311.041C234.603 311.041 301.93 308.303 301.93 304.925C301.93 301.548 234.603 298.81 151.551 298.81C68.4985 298.81 1.17139 301.548 1.17139 304.925C1.17139 308.303 68.4985 311.041 151.551 311.041Z" fill="#D8BA9A"/>
<g opacity="0.5">
<path d="M35.9159 268.624C36.1324 266.853 35.9537 263.869 34.318 261.46C31.344 257.079 18.1325 242.207 11.6313 239.583C4.20921 236.588 16.3189 268.231 24.5225 272.788C30.8227 276.287 35.3865 272.954 35.9159 268.624Z" fill="#D8BA9A"/>
</g>
<path d="M42.219 303.702H42.8077C40.2934 289.923 35.135 276.656 27.6513 264.803C25.249 260.998 22.6064 257.35 19.7547 253.871C19.5152 253.578 19.1029 253.995 19.3402 254.285C29.3997 266.558 36.6965 281.029 40.6255 296.402C41.2424 298.815 41.7711 301.251 42.219 303.702Z" fill="#D8BA9A"/>
<g opacity="0.5">
<path d="M30.6544 280.571C29.9715 279.272 28.9119 278.211 27.5491 277.667C23.5036 276.052 6.86138 269.612 1.17136 270.548C-5.32539 271.618 16.9706 289.019 24.6841 288.714C30.6069 288.479 32.5703 284.214 30.6544 280.571Z" fill="#D8BA9A"/>
</g>
<path d="M17.0965 280.268C23.548 283.399 30.4147 285.576 37.4943 286.72C37.8635 286.779 38.0222 286.215 37.65 286.155C30.6216 285.019 23.7979 282.871 17.3923 279.762C17.0542 279.598 16.7569 280.104 17.0965 280.268Z" fill="#D8BA9A"/>
<g opacity="0.5">
<path d="M270.96 268.624C270.743 266.853 270.922 263.869 272.558 261.46C275.532 257.079 288.743 242.207 295.244 239.583C302.666 236.588 290.557 268.231 282.353 272.788C276.054 276.287 271.489 272.954 270.96 268.624Z" fill="#D8BA9A"/>
</g>
<path d="M264.657 303.702H264.068C266.582 289.923 271.741 276.656 279.224 264.803C281.627 260.998 284.269 257.35 287.121 253.871C287.36 253.578 287.773 253.995 287.535 254.285C277.476 266.558 270.179 281.029 266.25 296.402C265.633 298.815 265.104 301.251 264.657 303.702Z" fill="#D8BA9A"/>
<g opacity="0.5">
<path d="M276.221 280.571C276.904 279.272 277.964 278.211 279.326 277.667C283.372 276.052 300.014 269.612 305.704 270.548C312.201 271.618 289.905 289.019 282.191 288.714C276.269 288.479 274.305 284.214 276.221 280.571Z" fill="#D8BA9A"/>
</g>
<path d="M289.779 280.268C283.328 283.399 276.461 285.576 269.381 286.72C269.013 286.779 268.853 286.215 269.226 286.155C276.254 285.019 283.078 282.871 289.483 279.762C289.821 279.598 290.119 280.104 289.779 280.268Z" fill="#D8BA9A"/>
<path d="M202.893 219.902H101.964C97.5073 219.902 94.0647 215.726 94.7098 211.062C95.9821 201.865 100.469 189.189 100.469 189.189L152.429 192.461L204.387 189.189C204.387 189.189 208.874 201.865 210.146 211.062C210.792 215.726 207.348 219.902 202.893 219.902Z" fill="#272B34"/>
<path d="M182.111 134.071H117.324V194.966H182.111V134.071Z" fill="#272B34"/>
<path d="M173.85 219.902C173.85 219.902 167.684 226.897 152.452 226.912H152.404C137.171 226.897 131.006 219.902 131.006 219.902H173.85Z" fill="#272B34"/>
<path d="M174.997 291.889V296.667H171.536V294.508C171.536 293.899 171.042 293.406 170.433 293.406H155.606C155.094 293.406 154.679 293.821 154.679 294.332V296.667H150.653V294.332C150.653 293.821 150.238 293.406 149.726 293.406H135.012C134.404 293.406 133.91 293.899 133.91 294.508V296.667H130.449V291.889C130.449 290.815 131.319 289.944 132.394 289.944H150.653V226.911H154.679V289.944H173.051C174.126 289.944 174.997 290.816 174.997 291.889Z" fill="#272B34"/>
<path d="M153.658 261.349H151.675C150.144 261.349 148.904 260.109 148.904 258.578V234.604H156.429V258.578C156.429 260.109 155.188 261.349 153.658 261.349Z" fill="#63636D"/>
<path d="M137.381 299.758C137.381 302.605 135.073 304.912 132.227 304.912C129.38 304.912 127.072 302.605 127.072 299.758C127.072 296.911 129.38 294.603 132.227 294.603C135.074 294.603 137.381 296.911 137.381 299.758Z" fill="#272B34"/>
<path d="M132.227 302.71C130.599 302.71 129.275 301.386 129.275 299.758C129.275 298.131 130.599 296.807 132.227 296.807C133.854 296.807 135.179 298.131 135.179 299.758C135.179 301.386 133.855 302.71 132.227 302.71Z" fill="#63636D"/>
<path d="M157.878 299.758C157.878 302.605 155.57 304.912 152.723 304.912C149.877 304.912 147.568 302.605 147.568 299.758C147.568 296.911 149.877 294.603 152.723 294.603C155.57 294.603 157.878 296.911 157.878 299.758Z" fill="#272B34"/>
<path d="M152.723 302.71C151.096 302.71 149.771 301.386 149.771 299.758C149.771 298.131 151.096 296.807 152.723 296.807C154.351 296.807 155.675 298.131 155.675 299.758C155.675 301.386 154.351 302.71 152.723 302.71Z" fill="#63636D"/>
<path d="M178.446 299.758C178.446 302.605 176.138 304.912 173.291 304.912C170.444 304.912 168.137 302.605 168.137 299.758C168.137 296.911 170.444 294.603 173.291 294.603C176.138 294.603 178.446 296.911 178.446 299.758Z" fill="#272B34"/>
<path d="M173.291 302.71C171.664 302.71 170.34 301.386 170.34 299.758C170.34 298.131 171.664 296.807 173.291 296.807C174.92 296.807 176.244 298.131 176.244 299.758C176.243 301.386 174.919 302.71 173.291 302.71Z" fill="#63636D"/>
<path d="M172.629 220.476H131.971C131.852 220.476 131.755 220.379 131.755 220.26V220.118C131.755 219.999 131.852 219.902 131.971 219.902H172.629C172.749 219.902 172.845 219.999 172.845 220.118V220.26C172.845 220.379 172.749 220.476 172.629 220.476Z" fill="#63636D"/>
<path d="M145.201 68.0016C145.201 68.0016 134.184 67.0703 132.321 75.1389C130.46 83.2076 139.925 88.7938 130.46 93.2938C120.994 97.7938 117.115 94.535 113.546 103.38C110.812 110.157 116.805 111.139 109.201 116.259C101.598 121.38 109.977 137.828 122.235 134.724C128.951 133.024 129.528 121.845 133.718 127.742C137.907 133.638 146.752 142.793 151.717 136.276C156.682 129.759 157.147 117.035 167.544 121.38C177.94 125.725 182.285 124.483 184.302 121.069C186.319 117.655 181.82 107.88 176.854 104.932C171.888 101.984 166.806 98.4774 170.027 92.9839C172.665 88.4839 170.802 85.8457 167.079 82.5877C163.354 79.329 166.958 78.1575 163.82 71.8809C160.718 65.6741 150.632 63.1909 145.201 68.0016Z" fill="#272B34"/>
<path d="M159.934 81.0277C159.934 81.0277 165.674 80.9439 166.617 86.3766C167.544 91.7107 164.073 94.9628 161.137 95.0021C161.137 95.0021 155.028 87.3457 159.934 81.0277Z" fill="white"/>
<path d="M133.237 81.2509C133.237 81.2509 136.809 88.9807 129.005 92.4841C122.869 95.2386 116.709 95.3595 115.473 100.764" stroke="#272B34" stroke-width="0.75" stroke-miterlimit="10" stroke-linecap="round" stroke-linejoin="round"/>
<path d="M170.527 90.2923C170.527 90.2923 168.427 95.6961 171.207 98.4766C173.988 101.257 180.785 105.521 181.093 111.143" stroke="#272B34" stroke-width="0.75" stroke-miterlimit="10" stroke-linecap="round" stroke-linejoin="round"/>
<path d="M106.915 120.754C106.915 120.754 105.525 128.29 109.881 133.017C114.237 137.744 119.891 135.374 119.891 135.374" stroke="#272B34" stroke-width="0.75" stroke-miterlimit="10" stroke-linecap="round" stroke-linejoin="round"/>
<path d="M131.956 163.942C131.956 163.942 120.796 172.051 124.347 179.636C129.47 190.58 159.794 198.224 170.08 184.533C175.886 176.805 172.538 174.722 172.538 174.722L166.197 165.844L131.956 163.942Z" fill="#1E1759"/>
<path d="M89.6878 141.443C89.6878 141.443 88.0425 140.922 91.0455 136.869C94.0484 132.816 100.633 126.699 100.633 126.699C100.633 126.699 103.772 137.413 89.6878 141.443Z" fill="#272B34"/>
<path d="M101.901 131.869L91.9285 116.907L85.8997 119.677L94.5748 138.554L101.901 131.869Z" fill="#FF8C66"/>
<path d="M85.8129 112.177C86.9422 111.971 85.1523 110.147 84.0453 109.121C82.6165 107.797 82.9361 106.278 85.4222 107.356C88.6417 108.752 89.4639 109.434 91.4155 111.39C91.9642 111.94 92.329 112.609 92.57 113.286C93.198 115.053 92.9948 117.005 92.1132 118.66C91.7365 119.367 91.236 120.22 90.6058 121.123C88.9835 123.443 84.7979 122.425 82.3533 122.584C79.9079 122.743 77.4143 121.847 75.4873 120.418C73.5602 118.989 70.908 117.509 71.9861 116.678C73.0641 115.848 76.3785 119.335 76.7033 118.785C77.028 118.235 69.4717 114.395 69.6645 113.358C69.8573 112.321 71.2787 112.757 71.2787 112.757C71.2787 112.757 70.1005 111.908 70.8301 111.1C71.559 110.293 73.6506 111.016 73.6506 111.016L78.3234 112.691C78.3234 112.691 75.8409 110.052 76.6165 108.656C77.3921 107.26 81.2715 106.949 82.2027 107.104C83.134 107.259 83.289 108.036 82.0478 108.811C80.8066 109.587 79.5653 109.587 79.8753 110.673C80.1859 111.759 81.4272 112.691 82.6684 112.535C83.9096 112.38 85.8129 112.177 85.8129 112.177Z" fill="#FF8C66"/>
<path d="M71.2845 112.474C73.761 113.351 76.199 114.31 78.5872 115.346C78.8697 115.468 78.5546 115.895 78.2751 115.774C75.9239 114.754 73.5237 113.811 71.0858 112.947C70.7959 112.844 70.9924 112.37 71.2845 112.474Z" fill="#CC5622"/>
<path d="M77.5389 117.591C78.0186 115.556 78.9558 113.631 80.3342 111.887C80.5463 111.619 80.9541 111.853 80.742 112.123C79.4222 113.793 78.5072 115.636 78.0475 117.586C77.9734 117.897 77.4647 117.905 77.5389 117.591Z" fill="#CC5622"/>
<path d="M81.5095 114.869C84.7015 114.321 87.4835 115.591 88.7358 118.182C88.8656 118.45 88.3903 118.7 88.2613 118.432C87.1046 116.04 84.5272 114.833 81.571 115.34C81.2433 115.395 81.178 114.926 81.5095 114.869Z" fill="#CC5622"/>
<path d="M89.687 141.443C89.687 141.443 95.4045 146.138 101.805 156.695C103.007 158.677 104.301 160.439 105.648 161.946C110.706 167.611 116.488 169.706 120.766 166.604C121.41 166.138 122.02 165.554 122.587 164.845C124.282 162.734 126.22 158.882 128.079 154.602C132.086 145.371 135.723 134.157 135.723 134.157L130.563 121.98L123.07 117.458L122.461 119.134L119.768 128.257L113.827 145.297L100.633 126.698C100.621 126.749 100.61 126.8 100.598 126.855C99.9512 129.982 98.6373 132.89 96.7799 135.384C94.9218 137.881 92.5179 139.966 89.687 141.443Z" fill="#FEA500"/>
<path d="M103.204 131.366C102.435 137.198 99.241 142.453 94.6862 146.121C94.4526 146.309 94.784 146.636 95.0154 146.45C99.6748 142.699 102.884 137.321 103.67 131.366C103.708 131.07 103.243 131.073 103.204 131.366Z" fill="#CE6F00"/>
<path d="M105.648 161.946C110.706 167.612 116.488 169.706 120.766 166.605C118.067 164.182 112.149 159.7 106.869 161.384C106.389 161.538 105.985 161.726 105.648 161.946Z" fill="#CE6F00"/>
<path d="M114.152 145.112C115.934 148.374 117.35 151.808 118.383 155.379C118.495 155.764 117.896 155.928 117.784 155.544C116.766 152.024 115.373 148.642 113.616 145.426C113.424 145.075 113.96 144.761 114.152 145.112Z" fill="#CE6F00"/>
<path d="M115.812 148.458C116.88 149.345 117.833 150.36 118.901 151.248C119.209 151.503 118.768 151.94 118.462 151.687C117.394 150.799 116.441 149.784 115.373 148.896C115.065 148.641 115.507 148.203 115.812 148.458Z" fill="#CE6F00"/>
<path d="M212.632 135.374C212.632 135.374 214.332 134.647 210.706 130.638C207.079 126.629 199.416 120.792 199.416 120.792C199.416 120.792 197.187 132.549 212.632 135.374Z" fill="#272B34"/>
<path d="M196.769 132.263L205.843 115.26L212.563 117.585L205.283 138.629L196.769 132.263Z" fill="#FF8C66"/>
<path d="M212.632 135.375C212.632 135.375 207.024 140.981 201.301 152.912C200.225 155.152 199.03 157.166 197.751 158.914C192.947 165.487 186.999 168.325 182.111 165.464C181.375 165.034 180.664 164.475 179.984 163.778C177.957 161.704 175.486 157.797 173.055 153.426C167.816 143.998 162.765 132.417 162.765 132.417L166.996 118.888L170.105 108.945L172.044 112.676L178.199 124.521L187.287 142.01L199.418 120.792C199.435 120.845 199.453 120.899 199.471 120.956C200.488 124.223 202.193 127.188 204.435 129.655C206.677 132.123 209.459 134.095 212.632 135.375Z" fill="#FEA500"/>
<path d="M195.85 127.467C197.503 133.571 202.719 138.425 208.934 139.617C209.227 139.673 209.352 139.225 209.058 139.168C202.997 138.006 197.913 133.303 196.298 127.343C196.221 127.054 195.771 127.176 195.85 127.467Z" fill="#CE6F00"/>
<path d="M197.751 158.914C192.947 165.487 186.999 168.325 182.111 165.464C184.737 162.597 190.581 157.197 196.39 158.442C196.917 158.556 197.368 158.715 197.751 158.914Z" fill="#CE6F00"/>
<path d="M186.92 141.846C185.36 145.512 184.209 149.323 183.48 153.24C183.401 153.662 184.058 153.775 184.136 153.353C184.855 149.492 185.987 145.739 187.525 142.124C187.692 141.73 187.088 141.451 186.92 141.846Z" fill="#CE6F00"/>
<path d="M185.498 145.588C184.452 146.646 183.541 147.829 182.495 148.887C182.193 149.192 182.71 149.612 183.01 149.309C184.056 148.251 184.967 147.069 186.013 146.011C186.314 145.706 185.798 145.286 185.498 145.588Z" fill="#CE6F00"/>
<path d="M212.344 110.258C211.215 110.052 213.005 108.228 214.112 107.202C215.541 105.878 215.221 104.359 212.735 105.437C209.516 106.834 208.694 107.516 206.742 109.472C206.193 110.022 205.828 110.691 205.587 111.368C204.959 113.135 205.163 115.087 206.044 116.742C206.421 117.449 206.921 118.302 207.552 119.204C209.174 121.524 213.36 120.506 215.804 120.665C218.25 120.824 220.743 119.928 222.67 118.499C224.597 117.07 227.249 115.59 226.171 114.759C225.093 113.929 221.779 117.416 221.454 116.866C221.129 116.316 228.686 112.476 228.493 111.439C228.3 110.402 226.879 110.838 226.879 110.838C226.879 110.838 228.057 109.989 227.327 109.181C226.598 108.374 224.507 109.097 224.507 109.097L219.834 110.772C219.834 110.772 222.316 108.133 221.541 106.737C220.765 105.341 216.886 105.03 215.955 105.185C215.023 105.34 214.868 106.117 216.11 106.892C217.351 107.668 218.592 107.668 218.282 108.754C217.972 109.84 216.73 110.772 215.489 110.616C214.248 110.46 212.344 110.258 212.344 110.258Z" fill="#FF8C66"/>
<path d="M226.873 110.555C224.396 111.432 221.958 112.391 219.57 113.427C219.288 113.549 219.603 113.976 219.882 113.855C222.233 112.835 224.634 111.892 227.071 111.029C227.361 110.925 227.165 110.451 226.873 110.555Z" fill="#CC5622"/>
<path d="M220.618 115.672C220.139 113.637 219.202 111.712 217.823 109.968C217.611 109.7 217.203 109.934 217.415 110.204C218.735 111.874 219.65 113.717 220.11 115.668C220.183 115.978 220.693 115.986 220.618 115.672Z" fill="#CC5622"/>
<path d="M216.648 112.95C213.456 112.402 210.674 113.672 209.422 116.263C209.293 116.531 209.767 116.781 209.897 116.514C211.054 114.121 213.631 112.914 216.587 113.421C216.914 113.477 216.979 113.006 216.648 112.95Z" fill="#CC5622"/>
<path d="M174.355 125.207C174.355 126.139 174.342 127.077 174.318 128.012C174.129 135.496 173.229 142.859 172.399 147.173C171.821 150.178 171.036 154.473 170.52 157.308C170.202 159.053 168.416 168.95 168.416 168.95C163.561 170.663 147.545 173.757 131.322 166.32C131.322 166.32 130.383 150.475 128.755 142.863C128.204 140.289 127.518 137.861 126.669 135.975C124.793 131.806 122.568 126.356 122.333 121.932C122.238 120.143 122.468 118.523 123.181 117.223C123.86 115.982 124.977 115.031 126.669 114.509C132.875 112.587 139.899 109.613 142.557 108.458C143.258 108.154 143.654 107.976 143.654 107.976C143.654 107.976 152.757 106.518 159.986 106.238C163.529 106.1 166.619 106.243 167.97 106.981C170.595 108.413 172.475 112.034 173.488 116.654C174.059 119.256 174.355 122.178 174.355 125.207Z" fill="#FEA500"/>
<path d="M136.019 132.227C133.948 138.17 131.878 144.112 129.807 150.055C129.709 150.338 130.158 150.46 130.256 150.178C132.327 144.236 134.397 138.293 136.468 132.351C136.567 132.068 136.118 131.946 136.019 132.227Z" fill="#CE6F00"/>
<path d="M156.15 168.35C156.126 168.35 156.102 168.347 156.078 168.342C155.911 168.303 155.808 168.136 155.847 167.969C159.181 153.772 155.876 131.118 155.842 130.891C155.817 130.721 155.934 130.564 156.103 130.538C156.273 130.513 156.431 130.63 156.456 130.799C156.49 131.028 159.812 153.798 156.451 168.112C156.418 168.254 156.29 168.35 156.15 168.35Z" fill="#CE6F00"/>
<path d="M132.097 143.552C133.355 150.647 134.005 157.759 134.06 164.965C134.063 165.354 134.668 165.355 134.665 164.965C134.609 157.706 133.947 150.539 132.681 143.391C132.614 143.008 132.03 143.17 132.097 143.552Z" fill="#CE6F00"/>
<path d="M131.362 164.234C140.502 167.637 150.334 169.205 160.073 168.346C162.832 168.103 165.57 167.665 168.27 167.05C168.65 166.963 168.489 166.38 168.109 166.466C155.914 169.247 143.197 167.997 131.523 163.65C131.158 163.514 131 164.099 131.362 164.234Z" fill="#CE6F00"/>
<path d="M142.286 108.902C142.286 108.902 147.648 123.425 154.526 124.534C161.403 125.643 157.594 109.346 157.594 109.346C157.594 109.346 144.283 106.462 142.286 108.902Z" fill="#FF8C66"/>
<path d="M175.145 128.739C175.017 128.523 174.888 128.307 174.759 128.089C174.443 127.98 174.117 127.901 173.792 127.819C175.692 131.099 177.776 134.343 177.699 138.231C177.618 142.334 175.37 145.332 172.875 148.367C171.891 149.565 170.972 150.72 170.517 152.227C170.036 153.82 170.041 155.504 170.119 157.149C170.139 157.575 170.805 157.578 170.785 157.149C170.701 155.392 170.691 153.576 171.325 151.906C172.005 150.115 173.491 148.7 174.667 147.227C176.782 144.578 178.296 141.689 178.365 138.23C178.435 134.726 176.89 131.677 175.145 128.739Z" fill="#CE6F00"/>
<path d="M172.055 121.226C172.261 123.853 173.017 126.38 174.282 128.692C174.507 129.104 175.168 128.789 174.941 128.374C173.704 126.114 172.976 123.662 172.775 121.094C172.738 120.625 172.018 120.76 172.055 121.226Z" fill="#CE6F00"/>
<path d="M142.206 108.881C142.206 108.881 150.281 115.653 157.54 109.404L156.548 104.898L155.465 99.9826L154.707 96.5407L143.927 90.9062L142.206 108.881Z" fill="#FF8C66"/>
<path d="M146.456 96.4962C151.264 104.882 155.712 107.741 157.119 107.49L155.444 99.8839L146.456 96.4962Z" fill="#272B34"/>
<path d="M142.759 106.189C142.759 106.189 137.596 108.1 135.011 111.558C135.011 111.558 139.069 117.876 138.127 120.791C138.127 120.791 143.08 118.638 145.977 121.534C148.874 124.43 156.15 130.327 156.15 130.327L154.526 124.017C154.526 124.017 145.645 115.775 142.759 106.189Z" fill="#FEBE59"/>
<path d="M156.882 106.416C156.882 106.416 160.909 104.37 164.408 106.384C164.408 106.384 163.563 116.259 165.321 119.466L156.149 130.328L154.525 124.018C154.525 124.018 159.255 117.759 156.882 106.416Z" fill="#FEBE59"/>
<path d="M142.388 106.273C143.516 108.785 144.904 111.172 146.556 113.376C147.826 115.071 149.364 117.258 151.613 117.621C153.631 117.947 155.499 116.564 156.447 114.874C157.712 112.62 157.413 109.861 157.142 107.403C157.109 107.109 156.643 107.105 156.676 107.403C156.93 109.705 157.244 112.289 156.154 114.436C155.175 116.362 152.976 117.836 150.818 116.899C148.811 116.028 147.353 113.757 146.154 112.025C144.847 110.138 143.729 108.131 142.789 106.038C142.667 105.766 142.266 106.003 142.388 106.273Z" fill="white"/>
<path d="M140.296 88.6818C141.634 92.0103 142.719 93.0432 145.584 96.1217C148.141 98.8696 152.166 99.9863 154.163 99.9462C161.418 99.8002 164.473 96.551 162.608 86.8786C161.449 80.8727 162.786 77.3233 161.011 75.1367L161.008 75.1374C160.894 75.0403 160.779 74.9454 160.664 74.8535C157.906 72.6409 154.361 71.6451 150.839 71.9625C133.335 73.5396 138.377 83.9046 140.296 88.6818Z" fill="#FF8C66"/>
<path d="M149.355 88.7152C149.421 89.2342 150.282 89.5516 151.278 89.424C152.274 89.2965 153.027 88.7723 152.96 88.2533C152.894 87.7342 152.033 87.4169 151.037 87.5444C150.041 87.6719 149.288 88.1962 149.355 88.7152Z" fill="#CC5622"/>
<path d="M159.738 87.9248C159.805 88.4453 160.667 88.762 161.661 88.6344C162.129 88.5744 162.545 88.4261 162.844 88.2333C162.776 87.7958 162.698 87.3435 162.608 86.8786C162.606 86.8593 162.601 86.8401 162.599 86.8223C162.27 86.7296 161.857 86.6999 161.42 86.7563C160.426 86.8838 159.672 87.4073 159.738 87.9248Z" fill="#CC5622"/>
<path d="M164.287 80.2595C165.251 78.5986 160.53 66.962 148.305 70.9496C148.305 70.9496 159.787 82.122 164.287 80.2595Z" fill="#272B34"/>
<path d="M154.512 74.9839C154.512 74.9839 155.753 78.7083 149.857 80.5702C143.96 82.432 151.098 88.0182 145.512 89.2594C145.512 89.2594 146.132 84.7595 142.253 85.535C138.374 86.3106 139.925 90.5007 138.064 88.4831C136.202 86.4656 134.184 74.0527 142.253 71.4145C150.322 68.7771 154.512 74.9839 154.512 74.9839Z" fill="#272B34"/>
<path d="M151.623 85.5239C152.421 86.8541 154.381 86.5746 154.75 85.0568C154.82 84.7662 154.371 84.6416 154.301 84.933C154.028 86.0556 152.626 86.2899 152.025 85.2889C151.87 85.0323 151.468 85.2659 151.623 85.5239Z" fill="#272B34"/>
<path d="M157.649 84.9033C158.447 86.2335 160.407 85.9539 160.776 84.4362C160.846 84.1448 160.397 84.0209 160.327 84.3123C160.054 85.4357 158.652 85.6692 158.051 84.6682C157.897 84.4117 157.494 84.6453 157.649 84.9033Z" fill="#272B34"/>
<path d="M158.206 91.9606C158.206 92.8822 157.459 93.6289 156.537 93.6289C155.616 93.6289 154.869 92.8822 154.869 91.9606C154.869 91.039 155.616 90.2923 156.537 90.2923C157.459 90.2923 158.206 91.0397 158.206 91.9606Z" fill="white"/>
<path d="M158.338 95.08C157.653 95.4092 156.893 95.5078 156.249 95.04C155.923 94.8027 156.306 94.3081 156.632 94.5447C157.091 94.8783 157.624 94.7293 158.097 94.5024C158.461 94.3274 158.7 94.9057 158.338 95.08Z" fill="#CC5622"/>
<path d="M153.011 81.9345C152.272 81.7551 151.349 81.9968 151.144 82.8257C150.953 83.5991 149.711 83.433 149.905 82.6493C150.266 81.1886 151.719 80.3396 153.187 80.6955C153.962 80.8831 153.795 82.1243 153.011 81.9345Z" fill="#272B34"/>
<path d="M160.607 82.4824C160.055 81.9545 159.347 81.1804 158.51 81.5037C157.759 81.7936 157.274 80.6391 158.026 80.3492C159.361 79.8346 160.44 80.6013 161.372 81.4926C161.949 82.0435 161.19 83.0393 160.607 82.4824Z" fill="#272B34"/>
<path d="M157.439 89.0407C157.173 89.1349 156.853 89.2105 156.48 89.238C156.311 89.2506 156.163 89.1238 156.15 88.9547C156.137 88.7849 156.265 88.6381 156.434 88.6248C157.023 88.581 157.445 88.3986 157.7 88.2474C156.745 87.4414 156.292 86.2187 156.271 86.1609C156.213 86.0014 156.295 85.825 156.455 85.7671C156.606 85.7108 156.791 85.7909 156.849 85.9503C156.854 85.9636 157.365 87.3346 158.382 87.9886C158.46 88.039 158.511 88.1213 158.521 88.2133C158.532 88.3052 158.5 88.3971 158.435 88.4631C158.415 88.4824 158.082 88.8138 157.439 89.0407Z" fill="#272B34"/>
<path d="M147.093 90.6838C147.14 89.1082 146.63 87.9033 146.151 86.9839C145.35 85.4468 143.308 83.5687 141.667 84.0106C139.256 84.6594 139.239 86.8786 139.759 89.0704C140.28 91.2621 142.107 93.99 145.11 93.1351C146.613 92.708 147.06 91.7789 147.093 90.6838Z" fill="#FF8C66"/>
<path d="M144.082 90.6831C144.107 89.7599 144.07 88.8005 143.641 87.9596C143.258 87.2085 142.269 86.1645 141.3 86.5953C140.975 86.7399 140.694 86.2587 141.021 86.1134C141.954 85.6982 142.932 86.1727 143.582 86.8927C144.519 87.9315 144.677 89.3491 144.64 90.6905C144.629 91.0486 144.072 91.0427 144.082 90.6831Z" fill="#272B34"/>
<path d="M168.966 177.055C168.966 177.055 197.766 158.799 211.158 158.732C224.551 158.665 237.875 175.457 205.506 190.34C173.136 205.223 148.638 205.003 148.638 205.003L143.068 192.19L168.966 177.055Z" fill="#463B92"/>
<path d="M143.906 193.504L134.783 198.051C134.783 198.051 126.282 195.243 124.863 198.826C123.725 201.702 109.064 211.765 110.743 215.481C111.311 216.741 115.509 212.141 119.396 211.377C125.189 210.239 130.992 206.801 133.94 205.866C136.888 204.93 149.453 202.038 149.453 202.038C149.453 202.038 149.725 197.15 143.906 193.504Z" fill="#FF8C66"/>
<path d="M212.877 162.579C217.501 164.708 220.977 168.881 222.222 173.819C222.296 174.109 222.744 173.986 222.671 173.695C221.399 168.652 217.837 164.352 213.111 162.177C212.841 162.052 212.605 162.453 212.877 162.579Z" fill="#1E1759"/>
<path d="M191.792 165.852C181.298 172.355 170.642 178.594 159.832 184.554C156.757 186.251 153.668 187.924 150.568 189.576C150.303 189.716 150.538 190.118 150.803 189.978C161.697 184.172 172.445 178.093 183.03 171.741C186.042 169.933 189.041 168.104 192.027 166.253C192.28 166.096 192.047 165.694 191.792 165.852Z" fill="#1E1759"/>
<path d="M147.202 70.438C147.509 70.1244 151.158 63.8894 145.753 60.0879C139.885 55.9609 131.943 61.9497 132.408 66.7604C132.874 71.5703 140.685 77.1105 147.202 70.438Z" fill="#272B34"/>
<path d="M136.964 177.055C136.964 177.055 108.164 158.799 94.7714 158.732C81.379 158.665 68.0541 175.457 100.424 190.34C132.794 205.223 153.115 209.773 153.115 209.773C152.028 205.713 155.151 200.879 162.861 194.965L136.964 177.055Z" fill="#463B92"/>
<path d="M88.6386 162.998C84.872 165.595 82.7098 170.137 83.1095 174.7C83.1354 174.996 83.6011 174.999 83.5751 174.7C83.1903 170.305 85.236 165.908 88.8737 163.4C89.1183 163.232 88.8855 162.828 88.6386 162.998Z" fill="#1E1759"/>
<path d="M159.226 192.642C153.728 195.786 148.679 202.187 149.171 208.822C149.193 209.119 149.659 209.121 149.636 208.822C149.156 202.346 154.096 196.112 159.461 193.043C159.721 192.894 159.487 192.492 159.226 192.642Z" fill="#1E1759"/>
<path d="M109.295 164.751C116.339 167.498 123.127 170.873 129.643 174.701C132.811 176.563 135.893 178.565 138.992 180.539C141.945 182.419 144.895 184.305 147.788 186.278C151.193 188.601 154.505 191.052 157.69 193.668C157.92 193.856 158.252 193.529 158.019 193.339C152.445 188.761 146.467 184.757 140.393 180.88C134.082 176.852 127.776 172.871 121.08 169.504C117.275 167.591 113.386 165.849 109.418 164.303C109.14 164.194 109.019 164.644 109.295 164.751Z" fill="#1E1759"/>
<path d="M162.861 194.966C162.861 194.966 165.373 195.55 162.115 202.533C158.856 209.515 153.115 209.774 153.115 209.774C150.685 203.076 162.861 194.966 162.861 194.966Z" fill="#272B34"/>
<path d="M159.166 197.257L168.289 201.803C168.289 201.803 176.791 198.995 178.209 202.579C179.348 205.454 194.009 215.517 192.33 219.234C191.761 220.493 187.564 215.893 183.676 215.13C177.883 213.991 172.081 210.554 169.132 209.618C166.184 208.683 153.619 205.791 153.619 205.791C153.619 205.791 153.347 200.903 159.166 197.257Z" fill="#FF8C66"/>
<path d="M117.324 169.214H191.435L192.239 167.395C192.745 166.25 191.425 165.109 189.595 165.109H121.211C119.984 165.109 118.905 165.637 118.566 166.405L117.324 169.214Z" fill="white"/>
<path d="M206.222 120.647L197.292 158.419C197.053 159.426 196.155 160.136 195.121 160.136H140.105C138.666 160.136 137.603 158.793 137.934 157.393L146.865 119.621C147.103 118.614 148.001 117.904 149.036 117.904H204.051C205.49 117.903 206.554 119.247 206.222 120.647Z" fill="white"/>
<path d="M197.751 156.4H197.749L142.204 156.133C142 156.132 141.834 155.965 141.835 155.761C141.836 155.557 142.002 155.392 142.206 155.392H142.207L197.752 155.659C197.956 155.659 198.122 155.827 198.121 156.031C198.121 156.236 197.955 156.4 197.751 156.4Z" fill="#272B34"/>
<path d="M179.49 140.496C179.228 142.874 177.088 144.801 174.711 144.801C172.334 144.801 170.619 142.874 170.881 140.496C171.143 138.119 173.282 136.192 175.66 136.192C178.038 136.192 179.753 138.119 179.49 140.496Z" fill="#272B34"/>
<path d="M151.215 117.903L141.706 160.136H140.105C138.666 160.136 137.602 158.792 137.934 157.392L146.864 119.62C147.102 118.613 148.001 117.903 149.035 117.903H151.215Z" fill="#272B34"/>
<path d="M167.151 160.136L165.276 169.109H170.788L172.663 160.136H167.151Z" fill="white"/>
<path d="M157.232 167.59L158.36 166.004C158.763 165.437 159.415 165.101 160.11 165.101H175.223C176.023 165.101 176.756 165.545 177.127 166.254L177.888 167.709C178.243 168.39 177.75 169.205 176.982 169.205H158.065C157.234 169.205 156.751 168.267 157.232 167.59Z" fill="white"/>
<path d="M69.6658 256.367H34.673C33.8159 256.367 33.1211 255.672 33.1211 254.815C33.1211 253.958 33.8159 253.263 34.673 253.263H69.6658C70.523 253.263 71.2177 253.958 71.2177 254.815C71.217 255.672 70.5222 256.367 69.6658 256.367Z" fill="#272737"/>
<path d="M86.5966 305.71C85.8418 305.71 85.1389 305.233 84.8868 304.477L41.2024 173.329C40.888 172.385 41.3982 171.364 42.3428 171.05C43.2874 170.736 44.3077 171.247 44.6221 172.19L88.3064 303.338C88.6208 304.282 88.1107 305.303 87.166 305.617C86.9777 305.68 86.7857 305.71 86.5966 305.71Z" fill="#63636D"/>
<path d="M18.3214 305.711C18.1324 305.711 17.9411 305.681 17.752 305.618C16.8074 305.303 16.2972 304.283 16.6116 303.339L60.2959 172.191C60.6103 171.247 61.6306 170.737 62.5752 171.051C63.5198 171.365 64.03 172.386 63.7156 173.33L20.0305 304.477C19.7792 305.232 19.0755 305.711 18.3214 305.711Z" fill="#63636D"/>
<path d="M264.759 256.367H229.767C228.909 256.367 228.215 255.672 228.215 254.815C228.215 253.958 228.909 253.263 229.767 253.263H264.759C265.616 253.263 266.31 253.958 266.31 254.815C266.31 255.672 265.615 256.367 264.759 256.367Z" fill="#272737"/>
<path d="M281.689 305.71C280.935 305.71 280.232 305.233 279.98 304.477L236.295 173.33C235.981 172.385 236.491 171.365 237.436 171.051C238.379 170.736 239.4 171.247 239.715 172.191L283.399 303.338C283.714 304.283 283.203 305.303 282.259 305.618C282.07 305.68 281.878 305.71 281.689 305.71Z" fill="#63636D"/>
<path d="M213.414 305.71C213.225 305.71 213.033 305.681 212.844 305.618C211.899 305.303 211.389 304.282 211.704 303.338L255.388 172.191C255.702 171.247 256.723 170.737 257.667 171.051C258.612 171.365 259.122 172.386 258.808 173.33L215.123 304.477C214.872 305.232 214.169 305.71 213.414 305.71Z" fill="#63636D"/>
<path d="M273.99 169.177V176.072C273.99 176.425 273.95 176.772 273.872 177.106C273.766 177.563 273.593 177.998 273.361 178.406C272.303 180.267 270.021 181.554 267.376 181.554H33.6122C30.9673 181.554 28.6851 180.267 27.63 178.406C27.3972 177.998 27.2222 177.563 27.1191 177.106C27.0405 176.772 27.0005 176.425 27.0005 176.072V169.177H273.99Z" fill="#272B34"/>
<path d="M273.871 177.106C273.766 177.563 273.593 177.998 273.36 178.406H27.6298C27.3969 177.998 27.222 177.563 27.1189 177.106H273.871Z" fill="#63636D"/>
<path d="M263.088 154.131H238.185C237.351 154.131 236.675 153.455 236.675 152.621V151.627C236.675 150.794 237.351 150.118 238.185 150.118H263.088C263.922 150.118 264.598 150.793 264.598 151.627V152.621C264.598 153.455 263.923 154.131 263.088 154.131Z" fill="#FE829E"/>
<path d="M266.007 163.098C265.946 164.088 265.643 165.028 264.977 165.827C262.538 168.758 256.135 169.198 252.769 169.213C252.245 169.216 251.792 169.208 251.444 169.197H251.441C251.185 169.192 250.985 169.181 250.85 169.176C250.711 169.17 250.637 169.165 250.637 169.165C250.637 169.165 248.108 169.331 245.105 169.051C244.809 169.024 244.511 168.992 244.208 168.955C241.18 168.594 237.892 167.742 236.298 165.827C235.896 165.345 235.627 164.813 235.464 164.249C235.389 163.999 235.337 163.74 235.304 163.477C235.139 162.204 235.416 160.822 235.876 159.523C235.975 159.241 236.084 158.961 236.199 158.69C236.37 158.283 236.553 157.888 236.742 157.513C237.045 156.904 237.365 156.347 237.657 155.865C237.726 155.753 237.793 155.647 237.857 155.542C238.016 155.292 238.166 155.068 238.296 154.876C238.615 154.406 238.826 154.131 238.826 154.131H262.444C262.444 154.131 263.306 155.247 264.183 156.852C264.3 157.063 264.417 157.284 264.531 157.513C264.545 157.537 264.555 157.561 264.568 157.588C264.851 158.152 265.119 158.759 265.351 159.39C265.45 159.668 265.546 159.952 265.626 160.237C265.825 160.919 265.964 161.611 266.001 162.293C266.021 162.563 266.023 162.832 266.007 163.098Z" fill="#FE829E"/>
<path d="M265.626 160.236C261.851 162.07 257.013 162.525 253.387 162.43C249.172 162.321 245.28 161.021 241.206 160.108C239.47 159.72 237.651 159.464 235.875 159.522C235.974 159.24 236.083 158.96 236.198 158.689C240.647 158.699 245.36 160.614 249.596 161.285C253.792 161.953 258.147 161.69 262.237 160.542C263.281 160.249 264.346 159.874 265.352 159.389C265.45 159.666 265.547 159.951 265.626 160.236Z" fill="#FFB6C9"/>
<path d="M255.073 154.131C250.44 158.572 243.201 159.214 237.858 155.542C238.017 155.292 238.167 155.068 238.297 154.876C243.092 158.175 249.516 157.8 253.885 154.131H255.073Z" fill="#FFB6C9"/>
<path d="M266.008 163.098C261.239 164.261 256.737 166.354 252.77 169.213C252.246 169.216 251.793 169.208 251.444 169.197C255.749 165.92 260.72 163.555 266.002 162.291C266.021 162.563 266.023 162.832 266.008 163.098Z" fill="#FFB6C9"/>
<path d="M245.105 169.051C244.809 169.024 244.511 168.992 244.208 168.955C244.229 167.787 243.763 166.666 242.679 165.939C240.674 164.595 238.01 164.153 235.464 164.249C235.389 163.999 235.337 163.74 235.304 163.477C236.489 163.442 237.674 163.53 238.853 163.751C240.682 164.094 242.998 164.693 244.196 166.248C244.916 167.177 245.168 168.125 245.105 169.051Z" fill="#FFB6C9"/>
<path d="M264.57 157.587C263.957 157.773 263.3 157.859 262.594 157.816C260.323 157.683 258.929 156.072 258.441 154.131H259.279C259.889 156.075 261.609 157.452 264.026 156.892C264.08 156.879 264.133 156.869 264.183 156.852C264.3 157.063 264.418 157.284 264.532 157.513C264.545 157.537 264.556 157.561 264.57 157.587Z" fill="#FFB6C9"/>
<path d="M262.444 154.377H238.826C238.691 154.377 238.58 154.267 238.58 154.131C238.58 153.996 238.69 153.886 238.826 153.886H262.444C262.58 153.886 262.69 153.996 262.69 154.131C262.69 154.267 262.58 154.377 262.444 154.377Z" fill="#283618"/>
<path d="M241.331 138.393C241.331 138.393 245.495 136.874 246.572 141.283C247.65 145.692 250.736 144.554 251.319 143.588C252.471 141.684 252.632 134.796 250.652 134.381C248.288 133.885 242.163 136.384 241.331 138.393Z" fill="#636538"/>
<path d="M250.652 134.381C245.768 134.451 244.477 138.74 243.692 142.52L242.105 139.557L243.23 144.815C243.109 145.39 242.983 145.921 242.838 146.382C241.662 150.107 238.036 151.241 238.036 151.241C238.036 151.241 237.817 149.728 237.625 147.605V147.603L239.401 144.808L237.47 145.619C237.254 142.288 237.224 138.281 238.035 135.997C239.604 131.588 243.812 132.945 243.812 132.945L250.652 134.381Z" fill="#ACA238"/>
<path d="M262.815 129.751C262.815 129.751 260.255 128.98 257.572 132.641C254.988 136.169 253.958 136.583 252.206 135.211C250.454 133.839 251.513 126.154 253.493 125.739C255.857 125.242 261.982 127.742 262.815 129.751Z" fill="#636538"/>
<path d="M271.044 149.776C271.044 149.776 267.859 148.779 265.677 145.783L268.5 139.157L264.629 143.983C264.466 143.622 264.319 143.244 264.192 142.842C262.513 137.528 262.857 125.991 253.209 125.852L262.802 123.664C262.802 123.664 268.807 121.726 271.044 128.02C271.614 129.62 271.894 131.816 271.993 134.198L268.5 130.965C268.5 130.965 270.922 134.479 272.036 135.947C272.092 142.535 271.044 149.776 271.044 149.776Z" fill="#ACA238"/>
<path d="M238.406 119.531C238.406 119.531 242.57 118.013 243.648 122.422C244.727 126.83 250.149 128.514 250.705 126.36C251.299 124.06 249.987 115.871 248.008 115.456C245.643 114.959 239.239 117.523 238.406 119.531Z" fill="#636538"/>
<path d="M248.182 115.491C240.294 115.606 238.971 123.427 237.834 129.182L233.814 123.384C233.866 123.552 235.997 130.469 236.821 133.212C234.964 138.056 230.177 139.557 230.177 139.557C230.177 139.557 228.836 130.3 229.267 123.193C230.443 122.221 232.521 120.477 232.521 120.477L229.44 121.24C229.596 119.937 229.834 118.761 230.177 117.799C232.414 111.507 238.42 113.444 238.42 113.444L248.182 115.491Z" fill="#ACA238"/>
<path d="M250.344 150.124H251.382C253.01 138.298 251.969 128.279 250.772 121.854C249.416 114.583 247.626 110.33 247.551 110.153C247.439 109.891 247.137 109.769 246.876 109.88C246.614 109.992 246.492 110.294 246.604 110.555C246.622 110.597 248.425 114.881 249.76 122.043C250.949 128.417 251.982 138.373 250.344 150.124Z" fill="#636538"/>
<path d="M49.9496 152.783C49.6945 152.783 49.4424 152.799 49.1948 152.832C48.5215 152.919 47.8831 153.122 47.3018 153.42C45.4133 154.386 44.1179 156.352 44.1179 158.616C44.1179 161.831 46.7331 164.447 49.9496 164.447C50.0823 164.447 50.2143 164.443 50.3433 164.433C50.6443 164.415 50.9409 164.37 51.2279 164.306C53.8304 163.723 55.7812 161.393 55.7812 158.616C55.782 155.399 53.1653 152.783 49.9496 152.783ZM50.8149 161.974C50.5375 162.045 50.2476 162.083 49.9496 162.083C49.8628 162.083 49.7761 162.08 49.6908 162.072C47.8987 161.939 46.4817 160.44 46.4817 158.615C46.4817 157.446 47.063 156.41 47.9535 155.783C48.4296 155.445 48.9953 155.224 49.607 155.163C49.719 155.154 49.8339 155.148 49.9488 155.148C51.8611 155.148 53.4167 156.703 53.4167 158.616C53.4174 160.228 52.3097 161.587 50.8149 161.974Z" fill="#FE829E"/>
<path d="M49.1947 152.832L49.6077 155.163C48.996 155.225 48.4303 155.445 47.9543 155.783L47.3018 153.419C47.8838 153.122 48.5215 152.918 49.1947 152.832Z" fill="#C74279"/>
<path d="M51.228 164.305C50.941 164.369 50.6452 164.414 50.3434 164.432L49.6909 162.072C49.7762 162.08 49.8629 162.083 49.9497 162.083C50.2478 162.083 50.5377 162.045 50.815 161.974L51.228 164.305Z" fill="#C74279"/>
<path d="M67.452 148.053L67.1369 149.894L66.9144 151.194L64.3645 166.121L64.1421 167.421L63.8425 169.177H51.9835L51.6839 167.421L51.4615 166.121L48.9116 151.194L48.6891 149.894L48.374 148.053H67.452Z" fill="#FE829E"/>
<path d="M67.1367 149.894L66.9143 151.194H48.9114L48.689 149.894H67.1367Z" fill="#FFB6C9"/>
<path d="M64.3645 166.121L64.142 167.421H51.6839L51.4614 166.121H64.3645Z" fill="#FFB6C9"/>
<path d="M142.365 81.6743C142.365 81.6743 137.059 83.0104 137.462 88.5098C137.865 94.0093 144.005 96.1188 146.724 95.0066C146.724 95.0066 149.351 85.5722 142.365 81.6743Z" fill="white"/>
<path d="M140.591 83.3277C140.372 83.3277 140.174 83.1779 140.122 82.9562C140.048 82.6374 138.332 75.0907 141.804 69.7084C143.442 67.1704 145.967 65.5488 149.309 64.8896C149.571 64.8399 149.824 65.0082 149.875 65.2692C149.926 65.5302 149.756 65.7838 149.495 65.835C146.421 66.4408 144.106 67.9192 142.616 70.2267C139.366 75.2613 141.043 82.6619 141.06 82.736C141.121 82.9948 140.96 83.2543 140.701 83.3151C140.664 83.324 140.627 83.3277 140.591 83.3277Z" fill="white"/>
<path d="M141.338 82.062C141.338 82.062 147.238 86.8919 145.193 95.2001" stroke="#272B34" stroke-width="0.75" stroke-miterlimit="10" stroke-linecap="round" stroke-linejoin="round"/>
</svg>
