<?xml version="1.0" encoding="utf-8"?>
<!-- Generator: Adobe Illustrator 27.0.0, SVG Export Plug-In . SVG Version: 6.00 Build 0)  -->
<svg version="1.1" id="Layer_1" xmlns="http://www.w3.org/2000/svg" xmlns:xlink="http://www.w3.org/1999/xlink" x="0px" y="0px"
	 viewBox="0 0 1440 1440" style="enable-background:new 0 0 1440 1440;" xml:space="preserve">
<style type="text/css">
	.st0{fill-rule:evenodd;clip-rule:evenodd;fill:#00A651;}
	.st1{fill-rule:evenodd;clip-rule:evenodd;fill:#067141;}
	.st2{fill-rule:evenodd;clip-rule:evenodd;fill:#85B642;}
	.st3{fill:#067141;}
	.st4{font-family:'Righteous-Regular';}
	.st5{font-size:228.0614px;}
	.st6{fill:#00A651;}
	.st7{font-size:206.3413px;}
</style>
<g>
	<path class="st0" d="M812.69,523.16h-81.52v81.52h81.52V523.16z M627.31,708.54h81.52v-81.52h-81.52V708.54z M627.31,523.16h81.52
		v81.52h-81.52V523.16z M812.69,708.54h-81.52v-81.52h81.52V708.54z M234.22,560.4l43.01,69.48l90.33-55.92v301.3h81.72V523.38
		L720,355.78l70.96,43.93c-3.28-14.07-5.5-28.46-6.77-42.98c-1.98-19.61-2.42-39.34-2.86-59.08L720,259.67L234.22,560.4z"/>
	<path class="st1" d="M1071.92,859.09c0.17-1.37,0.36-2.75,0.52-4.13V517.68c86.58-62.36,78.07-159.19,58.63-226.69
		C1091.22,152.62,910.6,51.85,705.98,61.92C839.6,130.39,812.1,263.24,821.27,353.24c10.31,119.57,99.57,184.94,152.74,191
		c29.39-110.27,11.73-215.74-29.29-327.04c91.36,132.74,141.11,472.62-67.56,622.56C904.57,843.4,1044.93,854.29,1071.92,859.09"/>
	<path class="st0" d="M1307.87,474.44c0,0-14.98-1.21-31.34,11.51c-16.41,12.69-38.06,48.5-75.69,67.12
		c-37.62,18.64-66.14-0.88-74.03-9.57c-7.92-8.65-2-20.54-2-20.54s-18.52-7.64-2.17-32.76
		C1193.31,410.46,1307.87,474.44,1307.87,474.44"/>
	<path class="st0" d="M1199.01,651.65c0,0-5.42-8.21-18.58-11.52c-13.17-3.35-40.37-0.06-65.16-11.95
		c-24.79-11.88-26.24-34.47-24.94-42.04c1.27-7.58,9.79-9.32,9.79-9.32s-3.53-12.64,16.02-14.34
		C1185.78,566.74,1199.01,651.65,1199.01,651.65"/>
	<path class="st0" d="M903.48,667.29c0,0,3.28-9.28,15.26-15.66c11.97-6.42,39.17-9.78,60.36-27.3
		c21.2-17.5,17.16-39.77,14.08-46.81c-3.05-7.05-11.74-6.69-11.74-6.69s0.39-13.12-19-10.06
		C895.87,581.7,903.48,667.29,903.48,667.29"/>
	<path class="st2" d="M70.52,982.61c431.62-130.13,864.7-118.79,1298.97,5.53C1004.45,743.61,439.1,754.11,70.52,982.61"/>
	<path class="st0" d="M624.52,95.46c0,0,9.84,0.1,19.75,9.37c9.95,9.25,21.93,33.9,45.36,48.28c23.42,14.4,43.19,3.37,48.85-1.83
		c5.68-5.17,2.53-13.27,2.53-13.27s12.53-3.88,3.37-21.24C703.04,60.56,624.52,95.46,624.52,95.46"/>
	<path class="st0" d="M653.12,250.75c0,0,6.15-7.69,19.55-9.78c13.42-2.14,40.21,3.61,65.98-5.98c25.77-9.58,29.26-31.94,28.66-39.6
		c-0.57-7.66-8.9-10.17-8.9-10.17s4.67-12.26-14.65-15.74C674.02,167.4,653.12,250.75,653.12,250.75"/>
</g>
<text transform="matrix(1 0 0 1 178.9765 1119.4342)"><tspan x="0" y="0" class="st3 st4 st5">Aanantha</tspan><tspan x="202.83" y="206.34" class="st6 st4 st7">farmst</tspan></text>
</svg>
