<svg width="1440" height="1440" viewBox="0 0 1440 1440" fill="none" xmlns="http://www.w3.org/2000/svg">
<path fill-rule="evenodd" clip-rule="evenodd" d="M812.7 523.2H731.2V604.7H812.7V523.2ZM627.3 708.5H708.8V627H627.3V708.5ZM627.3 523.2H708.8V604.7H627.3V523.2ZM812.7 708.5H731.2V627H812.7V708.5ZM234.2 560.4L277.2 629.9L367.5 574V875.3H449.2V523.4L720 355.8L791 399.7C787.7 385.6 785.5 371.2 784.2 356.7C782.2 337.1 781.8 317.4 781.3 297.6L720 259.6L234.2 560.4Z" fill="#00A651"/>
<path fill-rule="evenodd" clip-rule="evenodd" d="M1071.9 859.1C1072.1 857.7 1072.3 856.3 1072.4 855V517.7C1159 455.3 1150.5 358.5 1131 291C1091.2 152.6 910.6 51.8001 706 61.9001C839.6 130.4 812.1 263.2 821.3 353.2C831.6 472.8 920.9 538.1 974 544.2C1003.4 433.9 985.7 328.5 944.7 217.2C1036.1 349.9 1085.8 689.8 877.1 839.8C904.6 843.4 1044.9 854.3 1071.9 859.1Z" fill="#067141"/>
<path fill-rule="evenodd" clip-rule="evenodd" d="M1307.9 474.4C1307.9 474.4 1292.9 473.2 1276.6 485.9C1260.2 498.6 1238.5 534.4 1200.9 553C1163.3 571.6 1134.8 552.1 1126.9 543.4C1119 534.7 1124.9 522.9 1124.9 522.9C1124.9 522.9 1106.4 515.3 1122.7 490.1C1193.3 410.5 1307.9 474.4 1307.9 474.4Z" fill="#00A651"/>
<path fill-rule="evenodd" clip-rule="evenodd" d="M1199 651.7C1199 651.7 1193.6 643.5 1180.4 640.2C1167.2 636.9 1140 640.1 1115.2 628.2C1090.4 616.3 1089 593.7 1090.3 586.2C1091.6 578.6 1100.1 576.9 1100.1 576.9C1100.1 576.9 1096.6 564.3 1116.1 562.6C1185.8 566.7 1199 651.7 1199 651.7Z" fill="#00A651"/>
<path fill-rule="evenodd" clip-rule="evenodd" d="M903.5 667.3C903.5 667.3 906.8 658 918.8 651.6C930.8 645.2 958 641.8 979.2 624.3C1000.4 606.8 996.4 584.5 993.3 577.5C990.2 570.5 981.6 570.8 981.6 570.8C981.6 570.8 982 557.7 962.6 560.7C895.9 581.7 903.5 667.3 903.5 667.3Z" fill="#00A651"/>
<path fill-rule="evenodd" clip-rule="evenodd" d="M70.5 982.6C502.1 852.5 935.2 863.8 1369.5 988.1C1004.5 743.6 439.1 754.1 70.5 982.6Z" fill="#85B642"/>
<path fill-rule="evenodd" clip-rule="evenodd" d="M624.5 95.5C624.5 95.5 634.3 95.6 644.3 104.9C654.2 114.2 666.2 138.8 689.7 153.2C713.1 167.6 732.9 156.6 738.5 151.4C744.2 146.2 741 138.1 741 138.1C741 138.1 753.5 134.2 744.4 116.9C703 60.6 624.5 95.5 624.5 95.5Z" fill="#00A651"/>
<path fill-rule="evenodd" clip-rule="evenodd" d="M653.1 250.8C653.1 250.8 659.2 243.1 672.7 241C686.1 238.9 712.9 244.6 738.7 235C764.5 225.4 768 203.1 767.4 195.4C766.8 187.7 758.5 185.2 758.5 185.2C758.5 185.2 763.2 172.9 743.8 169.5C674 167.4 653.1 250.8 653.1 250.8Z" fill="#00A651"/>
<path d="M191.926 1042.28L172.772 1000.52H240.59L321.658 1166.11H248.941L236.692 1139.61H171.436L159.298 1166.11H131.125L191.926 1042.28ZM224.999 1114.11L204.064 1068.67L183.24 1114.11H224.999Z" fill="#067141"/>
<path d="M338.807 1055.64H392.148L397.493 1071.68C405.362 1065.67 413.343 1061.14 421.435 1058.09C429.601 1055.05 438.176 1053.53 447.159 1053.53C452.281 1053.53 457.033 1054.38 461.413 1056.09C465.867 1057.8 469.727 1060.43 472.994 1064C476.26 1067.56 478.822 1072.16 480.678 1077.8C482.534 1083.37 483.462 1090.05 483.462 1097.85V1166H422.994V1094.06C422.994 1090.2 422.14 1087.38 420.433 1085.6C418.725 1083.82 416.238 1082.93 412.972 1082.93C410.819 1082.93 408.443 1083.37 405.845 1084.26C403.247 1085.15 401.057 1086.56 399.275 1088.49V1166H338.807V1055.64Z" fill="#067141"/>
<path d="M506.401 1131.26C506.401 1125.91 507.589 1120.94 509.965 1116.33C512.34 1111.73 515.755 1107.72 520.21 1104.31C524.664 1100.89 530.046 1098.22 536.357 1096.29C542.667 1094.29 549.72 1093.28 557.515 1093.28C565.31 1093.28 572.585 1094.21 579.341 1096.07C586.171 1097.85 591.887 1100.15 596.49 1102.97V1102.08C596.49 1096.88 595.896 1092.47 594.708 1088.83C593.595 1085.19 591.85 1082.22 589.474 1079.92C587.099 1077.62 584.055 1075.95 580.343 1074.91C576.705 1073.87 572.4 1073.35 567.426 1073.35C562.897 1073.35 558.22 1073.76 553.394 1074.57C548.569 1075.32 544.115 1076.43 540.031 1077.92L531.902 1062.88C539.994 1059.54 548.346 1057.17 556.958 1055.76C565.644 1054.27 574.59 1053.53 583.795 1053.53C595.599 1053.53 606.03 1054.68 615.087 1056.98C624.218 1059.21 631.865 1062.59 638.027 1067.11C644.263 1071.57 648.977 1077.21 652.169 1084.04C655.361 1090.8 656.957 1098.74 656.957 1107.87V1166H600.499L596.713 1155.31C594.486 1157.02 591.85 1158.65 588.806 1160.21C585.763 1161.77 582.422 1163.14 578.784 1164.33C575.146 1165.52 571.286 1166.45 567.203 1167.11C563.12 1167.78 558.851 1168.12 554.397 1168.12C547.121 1168.12 540.514 1167.19 534.575 1165.33C528.71 1163.4 523.699 1160.8 519.542 1157.54C515.384 1154.27 512.155 1150.41 509.853 1145.96C507.552 1141.43 506.401 1136.53 506.401 1131.26ZM568.762 1128.92C568.762 1132.93 570.061 1136.19 572.659 1138.72C575.258 1141.17 578.747 1142.39 583.127 1142.39C585.503 1142.39 587.841 1142.02 590.143 1141.28C592.444 1140.46 594.56 1139.27 596.49 1137.71V1118.9C592.778 1116.67 588.695 1115.55 584.241 1115.55C579.192 1115.55 575.332 1116.82 572.659 1119.34C570.061 1121.79 568.762 1124.98 568.762 1128.92Z" fill="#067141"/>
<path d="M687.136 1055.64H740.476L745.821 1071.68C753.691 1065.67 761.671 1061.14 769.763 1058.09C777.93 1055.05 786.504 1053.53 795.487 1053.53C800.609 1053.53 805.361 1054.38 809.741 1056.09C814.195 1057.8 818.056 1060.43 821.322 1064C824.589 1067.56 827.15 1072.16 829.006 1077.8C830.862 1083.37 831.79 1090.05 831.79 1097.85V1166H771.322V1094.06C771.322 1090.2 770.469 1087.38 768.761 1085.6C767.054 1083.82 764.567 1082.93 761.3 1082.93C759.147 1082.93 756.771 1083.37 754.173 1084.26C751.575 1085.15 749.385 1086.56 747.603 1088.49V1166H687.136V1055.64Z" fill="#067141"/>
<path d="M868.315 1074.02H855.843V1055.64H868.315V1018.9H928.783V1055.64H957.847L946.489 1074.02H928.783V1124.02C928.783 1131.59 930.453 1137.42 933.794 1141.5C937.209 1145.58 942.071 1147.63 948.382 1147.63L941.477 1162.88C937.617 1164.52 933.497 1165.78 929.117 1166.67C924.811 1167.63 919.8 1168.12 914.083 1168.12C906.066 1168.12 899.161 1167.11 893.371 1165.11C887.58 1163.03 882.829 1160.1 879.117 1156.31C875.405 1152.53 872.658 1147.89 870.876 1142.39C869.169 1136.9 868.315 1130.7 868.315 1123.8V1074.02Z" fill="#067141"/>
<path d="M975.776 982.148H1036.24V1073.35C1044.56 1067.34 1053.06 1062.55 1061.74 1058.98C1070.5 1055.35 1079.67 1053.53 1089.25 1053.53C1094.37 1053.53 1099.12 1054.38 1103.5 1056.09C1107.96 1057.8 1111.82 1060.43 1115.08 1064C1118.35 1067.56 1120.91 1072.16 1122.77 1077.8C1124.62 1083.37 1125.55 1090.05 1125.55 1097.85V1166H1065.08V1094.06C1065.08 1090.2 1064.23 1087.38 1062.52 1085.6C1060.89 1083.82 1058.18 1082.93 1054.39 1082.93C1052.69 1082.93 1050.98 1083.19 1049.27 1083.71C1047.64 1084.23 1046.04 1084.89 1044.48 1085.71C1042.92 1086.53 1041.44 1087.46 1040.03 1088.49C1038.62 1089.53 1037.36 1090.57 1036.24 1091.61V1166H975.776V982.148Z" fill="#067141"/>
<path d="M1148.49 1131.26C1148.49 1125.91 1149.68 1120.94 1152.06 1116.33C1154.43 1111.73 1157.85 1107.72 1162.3 1104.31C1166.75 1100.89 1172.14 1098.22 1178.45 1096.29C1184.76 1094.29 1191.81 1093.28 1199.61 1093.28C1207.4 1093.28 1214.68 1094.21 1221.43 1096.07C1228.26 1097.85 1233.98 1100.15 1238.58 1102.97V1102.08C1238.58 1096.88 1237.99 1092.47 1236.8 1088.83C1235.69 1085.19 1233.94 1082.22 1231.57 1079.92C1229.19 1077.62 1226.15 1075.95 1222.43 1074.91C1218.8 1073.87 1214.49 1073.35 1209.52 1073.35C1204.99 1073.35 1200.31 1073.76 1195.49 1074.57C1190.66 1075.32 1186.21 1076.43 1182.12 1077.92L1173.99 1062.88C1182.09 1059.54 1190.44 1057.17 1199.05 1055.76C1207.73 1054.27 1216.68 1053.53 1225.89 1053.53C1237.69 1053.53 1248.12 1054.68 1257.18 1056.98C1266.31 1059.21 1273.96 1062.59 1280.12 1067.11C1286.35 1071.57 1291.07 1077.21 1294.26 1084.04C1297.45 1090.8 1299.05 1098.74 1299.05 1107.87V1166H1242.59L1238.8 1155.31C1236.58 1157.02 1233.94 1158.65 1230.9 1160.21C1227.85 1161.77 1224.51 1163.14 1220.88 1164.33C1217.24 1165.52 1213.38 1166.45 1209.29 1167.11C1205.21 1167.78 1200.94 1168.12 1196.49 1168.12C1189.21 1168.12 1182.6 1167.19 1176.67 1165.33C1170.8 1163.4 1165.79 1160.8 1161.63 1157.54C1157.48 1154.27 1154.25 1150.41 1151.94 1145.96C1149.64 1141.43 1148.49 1136.53 1148.49 1131.26ZM1210.85 1128.92C1210.85 1132.93 1212.15 1136.19 1214.75 1138.72C1217.35 1141.17 1220.84 1142.39 1225.22 1142.39C1227.59 1142.39 1229.93 1142.02 1232.23 1141.28C1234.53 1140.46 1236.65 1139.27 1238.58 1137.71V1118.9C1234.87 1116.67 1230.79 1115.55 1226.33 1115.55C1221.28 1115.55 1217.42 1116.82 1214.75 1119.34C1212.15 1121.79 1210.85 1124.98 1210.85 1128.92Z" fill="#067141"/>
<path d="M376.377 1284.24C376.377 1277.12 377.284 1270.27 379.098 1263.69C380.978 1257.04 383.699 1250.86 387.259 1245.15C390.819 1239.44 395.185 1234.23 400.357 1229.53C405.529 1224.83 411.406 1220.8 417.988 1217.44C424.638 1214.08 431.959 1211.5 439.952 1209.68C447.945 1207.8 456.543 1206.86 465.745 1206.86C471.656 1206.86 477.298 1207.23 482.671 1207.97C488.112 1208.71 493.217 1209.75 497.986 1211.1C502.755 1212.37 507.154 1213.88 511.184 1215.63C515.282 1217.31 518.976 1219.09 522.267 1220.97L513.602 1237.9C509.841 1236.08 505.542 1234.57 500.706 1233.36C495.937 1232.09 490.967 1231.45 485.795 1231.45C478.876 1231.45 472.462 1232.69 466.551 1235.18C460.64 1237.66 455.535 1241.19 451.237 1245.75C446.938 1250.32 443.546 1255.86 441.061 1262.38C438.643 1268.83 437.434 1276.08 437.434 1284.14C437.434 1292.13 438.643 1299.39 441.061 1305.9C443.479 1312.35 446.803 1317.89 451.035 1322.53C455.334 1327.1 460.405 1330.65 466.249 1333.21C472.16 1335.69 478.541 1336.94 485.392 1336.94V1286.26H544.13L533.652 1305.3V1346L533.753 1346.2C530.462 1348.15 526.398 1350.03 521.562 1351.85C516.726 1353.66 511.319 1355.31 505.341 1356.78C499.43 1358.19 493.116 1359.34 486.399 1360.21C479.682 1361.08 472.798 1361.52 465.745 1361.52C451.975 1361.52 439.549 1359.5 428.467 1355.47C417.451 1351.38 408.081 1345.84 400.357 1338.85C392.632 1331.8 386.688 1323.6 382.523 1314.27C378.426 1304.86 376.377 1294.85 376.377 1284.24Z" fill="#00A651"/>
<path d="M561.661 1259.15H609.922L614.758 1273.66C618.587 1270.84 622.18 1268.42 625.539 1266.41C628.964 1264.33 632.255 1262.61 635.412 1261.27C638.636 1259.86 641.726 1258.85 644.682 1258.25C647.704 1257.58 650.693 1257.24 653.649 1257.24C657.947 1257.24 661.81 1257.84 665.235 1259.05C668.728 1260.26 671.683 1261.98 674.101 1264.19C676.587 1266.41 678.467 1269.06 679.743 1272.15C681.087 1275.17 681.759 1278.53 681.759 1282.23C681.759 1285.92 680.952 1289.31 679.34 1292.4C677.796 1295.49 675.512 1298.18 672.489 1300.46C669.467 1302.68 665.739 1304.43 661.306 1305.7C656.94 1306.91 651.936 1307.52 646.294 1307.52L628.561 1283.84C626.613 1283.84 624.497 1284.24 622.214 1285.05C619.93 1285.85 617.982 1287.13 616.37 1288.88V1359H561.661V1259.15Z" fill="#00A651"/>
<path d="M690.927 1327.57C690.927 1322.73 692.002 1318.23 694.151 1314.06C696.3 1309.9 699.39 1306.27 703.42 1303.18C707.45 1300.09 712.32 1297.68 718.029 1295.93C723.739 1294.12 730.12 1293.21 737.172 1293.21C744.225 1293.21 750.808 1294.05 756.92 1295.73C763.099 1297.34 768.271 1299.42 772.436 1301.97V1301.17C772.436 1296.47 771.898 1292.47 770.824 1289.18C769.816 1285.89 768.238 1283.2 766.088 1281.12C763.939 1279.04 761.185 1277.52 757.827 1276.58C754.535 1275.64 750.64 1275.17 746.139 1275.17C742.042 1275.17 737.811 1275.54 733.445 1276.28C729.079 1276.95 725.049 1277.96 721.354 1279.3L713.999 1265.7C721.321 1262.68 728.877 1260.53 736.669 1259.25C744.527 1257.91 752.621 1257.24 760.95 1257.24C771.63 1257.24 781.067 1258.28 789.262 1260.36C797.523 1262.38 804.442 1265.43 810.017 1269.53C815.659 1273.56 819.924 1278.67 822.812 1284.85C825.7 1290.96 827.145 1298.15 827.145 1306.41V1359H776.063L772.637 1349.33C770.622 1350.87 768.238 1352.35 765.484 1353.76C762.73 1355.17 759.707 1356.41 756.416 1357.49C753.125 1358.56 749.632 1359.4 745.938 1360.01C742.244 1360.61 738.381 1360.91 734.351 1360.91C727.769 1360.91 721.791 1360.07 716.417 1358.4C711.111 1356.65 706.577 1354.3 702.816 1351.34C699.054 1348.39 696.133 1344.89 694.05 1340.86C691.968 1336.77 690.927 1332.33 690.927 1327.57ZM747.348 1325.45C747.348 1329.08 748.524 1332.03 750.875 1334.32C753.226 1336.53 756.383 1337.64 760.346 1337.64C762.495 1337.64 764.611 1337.3 766.693 1336.63C768.775 1335.89 770.689 1334.82 772.436 1333.41V1316.38C769.077 1314.37 765.383 1313.36 761.353 1313.36C756.786 1313.36 753.293 1314.5 750.875 1316.78C748.524 1319 747.348 1321.89 747.348 1325.45Z" fill="#00A651"/>
<path d="M854.448 1259.15H902.709L907.545 1273.66C914.665 1268.22 921.885 1264.12 929.207 1261.37C936.595 1258.62 944.353 1257.24 952.481 1257.24C958.593 1257.24 964.134 1258.58 969.105 1261.27C974.075 1263.96 977.971 1268.22 980.792 1274.07C983.882 1271.85 987.207 1269.73 990.767 1267.72C994.327 1265.7 998.054 1263.92 1001.95 1262.38C1005.91 1260.77 1010.01 1259.52 1014.24 1258.65C1018.47 1257.71 1022.87 1257.24 1027.44 1257.24C1032.08 1257.24 1036.41 1258.01 1040.44 1259.56C1044.47 1261.1 1047.96 1263.49 1050.92 1266.71C1053.87 1269.93 1056.19 1274.1 1057.87 1279.2C1059.55 1284.24 1060.39 1290.29 1060.39 1297.34V1359H1005.68V1293.91C1005.68 1290.42 1004.87 1287.87 1003.26 1286.26C1001.72 1284.64 999.465 1283.84 996.51 1283.84C994.965 1283.84 993.218 1284.21 991.27 1284.95C989.323 1285.62 987.341 1286.63 985.326 1287.97V1359H930.617V1293.91C930.617 1290.42 929.845 1287.87 928.3 1286.26C926.755 1284.64 924.505 1283.84 921.55 1283.84C919.602 1283.84 917.452 1284.24 915.102 1285.05C912.751 1285.85 910.769 1287.13 909.157 1288.88V1359H854.448V1259.15Z" fill="#00A651"/>
</svg>
