<?xml version="1.0" encoding="utf-8"?>
<!-- Generator: Adobe Illustrator 27.0.0, SVG Export Plug-In . SVG Version: 6.00 Build 0)  -->
<svg version="1.1" id="Layer_1" xmlns="http://www.w3.org/2000/svg" xmlns:xlink="http://www.w3.org/1999/xlink" x="0px" y="0px"
	 viewBox="0 0 1440 1440" style="enable-background:new 0 0 1440 1440;" xml:space="preserve">
<style type="text/css">
	.st0{fill-rule:evenodd;clip-rule:evenodd;fill:#00A651;}
	.st1{fill-rule:evenodd;clip-rule:evenodd;fill:#067141;}
	.st2{fill-rule:evenodd;clip-rule:evenodd;fill:#85B642;}
	.st3{fill:#067141;}
	.st4{font-family:'Righteous-Regular';}
	.st5{font-size:228.0614px;}
	.st6{fill:#00A651;}
	.st7{font-size:206.3413px;}
</style>
<g>
	<path class="st0" d="M812.7,523.2h-81.5v81.5h81.5V523.2z M627.3,708.5h81.5V627h-81.5V708.5z M627.3,523.2h81.5v81.5h-81.5V523.2z
		 M812.7,708.5h-81.5V627h81.5V708.5z M234.2,560.4l43,69.5l90.3-55.9v301.3h81.7V523.4L720,355.8l71,43.9
		c-3.3-14.1-5.5-28.5-6.8-43c-2-19.6-2.4-39.3-2.9-59.1l-61.3-38L234.2,560.4z"/>
	<path class="st1" d="M1071.9,859.1c0.2-1.4,0.4-2.8,0.5-4.1V517.7c86.6-62.4,78.1-159.2,58.6-226.7
		C1091.2,152.6,910.6,51.8,706,61.9c133.6,68.5,106.1,201.3,115.3,291.3c10.3,119.6,99.6,184.9,152.7,191
		c29.4-110.3,11.7-215.7-29.3-327c91.4,132.7,141.1,472.6-67.6,622.6C904.6,843.4,1044.9,854.3,1071.9,859.1"/>
	<path class="st0" d="M1307.9,474.4c0,0-15-1.2-31.3,11.5c-16.4,12.7-38.1,48.5-75.7,67.1c-37.6,18.6-66.1-0.9-74-9.6
		c-7.9-8.7-2-20.5-2-20.5s-18.5-7.6-2.2-32.8C1193.3,410.5,1307.9,474.4,1307.9,474.4"/>
	<path class="st0" d="M1199,651.7c0,0-5.4-8.2-18.6-11.5c-13.2-3.3-40.4-0.1-65.2-12c-24.8-11.9-26.2-34.5-24.9-42
		c1.3-7.6,9.8-9.3,9.8-9.3s-3.5-12.6,16-14.3C1185.8,566.7,1199,651.7,1199,651.7"/>
	<path class="st0" d="M903.5,667.3c0,0,3.3-9.3,15.3-15.7c12-6.4,39.2-9.8,60.4-27.3c21.2-17.5,17.2-39.8,14.1-46.8
		c-3.1-7-11.7-6.7-11.7-6.7s0.4-13.1-19-10.1C895.9,581.7,903.5,667.3,903.5,667.3"/>
	<path class="st2" d="M70.5,982.6c431.6-130.1,864.7-118.8,1299,5.5C1004.5,743.6,439.1,754.1,70.5,982.6"/>
	<path class="st0" d="M624.5,95.5c0,0,9.8,0.1,19.8,9.4c9.9,9.3,21.9,33.9,45.4,48.3c23.4,14.4,43.2,3.4,48.8-1.8
		c5.7-5.2,2.5-13.3,2.5-13.3s12.5-3.9,3.4-21.2C703,60.6,624.5,95.5,624.5,95.5"/>
	<path class="st0" d="M653.1,250.8c0,0,6.1-7.7,19.6-9.8c13.4-2.1,40.2,3.6,66-6c25.8-9.6,29.3-31.9,28.7-39.6
		c-0.6-7.7-8.9-10.2-8.9-10.2s4.7-12.3-14.7-15.7C674,167.4,653.1,250.8,653.1,250.8"/>
</g>
<text transform="matrix(1 0 0 1 178.9765 1119.4342)"><tspan x="0" y="0" class="st3 st4 st5">Aanantha</tspan><tspan x="248" y="206.3" class="st6 st4 st7">farms</tspan></text>
</svg>
